<svg width="597" height="354" viewBox="0 0 597 354" fill="none" xmlns="http://www.w3.org/2000/svg">
<ellipse rx="156.605" ry="152.336" transform="matrix(-1 0 0 1 414.543 152.336)" fill="#F1F380"/>
<ellipse rx="156.605" ry="152.336" transform="matrix(-1 0 0 1 414.543 152.336)" fill="white" fill-opacity="0.65"/>
<path fill-rule="evenodd" clip-rule="evenodd" d="M480.8 170.623C461.273 161.638 449.635 185.201 459.456 198.321C471.44 214.331 477.579 232.753 480.998 238.303C483.881 242.986 491.781 254.4 501.294 249.139C510.048 244.297 505.277 225.293 505.277 225.293C505.277 225.293 504.89 181.706 480.8 170.623Z" fill="#B7EE81"/>
<path fill-rule="evenodd" clip-rule="evenodd" d="M480.8 170.623C461.273 161.638 449.635 185.201 459.456 198.321C471.44 214.331 477.579 232.753 480.998 238.303C483.881 242.986 491.781 254.4 501.294 249.139C510.048 244.297 505.277 225.293 505.277 225.293C505.277 225.293 504.89 181.706 480.8 170.623Z" fill="white" fill-opacity="0.2"/>
<path fill-rule="evenodd" clip-rule="evenodd" d="M469.743 246.142C477.251 254.701 488.087 271.919 494.875 265.889C498.989 262.234 493.489 244.927 478.434 235.51C465.628 227.5 462.234 237.582 469.743 246.142Z" fill="#B7EE81"/>
<path fill-rule="evenodd" clip-rule="evenodd" d="M469.743 246.142C477.251 254.701 488.087 271.919 494.875 265.889C498.989 262.234 493.489 244.927 478.434 235.51C465.628 227.5 462.234 237.582 469.743 246.142Z" fill="white" fill-opacity="0.2"/>
<path fill-rule="evenodd" clip-rule="evenodd" d="M539.535 245.48C546.174 236.768 548.597 224.265 541.188 221.059C534.083 217.985 522.315 225.554 516.864 240.119C511.414 254.685 508.269 265.157 513.601 266.978C522.349 269.966 530.767 256.987 539.535 245.48Z" fill="#B7EE81"/>
<path fill-rule="evenodd" clip-rule="evenodd" d="M539.535 245.48C546.174 236.768 548.597 224.265 541.188 221.059C534.083 217.985 522.315 225.554 516.864 240.119C511.414 254.685 508.269 265.157 513.601 266.978C522.349 269.966 530.767 256.987 539.535 245.48Z" fill="white" fill-opacity="0.2"/>
<path fill-rule="evenodd" clip-rule="evenodd" d="M541.593 186.744C538.738 184.875 535.145 184.448 531.868 185.47C527.294 186.895 520.352 191.138 513.482 203.318C504.513 219.219 499.844 236.652 500.767 247.695C501.37 254.916 510.516 258.029 515.633 252.764C517.983 250.346 520.469 246.618 522.901 240.963C532.691 218.207 541.844 203.946 542.935 202.514C545.848 198.694 547.93 190.892 541.593 186.744Z" fill="#B7EE81"/>
<path fill-rule="evenodd" clip-rule="evenodd" d="M541.593 186.744C538.738 184.875 535.145 184.448 531.868 185.47C527.294 186.895 520.352 191.138 513.482 203.318C504.513 219.219 499.844 236.652 500.767 247.695C501.37 254.916 510.516 258.029 515.633 252.764C517.983 250.346 520.469 246.618 522.901 240.963C532.691 218.207 541.844 203.946 542.935 202.514C545.848 198.694 547.93 190.892 541.593 186.744Z" fill="black" fill-opacity="0.2"/>
<path d="M522.563 247.966C522.459 247.869 522.293 247.873 522.194 247.975L522.102 248.072L522.041 248.137C521.92 248.269 521.779 248.427 521.62 248.611C521.169 249.134 520.667 249.76 520.126 250.489C518.583 252.566 517.041 255.046 515.603 257.925C511.495 266.143 509.031 275.906 509.031 287.18C509.031 287.321 509.148 287.434 509.292 287.434C509.437 287.434 509.553 287.321 509.553 287.18C509.553 275.986 511.998 266.298 516.072 258.147C517.497 255.296 519.024 252.841 520.549 250.786C521.051 250.11 521.519 249.524 521.942 249.029L522.02 248.937C522.158 248.777 522.282 248.638 522.39 248.519L522.488 248.414L522.572 248.325C522.671 248.224 522.667 248.063 522.563 247.966Z" fill="#2A84C6"/>
<path d="M522.563 247.966C522.459 247.869 522.293 247.873 522.194 247.975L522.102 248.072L522.041 248.137C521.92 248.269 521.779 248.427 521.62 248.611C521.169 249.134 520.667 249.76 520.126 250.489C518.583 252.566 517.041 255.046 515.603 257.925C511.495 266.143 509.031 275.906 509.031 287.18C509.031 287.321 509.148 287.434 509.292 287.434C509.437 287.434 509.553 287.321 509.553 287.18C509.553 275.986 511.998 266.298 516.072 258.147C517.497 255.296 519.024 252.841 520.549 250.786C521.051 250.11 521.519 249.524 521.942 249.029L522.02 248.937C522.158 248.777 522.282 248.638 522.39 248.519L522.488 248.414L522.572 248.325C522.671 248.224 522.667 248.063 522.563 247.966Z" fill="black" fill-opacity="0.35"/>
<path d="M485.564 251.27C485.478 251.158 485.314 251.135 485.199 251.218C485.083 251.302 485.06 251.461 485.146 251.574C486.935 253.904 488.585 256.409 490.103 259.064C493.309 264.675 495.788 270.688 497.627 276.702C498.271 278.806 498.789 280.76 499.192 282.514L499.247 282.755C499.346 283.191 499.432 283.59 499.505 283.948L499.57 284.275C499.587 284.362 499.602 284.441 499.616 284.514L499.652 284.711C499.676 284.85 499.811 284.943 499.953 284.92C500.095 284.896 500.191 284.765 500.167 284.627L500.119 284.366C500.108 284.308 500.096 284.246 500.083 284.18L500.056 284.043C499.961 283.57 499.844 283.021 499.702 282.403C499.296 280.639 498.775 278.673 498.127 276.557C496.278 270.51 493.786 264.463 490.559 258.818C489.03 256.143 487.367 253.619 485.564 251.27Z" fill="#2A84C6"/>
<path d="M485.564 251.27C485.478 251.158 485.314 251.135 485.199 251.218C485.083 251.302 485.06 251.461 485.146 251.574C486.935 253.904 488.585 256.409 490.103 259.064C493.309 264.675 495.788 270.688 497.627 276.702C498.271 278.806 498.789 280.76 499.192 282.514L499.247 282.755C499.346 283.191 499.432 283.59 499.505 283.948L499.57 284.275C499.587 284.362 499.602 284.441 499.616 284.514L499.652 284.711C499.676 284.85 499.811 284.943 499.953 284.92C500.095 284.896 500.191 284.765 500.167 284.627L500.119 284.366C500.108 284.308 500.096 284.246 500.083 284.18L500.056 284.043C499.961 283.57 499.844 283.021 499.702 282.403C499.296 280.639 498.775 278.673 498.127 276.557C496.278 270.51 493.786 264.463 490.559 258.818C489.03 256.143 487.367 253.619 485.564 251.27Z" fill="black" fill-opacity="0.35"/>
<path d="M477.353 191.905C477.249 192.002 477.246 192.162 477.345 192.264L477.41 192.33C477.464 192.387 477.528 192.456 477.603 192.536L477.768 192.718C477.921 192.887 478.089 193.077 478.271 193.287L478.34 193.367C479.136 194.294 480.023 195.408 480.98 196.71C483.715 200.435 486.451 204.92 489.005 210.169C493.256 218.907 496.567 228.871 498.573 240.071C501.008 253.669 501.412 268.521 499.418 284.639C499.401 284.779 499.503 284.905 499.646 284.922C499.789 284.938 499.919 284.839 499.937 284.7C501.936 268.533 501.531 253.63 499.087 239.984C497.073 228.738 493.748 218.73 489.477 209.952C486.909 204.674 484.157 200.164 481.405 196.415L481.192 196.126C480.308 194.936 479.485 193.908 478.74 193.041L478.535 192.804C478.379 192.626 478.235 192.464 478.102 192.318L477.991 192.197C477.928 192.128 477.871 192.068 477.821 192.015L477.722 191.912C477.623 191.811 477.457 191.808 477.353 191.905Z" fill="#2A84C6"/>
<path d="M477.353 191.905C477.249 192.002 477.246 192.162 477.345 192.264L477.41 192.33C477.464 192.387 477.528 192.456 477.603 192.536L477.768 192.718C477.921 192.887 478.089 193.077 478.271 193.287L478.34 193.367C479.136 194.294 480.023 195.408 480.98 196.71C483.715 200.435 486.451 204.92 489.005 210.169C493.256 218.907 496.567 228.871 498.573 240.071C501.008 253.669 501.412 268.521 499.418 284.639C499.401 284.779 499.503 284.905 499.646 284.922C499.789 284.938 499.919 284.839 499.937 284.7C501.936 268.533 501.531 253.63 499.087 239.984C497.073 228.738 493.748 218.73 489.477 209.952C486.909 204.674 484.157 200.164 481.405 196.415L481.192 196.126C480.308 194.936 479.485 193.908 478.74 193.041L478.535 192.804C478.379 192.626 478.235 192.464 478.102 192.318L477.991 192.197C477.928 192.128 477.871 192.068 477.821 192.015L477.722 191.912C477.623 191.811 477.457 191.808 477.353 191.905Z" fill="black" fill-opacity="0.35"/>
<path d="M519.438 220.164C519.314 220.092 519.154 220.13 519.079 220.25L519.031 220.328C518.993 220.392 518.947 220.468 518.895 220.556L518.779 220.754C518.658 220.961 518.525 221.195 518.379 221.455L518.245 221.697C517.749 222.595 517.205 223.635 516.624 224.813L516.545 224.975C514.649 228.839 512.754 233.358 510.985 238.493C506.032 252.877 503.018 269.204 502.905 287.178C502.904 287.319 503.02 287.433 503.165 287.434C503.309 287.435 503.426 287.322 503.427 287.181C503.54 269.263 506.544 252.989 511.48 238.655C513.242 233.539 515.129 229.039 517.016 225.194L517.174 224.874C517.748 223.716 518.284 222.695 518.772 221.817L518.838 221.698C518.998 221.411 519.143 221.157 519.272 220.937L519.432 220.666L519.525 220.513C519.6 220.393 519.561 220.237 519.438 220.164Z" fill="#2A84C6"/>
<path d="M519.438 220.164C519.314 220.092 519.154 220.13 519.079 220.25L519.031 220.328C518.993 220.392 518.947 220.468 518.895 220.556L518.779 220.754C518.658 220.961 518.525 221.195 518.379 221.455L518.245 221.697C517.749 222.595 517.205 223.635 516.624 224.813L516.545 224.975C514.649 228.839 512.754 233.358 510.985 238.493C506.032 252.877 503.018 269.204 502.905 287.178C502.904 287.319 503.02 287.433 503.165 287.434C503.309 287.435 503.426 287.322 503.427 287.181C503.54 269.263 506.544 252.989 511.48 238.655C513.242 233.539 515.129 229.039 517.016 225.194L517.174 224.874C517.748 223.716 518.284 222.695 518.772 221.817L518.838 221.698C518.998 221.411 519.143 221.157 519.272 220.937L519.432 220.666L519.525 220.513C519.6 220.393 519.561 220.237 519.438 220.164Z" fill="black" fill-opacity="0.35"/>
<path fill-rule="evenodd" clip-rule="evenodd" d="M535.027 195.821C534.931 196.944 535.788 197.932 536.943 198.026C538.098 198.12 539.113 197.286 539.21 196.162C539.307 195.038 538.449 194.051 537.294 193.957C536.139 193.863 535.124 194.697 535.027 195.821Z" fill="white"/>
<path fill-rule="evenodd" clip-rule="evenodd" d="M517.2 204.538C517.103 205.661 517.961 206.648 519.116 206.743C520.272 206.837 521.286 206.002 521.383 204.879C521.48 203.755 520.622 202.768 519.467 202.674C518.312 202.58 517.297 203.414 517.2 204.538Z" fill="white"/>
<path fill-rule="evenodd" clip-rule="evenodd" d="M520.188 227.746C520.077 229.033 521.06 230.163 522.382 230.271C523.705 230.379 524.867 229.423 524.978 228.137C525.089 226.85 524.107 225.719 522.784 225.611C521.461 225.503 520.299 226.459 520.188 227.746Z" fill="white"/>
<path fill-rule="evenodd" clip-rule="evenodd" d="M465.433 193.061C465.433 194.887 466.955 196.368 468.832 196.368C470.71 196.368 472.231 194.887 472.231 193.061C472.231 191.235 470.71 189.755 468.832 189.755C466.955 189.755 465.433 191.235 465.433 193.061Z" fill="white"/>
<path fill-rule="evenodd" clip-rule="evenodd" d="M492.797 203.159C492.797 204.985 494.318 206.465 496.196 206.465C498.073 206.465 499.595 204.985 499.595 203.159C499.595 201.333 498.073 199.853 496.196 199.853C494.318 199.853 492.797 201.333 492.797 203.159Z" fill="white"/>
<path fill-rule="evenodd" clip-rule="evenodd" d="M483.934 225.603C483.934 226.366 484.571 226.985 485.355 226.985C486.14 226.985 486.776 226.366 486.776 225.603C486.776 224.839 486.14 224.221 485.355 224.221C484.571 224.221 483.934 224.839 483.934 225.603Z" fill="white"/>
<path fill-rule="evenodd" clip-rule="evenodd" d="M473.699 243.277C473.699 244.405 474.639 245.319 475.798 245.319C476.957 245.319 477.896 244.405 477.896 243.277C477.896 242.15 476.957 241.236 475.798 241.236C474.639 241.236 473.699 242.15 473.699 243.277Z" fill="white"/>
<path fill-rule="evenodd" clip-rule="evenodd" d="M492.88 310.793H513.326C516.318 309.942 517.809 309.098 519.514 306.749L528.777 276.729C528.777 274.504 526.906 272.685 524.619 272.685H482.317C480.03 272.685 478.159 274.504 478.159 276.729L487.341 306.749C488.832 309.942 489.898 310.363 492.88 310.793Z" fill="#2A84C6"/>
<path fill-rule="evenodd" clip-rule="evenodd" d="M492.88 310.793H513.326C516.318 309.942 517.809 309.098 519.514 306.749L528.777 276.729C528.777 274.504 526.906 272.685 524.619 272.685H482.317C480.03 272.685 478.159 274.504 478.159 276.729L487.341 306.749C488.832 309.942 489.898 310.363 492.88 310.793Z" fill="black" fill-opacity="0.35"/>
<mask id="mask0_413_3058" style="mask-type:alpha" maskUnits="userSpaceOnUse" x="221" y="46" width="302" height="294">
<ellipse rx="150.374" ry="146.275" transform="matrix(-1 0 0 1 372.16 192.959)" fill="#C4C4C4"/>
</mask>
<g mask="url(#mask0_413_3058)">
<path fill-rule="evenodd" clip-rule="evenodd" d="M484.812 207.16C489.206 197.399 484.633 186.021 474.597 181.748L417.124 157.271C407.088 152.997 395.393 157.445 390.999 167.207C386.606 176.968 391.18 188.345 401.214 192.619L458.69 217.095C468.723 221.369 480.419 216.92 484.812 207.16Z" fill="#E4EBF7"/>
<path fill-rule="evenodd" clip-rule="evenodd" d="M244.428 236.24C236.342 229.05 235.781 216.846 243.173 208.983L289.352 159.849C296.744 151.986 309.29 151.439 317.375 158.629C325.458 165.818 326.02 178.022 318.63 185.886L272.449 235.019C265.057 242.884 252.513 243.43 244.428 236.24Z" fill="#E4EBF7"/>
<path fill-rule="evenodd" clip-rule="evenodd" d="M327.996 297.311C327.996 297.311 320.823 282.747 327.535 275.816C333.611 269.538 340.781 274.679 340.781 274.679C340.781 274.679 348.74 278.693 355.154 286.111C359.381 290.999 366.449 301.088 364.108 303.595C361.059 306.862 353.742 294.993 350.888 296.605C347.958 298.261 349.282 300.822 350.324 307.611C350.976 311.854 353.334 315.786 353.18 319.487C352.881 326.717 336.882 320.031 327.996 297.311Z" fill="#FFC999"/>
<path d="M343.793 301.568C343.513 301.539 343.262 301.736 343.232 302.009L343.222 302.127C343.218 302.177 343.213 302.239 343.209 302.312C343.118 303.903 343.266 306.045 343.844 308.575C344.711 312.371 346.39 316.227 349.07 319.977C349.231 320.202 349.548 320.257 349.779 320.101C350.01 319.945 350.067 319.636 349.907 319.411C347.305 315.771 345.678 312.034 344.838 308.36C344.315 306.067 344.158 304.115 344.214 302.638L344.227 302.367C344.234 302.239 344.241 302.153 344.246 302.114C344.275 301.841 344.073 301.597 343.793 301.568Z" fill="#DD936F"/>
<path d="M337.738 301.582L337.655 301.583C337.375 301.61 337.17 301.852 337.197 302.124C337.537 305.538 338.554 308.87 340.036 312.019C340.682 313.392 341.375 314.639 342.068 315.736L342.351 316.176C342.443 316.315 342.531 316.447 342.616 316.571L342.872 316.937C342.929 317.016 342.973 317.076 343.003 317.115C343.171 317.334 343.49 317.381 343.716 317.218C343.942 317.055 343.989 316.744 343.822 316.524L343.583 316.193C343.388 315.915 343.171 315.589 342.936 315.217C342.263 314.153 341.59 312.941 340.962 311.606C339.524 308.552 338.539 305.323 338.211 302.029C338.187 301.784 337.983 301.598 337.738 301.582Z" fill="#DD936F"/>
<path d="M332.376 298.693C332.123 298.691 331.911 298.869 331.87 299.104L331.863 299.185C331.86 299.859 332 301.076 332.416 302.792C333.099 305.604 334.329 308.822 336.242 312.399C336.372 312.642 336.68 312.736 336.929 312.61C337.179 312.484 337.276 312.185 337.146 311.942C335.272 308.437 334.071 305.296 333.408 302.564C333.176 301.608 333.027 300.772 332.946 300.06L332.904 299.636C332.891 299.474 332.884 299.346 332.882 299.254L332.882 299.191L332.876 299.112C332.838 298.876 332.629 298.695 332.376 298.693Z" fill="#DD936F"/>
<path fill-rule="evenodd" clip-rule="evenodd" d="M341.707 265.179L320.864 291.278L246.038 238.246C237.387 231.709 235.823 219.588 242.541 211.173C249.263 202.758 261.723 201.236 270.373 207.771L341.707 265.179Z" fill="#E4EBF7"/>
<path d="M281.459 216.671C281.154 216.43 280.706 216.475 280.458 216.771C280.233 217.041 280.251 217.426 280.485 217.675L280.562 217.745L341.114 265.588L320.698 291.154C320.479 291.428 320.505 291.812 320.745 292.056L320.823 292.125C321.106 292.338 321.501 292.312 321.751 292.079L321.822 292.003L342.665 265.903C342.88 265.633 342.858 265.255 342.627 265.011L342.551 264.941L281.459 216.671Z" fill="#1443BD"/>
<path d="M281.459 216.671C281.154 216.43 280.706 216.475 280.458 216.771C280.233 217.041 280.251 217.426 280.485 217.675L280.562 217.745L341.114 265.588L320.698 291.154C320.479 291.428 320.505 291.812 320.745 292.056L320.823 292.125C321.106 292.338 321.501 292.312 321.751 292.079L321.822 292.003L342.665 265.903C342.88 265.633 342.858 265.255 342.627 265.011L342.551 264.941L281.459 216.671Z" fill="white" fill-opacity="0.2"/>
<path d="M329.249 258.109C328.967 257.896 328.572 257.922 328.321 258.155L328.251 258.231L310.552 280.393C310.31 280.695 310.367 281.13 310.677 281.364C310.959 281.577 311.354 281.551 311.605 281.318L311.675 281.242L329.374 259.081C329.615 258.779 329.559 258.344 329.249 258.109Z" fill="#1443BD"/>
<path d="M329.249 258.109C328.967 257.896 328.572 257.922 328.321 258.155L328.251 258.231L310.552 280.393C310.31 280.695 310.367 281.13 310.677 281.364C310.959 281.577 311.354 281.551 311.605 281.318L311.675 281.242L329.374 259.081C329.615 258.779 329.559 258.344 329.249 258.109Z" fill="white" fill-opacity="0.2"/>
<path fill-rule="evenodd" clip-rule="evenodd" d="M434.255 94.8027C434.255 94.8027 443.671 108.102 438.154 115.967C433.156 123.09 425.251 119.096 425.251 119.096C425.251 119.096 416.746 116.338 409.221 109.982C404.264 105.794 395.667 96.9 397.577 94.0704C400.066 90.3799 409.194 100.996 411.756 98.9695C414.385 96.8903 412.665 94.5618 410.549 88.0127C409.225 83.9207 406.267 80.3935 405.824 76.7168C404.962 69.5281 421.838 73.7087 434.255 94.8027Z" fill="#FFC999"/>
<path d="M409.773 75.6374C409.596 75.4577 409.303 75.4516 409.118 75.6237C408.933 75.7959 408.927 76.0811 409.104 76.2608C409.247 76.4064 409.389 76.5526 409.529 76.6995C412.833 80.1738 415.032 83.893 416.339 87.6096C416.795 88.9076 417.108 90.1115 417.302 91.1898C417.353 91.4714 417.392 91.7287 417.423 91.9601L417.468 92.3579C417.475 92.432 417.479 92.4858 417.48 92.5184C417.493 92.767 417.711 92.9583 417.966 92.9458C418.222 92.9332 418.419 92.7216 418.406 92.4731L418.391 92.2815L418.371 92.0854C418.337 91.7809 418.286 91.4292 418.214 91.0341C418.012 89.9109 417.688 88.6617 417.216 87.318C415.869 83.4867 413.604 79.658 410.209 76.0875C410.065 75.9368 409.92 75.7868 409.773 75.6374Z" fill="#1443BD"/>
<path d="M409.773 75.6374C409.596 75.4577 409.303 75.4516 409.118 75.6237C408.933 75.7959 408.927 76.0811 409.104 76.2608C409.247 76.4064 409.389 76.5526 409.529 76.6995C412.833 80.1738 415.032 83.893 416.339 87.6096C416.795 88.9076 417.108 90.1115 417.302 91.1898C417.353 91.4714 417.392 91.7287 417.423 91.9601L417.468 92.3579C417.475 92.432 417.479 92.4858 417.48 92.5184C417.493 92.767 417.711 92.9583 417.966 92.9458C418.222 92.9332 418.419 92.7216 418.406 92.4731L418.391 92.2815L418.371 92.0854C418.337 91.7809 418.286 91.4292 418.214 91.0341C418.012 89.9109 417.688 88.6617 417.216 87.318C415.869 83.4867 413.604 79.658 410.209 76.0875C410.065 75.9368 409.92 75.7868 409.773 75.6374Z" fill="white" fill-opacity="0.2"/>
<path d="M416.243 77.5302C416.051 77.347 415.743 77.3497 415.554 77.5362C415.366 77.7227 415.369 78.0225 415.561 78.2057L415.765 78.4097C415.812 78.4574 415.864 78.5118 415.923 78.5728L416.292 78.9684C416.484 79.179 416.688 79.4088 416.901 79.6572C417.916 80.8421 418.932 82.1999 419.879 83.708C421.46 86.2233 422.689 88.8978 423.43 91.6855C423.497 91.9387 423.762 92.0909 424.023 92.0254C424.283 91.96 424.439 91.7018 424.372 91.4486C423.606 88.5636 422.338 85.8047 420.71 83.2141C419.736 81.6645 418.692 80.2697 417.648 79.051C417.355 78.7091 417.079 78.4006 416.823 78.1269L416.468 77.7545C416.418 77.7033 416.374 77.659 416.336 77.6216L416.243 77.5302Z" fill="#DD936F"/>
<path fill-rule="evenodd" clip-rule="evenodd" d="M413.09 124.141L444.07 110.569L484.664 191.508C489.162 201.225 484.712 212.648 474.725 217.023C464.736 221.398 452.993 217.07 448.494 207.353L413.09 124.141Z" fill="#E4EBF7"/>
<path d="M444.512 109.842C444.364 109.522 443.998 109.365 443.662 109.462L443.571 109.495L412.592 123.067C412.274 123.206 412.111 123.545 412.193 123.865L412.225 123.96L439.039 187.702C439.188 188.055 439.604 188.225 439.968 188.08C440.301 187.947 440.475 187.597 440.387 187.267L440.357 187.177L413.803 124.054L444.156 110.757C444.484 110.613 444.646 110.257 444.546 109.93L444.512 109.842Z" fill="#1443BD"/>
<path d="M444.512 109.842C444.364 109.522 443.998 109.365 443.662 109.462L443.571 109.495L412.592 123.067C412.274 123.206 412.111 123.545 412.193 123.865L412.225 123.96L439.039 187.702C439.188 188.055 439.604 188.225 439.968 188.08C440.301 187.947 440.475 187.597 440.387 187.267L440.357 187.177L413.803 124.054L444.156 110.757C444.484 110.613 444.646 110.257 444.546 109.93L444.512 109.842Z" fill="white" fill-opacity="0.2"/>
<path d="M449.174 122.092C449.04 121.766 448.681 121.594 448.341 121.677L448.249 121.706L420.201 132.62C419.837 132.762 419.659 133.165 419.805 133.52C419.939 133.845 420.298 134.017 420.638 133.934L420.73 133.905L448.778 122.991C449.143 122.849 449.32 122.446 449.174 122.092Z" fill="#1443BD"/>
<path d="M449.174 122.092C449.04 121.766 448.681 121.594 448.341 121.677L448.249 121.706L420.201 132.62C419.837 132.762 419.659 133.165 419.805 133.52C419.939 133.845 420.298 134.017 420.638 133.934L420.73 133.905L448.778 122.991C449.143 122.849 449.32 122.446 449.174 122.092Z" fill="white" fill-opacity="0.2"/>
<path fill-rule="evenodd" clip-rule="evenodd" d="M409.793 121.874L430.309 108.561C432.007 107.459 432.467 105.228 431.334 103.575L401.882 60.6255C400.75 58.974 398.453 58.5283 396.756 59.6302L376.239 72.9417C374.541 74.0436 374.081 76.2765 375.214 77.928L404.665 120.877C405.798 122.53 408.095 122.976 409.793 121.874Z" fill="#1443BD"/>
<path fill-rule="evenodd" clip-rule="evenodd" d="M409.793 121.874L430.309 108.561C432.007 107.459 432.467 105.228 431.334 103.575L401.882 60.6255C400.75 58.974 398.453 58.5283 396.756 59.6302L376.239 72.9417C374.541 74.0436 374.081 76.2765 375.214 77.928L404.665 120.877C405.798 122.53 408.095 122.976 409.793 121.874Z" fill="black" fill-opacity="0.5"/>
<path fill-rule="evenodd" clip-rule="evenodd" d="M357.082 411.033L370.299 335.497C372.826 319.842 360.565 305.619 344.279 305.311C330.181 305.044 318.27 315.42 316.995 329.079L309.834 405.838C309.834 405.838 306.561 427.595 330.157 429.98C353.106 432.3 357.082 411.033 357.082 411.033Z" fill="#1443BD"/>
<path fill-rule="evenodd" clip-rule="evenodd" d="M357.082 411.033L370.299 335.497C372.826 319.842 360.565 305.619 344.279 305.311C330.181 305.044 318.27 315.42 316.995 329.079L309.834 405.838C309.834 405.838 306.561 427.595 330.157 429.98C353.106 432.3 357.082 411.033 357.082 411.033Z" fill="black" fill-opacity="0.5"/>
<path fill-rule="evenodd" clip-rule="evenodd" d="M376.519 406.699L366.967 330.643C365.2 314.889 378.134 301.243 394.419 301.68C408.513 302.058 419.909 312.969 420.523 326.671L423.965 403.67C423.965 403.67 426.184 425.553 402.498 426.857C379.462 428.125 376.519 406.699 376.519 406.699Z" fill="#1443BD"/>
<path fill-rule="evenodd" clip-rule="evenodd" d="M376.519 406.699L366.967 330.643C365.2 314.889 378.134 301.243 394.419 301.68C408.513 302.058 419.909 312.969 420.523 326.671L423.965 403.67C423.965 403.67 426.184 425.553 402.498 426.857C379.462 428.125 376.519 406.699 376.519 406.699Z" fill="black" fill-opacity="0.5"/>
<path fill-rule="evenodd" clip-rule="evenodd" d="M363.005 344.883L321.784 313.752C318.92 311.59 317.455 308.11 317.936 304.614L323.44 264.543L420.692 267.566L420.503 309.023C420.493 311.601 419.447 314.062 417.597 315.909C411.927 321.572 397.76 332.784 373.242 344.71C369.914 346.328 365.853 347.211 363.005 344.883Z" fill="#1443BD"/>
<path fill-rule="evenodd" clip-rule="evenodd" d="M363.005 344.883L321.784 313.752C318.92 311.59 317.455 308.11 317.936 304.614L323.44 264.543L420.692 267.566L420.503 309.023C420.493 311.601 419.447 314.062 417.597 315.909C411.927 321.572 397.76 332.784 373.242 344.71C369.914 346.328 365.853 347.211 363.005 344.883Z" fill="black" fill-opacity="0.5"/>
<path d="M325.638 276.081C325.337 276.07 325.084 276.299 325.072 276.592C325.063 276.856 325.252 277.082 325.51 277.132L325.598 277.142L413.689 280.28C413.991 280.291 414.244 280.062 414.255 279.769C414.265 279.505 414.075 279.28 413.818 279.229L413.729 279.219L325.638 276.081Z" fill="#1443BD"/>
<path d="M325.638 276.081C325.337 276.07 325.084 276.299 325.072 276.592C325.063 276.856 325.252 277.082 325.51 277.132L325.598 277.142L413.689 280.28C413.991 280.291 414.244 280.062 414.255 279.769C414.265 279.505 414.075 279.28 413.818 279.229L413.729 279.219L325.638 276.081Z" fill="black" fill-opacity="0.5"/>
<path d="M376.531 266.193C376.26 266.183 376.028 266.368 375.976 266.618L375.966 266.704L375.526 278.389C375.515 278.682 375.75 278.928 376.051 278.939C376.322 278.948 376.554 278.764 376.606 278.513L376.617 278.428L377.056 266.743C377.067 266.45 376.832 266.203 376.531 266.193Z" fill="#1443BD"/>
<path d="M376.531 266.193C376.26 266.183 376.028 266.368 375.976 266.618L375.966 266.704L375.526 278.389C375.515 278.682 375.75 278.928 376.051 278.939C376.322 278.948 376.554 278.764 376.606 278.513L376.617 278.428L377.056 266.743C377.067 266.45 376.832 266.203 376.531 266.193Z" fill="black" fill-opacity="0.5"/>
<path fill-rule="evenodd" clip-rule="evenodd" d="M340.619 94.7582C340.619 94.7582 337.355 66.1086 374.273 68.3304C394.829 70.9218 393.551 104.223 393.551 104.223C393.551 104.223 394.824 111.249 391.949 118.387C388.731 126.381 380.802 128.902 370.423 129.575C351.194 128.478 343.683 118.009 343.683 118.009C343.683 118.009 330.407 118.673 331.907 102.48C333.403 87.4601 340.619 94.7582 340.619 94.7582Z" fill="#FFC999"/>
<path fill-rule="evenodd" clip-rule="evenodd" d="M344.16 75.124C344.136 82.483 337.985 88.4299 330.422 88.4078C322.855 88.3856 316.741 82.4013 316.764 75.0423C316.788 67.6834 322.939 61.7364 330.504 61.7598C338.069 61.7821 344.183 67.765 344.16 75.124Z" fill="#1443BD"/>
<path fill-rule="evenodd" clip-rule="evenodd" d="M344.16 75.124C344.136 82.483 337.985 88.4299 330.422 88.4078C322.855 88.3856 316.741 82.4013 316.764 75.0423C316.788 67.6834 322.939 61.7364 330.504 61.7598C338.069 61.7821 344.183 67.765 344.16 75.124Z" fill="black" fill-opacity="0.5"/>
<path fill-rule="evenodd" clip-rule="evenodd" d="M393.37 105.258C393.37 105.258 397.894 97.6844 400.622 88.6463C403.35 79.6081 385.708 61.464 383.313 59.9981C380.916 58.5321 379.721 57.0689 363.204 62.8566C314.218 64.6175 325.7 108.305 325.7 108.305C325.7 108.305 319.985 112.303 323.251 123.11C327.114 133.917 342.448 134.339 342.448 134.339L343.035 117.451C343.035 117.451 337.85 117.815 333.969 111.968C330.087 106.12 333.48 99.0383 335.882 98.461C338.024 96.9092 343.363 97.7038 343.345 103.94C343.335 107.08 349.501 100.061 351.943 88.1147C369.05 84.9557 373.369 73.3912 373.369 73.3912C373.369 73.3912 373.936 84.4823 371.222 89.1432C380.229 86.5435 385.043 81.8895 383.559 76.924C393.745 81.3302 393.37 105.258 393.37 105.258Z" fill="#1443BD"/>
<path fill-rule="evenodd" clip-rule="evenodd" d="M393.37 105.258C393.37 105.258 397.894 97.6844 400.622 88.6463C403.35 79.6081 385.708 61.464 383.313 59.9981C380.916 58.5321 379.721 57.0689 363.204 62.8566C314.218 64.6175 325.7 108.305 325.7 108.305C325.7 108.305 319.985 112.303 323.251 123.11C327.114 133.917 342.448 134.339 342.448 134.339L343.035 117.451C343.035 117.451 337.85 117.815 333.969 111.968C330.087 106.12 333.48 99.0383 335.882 98.461C338.024 96.9092 343.363 97.7038 343.345 103.94C343.335 107.08 349.501 100.061 351.943 88.1147C369.05 84.9557 373.369 73.3912 373.369 73.3912C373.369 73.3912 373.936 84.4823 371.222 89.1432C380.229 86.5435 385.043 81.8895 383.559 76.924C393.745 81.3302 393.37 105.258 393.37 105.258Z" fill="black" fill-opacity="0.5"/>
<path fill-rule="evenodd" clip-rule="evenodd" d="M342.441 136.418L342.953 111.236L376.705 112.095C376.705 112.095 376.522 129.289 377.168 136.266C399.105 148.087 349.393 156.773 337.948 143.487C334.412 139.383 342.441 136.418 342.441 136.418Z" fill="#FFC999"/>
<path fill-rule="evenodd" clip-rule="evenodd" d="M374.054 99.7885C373.4 106.169 368.269 110.896 362.586 110.347C356.907 109.797 352.831 104.18 353.483 97.7992C354.136 91.4176 359.269 86.6902 364.95 87.2397C370.63 87.7893 374.705 93.4082 374.054 99.7885Z" fill="white"/>
<path d="M365.02 86.5514C371.115 87.1412 375.45 93.1168 374.762 99.8573C374.072 106.599 368.613 111.625 362.516 111.036C356.421 110.446 352.086 104.472 352.775 97.7312C353.454 91.0897 358.762 86.1121 364.748 86.5287L365.02 86.5514ZM354.191 97.8682C353.576 103.888 357.393 109.149 362.657 109.658C367.923 110.168 372.729 105.742 373.346 99.7203C373.961 93.7001 370.144 88.4383 364.88 87.9289C359.614 87.4196 354.807 91.8464 354.191 97.8682Z" fill="#1443BD"/>
<path d="M365.02 86.5514C371.115 87.1412 375.45 93.1168 374.762 99.8573C374.072 106.599 368.613 111.625 362.516 111.036C356.421 110.446 352.086 104.472 352.775 97.7312C353.454 91.0897 358.762 86.1121 364.748 86.5287L365.02 86.5514ZM354.191 97.8682C353.576 103.888 357.393 109.149 362.657 109.658C367.923 110.168 372.729 105.742 373.346 99.7203C373.961 93.7001 370.144 88.4383 364.88 87.9289C359.614 87.4196 354.807 91.8464 354.191 97.8682Z" fill="black" fill-opacity="0.5"/>
<path fill-rule="evenodd" clip-rule="evenodd" d="M397.032 98.9988C396.38 105.379 391.54 110.134 386.222 109.621C380.904 109.106 377.121 103.516 377.773 97.1355C378.426 90.7553 383.265 85.9988 388.583 86.5138C393.902 87.0287 397.685 92.6185 397.032 98.9988Z" fill="white"/>
<path d="M388.653 85.8255C394.401 86.3818 398.429 92.3352 397.74 99.0679C397.052 105.8 391.898 110.865 386.152 110.31C380.406 109.753 376.377 103.8 377.065 97.0676C377.744 90.4361 382.753 85.423 388.393 85.804L388.653 85.8255ZM378.481 97.2046C377.865 103.233 381.402 108.459 386.293 108.932C391.183 109.405 395.708 104.959 396.324 98.9309C396.941 92.9027 393.404 87.6765 388.512 87.203C383.623 86.7295 379.098 91.1758 378.481 97.2046Z" fill="#1443BD"/>
<path d="M388.653 85.8255C394.401 86.3818 398.429 92.3352 397.74 99.0679C397.052 105.8 391.898 110.865 386.152 110.31C380.406 109.753 376.377 103.8 377.065 97.0676C377.744 90.4361 382.753 85.423 388.393 85.804L388.653 85.8255ZM378.481 97.2046C377.865 103.233 381.402 108.459 386.293 108.932C391.183 109.405 395.708 104.959 396.324 98.9309C396.941 92.9027 393.404 87.6765 388.512 87.203C383.623 86.7295 379.098 91.1758 378.481 97.2046Z" fill="black" fill-opacity="0.5"/>
<path d="M376.565 101.377C376.382 101.185 376.074 101.174 375.877 101.351C375.702 101.509 375.673 101.764 375.797 101.953L375.851 102.02L379.237 105.572L375.538 108.708C375.358 108.86 375.321 109.114 375.439 109.306L375.491 109.375C375.648 109.551 375.908 109.586 376.106 109.471L376.178 109.421L380.255 105.965C380.439 105.809 380.473 105.548 380.347 105.355L380.292 105.286L376.565 101.377Z" fill="#DD936F"/>
<path d="M367.606 111.305C367.5 111.673 367.721 112.055 368.099 112.158L368.785 112.333C369.317 112.462 369.895 112.591 370.501 112.712C371.45 112.901 372.377 113.051 373.252 113.148C374.737 113.313 375.986 113.316 376.944 113.112C377.327 113.031 377.571 112.662 377.487 112.288C377.403 111.915 377.023 111.678 376.64 111.76C375.866 111.925 374.756 111.921 373.413 111.773C372.584 111.681 371.697 111.537 370.786 111.356C370.348 111.269 369.924 111.177 369.523 111.083L368.484 110.826C368.106 110.722 367.713 110.937 367.606 111.305Z" fill="#F56D7E"/>
<path fill-rule="evenodd" clip-rule="evenodd" d="M374.22 96.7558C374.22 96.7558 376.027 95.5916 377.626 96.7655L374.22 96.7558Z" fill="white"/>
<path d="M374.22 96.7558C374.22 96.7558 376.027 95.5916 377.626 96.7655" stroke="#1443BD" stroke-width="1.5" stroke-linecap="round" stroke-linejoin="round"/>
<path d="M374.22 96.7558C374.22 96.7558 376.027 95.5916 377.626 96.7655" stroke="black" stroke-opacity="0.5" stroke-width="1.5" stroke-linecap="round" stroke-linejoin="round"/>
<path d="M359.146 127.173C358.885 127.111 358.621 127.267 358.558 127.521C358.494 127.775 358.654 128.031 358.916 128.093C360.409 128.447 362.113 128.727 363.99 128.942C367.541 129.348 371.219 129.485 374.32 129.467L375.333 129.455C375.602 129.448 375.814 129.231 375.808 128.97C375.801 128.708 375.578 128.502 375.309 128.508L374.963 128.514C371.771 128.555 367.859 128.431 364.103 128.002C362.264 127.791 360.597 127.517 359.146 127.173Z" fill="#DD936F"/>
<path fill-rule="evenodd" clip-rule="evenodd" d="M368.206 98.1235C368.2 99.7016 367.479 100.979 366.593 100.978C365.708 100.975 364.995 99.6919 365 98.1138C365.005 96.5357 365.727 95.258 366.612 95.2607C367.497 95.2635 368.21 96.5454 368.206 98.1235Z" fill="#1443BD"/>
<path fill-rule="evenodd" clip-rule="evenodd" d="M368.206 98.1235C368.2 99.7016 367.479 100.979 366.593 100.978C365.708 100.975 364.995 99.6919 365 98.1138C365.005 96.5357 365.727 95.258 366.612 95.2607C367.497 95.2635 368.21 96.5454 368.206 98.1235Z" fill="black" fill-opacity="0.5"/>
<path fill-rule="evenodd" clip-rule="evenodd" d="M389.041 98.4448C389.035 100.023 388.314 101.301 387.429 101.299C386.543 101.296 385.83 100.013 385.835 98.4351C385.84 96.857 386.562 95.5793 387.447 95.582C388.332 95.5848 389.045 96.8667 389.041 98.4448Z" fill="#1443BD"/>
<path fill-rule="evenodd" clip-rule="evenodd" d="M389.041 98.4448C389.035 100.023 388.314 101.301 387.429 101.299C386.543 101.296 385.83 100.013 385.835 98.4351C385.84 96.857 386.562 95.5793 387.447 95.582C388.332 95.5848 389.045 96.8667 389.041 98.4448Z" fill="black" fill-opacity="0.5"/>
<path d="M353.47 97.1069L344.151 97.2745C343.758 97.2815 343.446 97.5971 343.453 97.9793C343.46 98.3296 343.733 98.6144 344.081 98.6539L344.178 98.6585L353.496 98.491C353.889 98.484 354.202 98.1684 354.194 97.7862C354.188 97.4358 353.914 97.1511 353.566 97.1115L353.47 97.1069Z" fill="#1443BD"/>
<path d="M353.47 97.1069L344.151 97.2745C343.758 97.2815 343.446 97.5971 343.453 97.9793C343.46 98.3296 343.733 98.6144 344.081 98.6539L344.178 98.6585L353.496 98.491C353.889 98.484 354.202 98.1684 354.194 97.7862C354.188 97.4358 353.914 97.1511 353.566 97.1115L353.47 97.1069Z" fill="black" fill-opacity="0.5"/>
<path fill-rule="evenodd" clip-rule="evenodd" d="M383.204 141.372L381.596 141.336C382.783 150.732 346.351 152.102 340.723 141.196C340.58 140.918 340.468 140.657 340.373 140.408L335.935 140.309L334.047 304.011C334.047 304.011 365.798 317.201 396.255 306.1C409.515 175.402 383.204 141.372 383.204 141.372Z" fill="#B8C8FF"/>
<path d="M378.804 153.715C378.676 153.45 378.35 153.336 378.078 153.461C377.331 153.804 376.574 154.118 375.807 154.405C367.499 157.512 358.606 157.311 350.196 155.1C348.847 154.745 347.631 154.366 346.567 153.986L346.045 153.795L345.594 153.622C345.43 153.556 345.32 153.511 345.266 153.487C344.991 153.368 344.668 153.488 344.546 153.756C344.423 154.024 344.546 154.337 344.822 154.457L345.182 154.605L345.651 154.786C345.819 154.849 345.999 154.915 346.191 154.983C347.284 155.373 348.531 155.762 349.911 156.125C358.525 158.39 367.643 158.596 376.199 155.396C376.991 155.1 377.772 154.775 378.543 154.422C378.816 154.297 378.933 153.98 378.804 153.715Z" fill="#1443BD"/>
<path d="M378.804 153.715C378.676 153.45 378.35 153.336 378.078 153.461C377.331 153.804 376.574 154.118 375.807 154.405C367.499 157.512 358.606 157.311 350.196 155.1C348.847 154.745 347.631 154.366 346.567 153.986L346.045 153.795L345.594 153.622C345.43 153.556 345.32 153.511 345.266 153.487C344.991 153.368 344.668 153.488 344.546 153.756C344.423 154.024 344.546 154.337 344.822 154.457L345.182 154.605L345.651 154.786C345.819 154.849 345.999 154.915 346.191 154.983C347.284 155.373 348.531 155.762 349.911 156.125C358.525 158.39 367.643 158.596 376.199 155.396C376.991 155.1 377.772 154.775 378.543 154.422C378.816 154.297 378.933 153.98 378.804 153.715Z" fill="white" fill-opacity="0.2"/>
<path fill-rule="evenodd" clip-rule="evenodd" d="M377.725 135.601C377.725 135.601 385.996 157.889 388.088 239.192C389.756 303.947 392.417 414.673 392.417 414.673C392.417 414.673 424.184 413.659 426.876 399.633C428.479 391.288 426.99 176.389 420.443 159.607C413.151 155.659 401.618 149.866 390.35 144.115C387.612 142.719 382.834 138.92 381.094 138.02C376.366 135.573 377.725 135.601 377.725 135.601Z" fill="#E4EBF7"/>
<path d="M424.456 180.12C424.096 180.128 423.805 180.395 423.765 180.734L423.761 180.849L424.279 204.175L424.69 223.497C424.917 234.376 425.14 245.46 425.356 256.567L425.743 277.104C425.846 282.743 425.945 288.281 426.038 293.705L426.332 311.418C426.995 353.157 427.247 383.258 426.967 397.508C426.96 397.89 427.272 398.206 427.665 398.214C428.058 398.221 428.382 397.917 428.39 397.535L428.425 395.491C428.679 378.362 428.305 342.611 427.461 293.681L427.21 279.49C427.093 273.078 426.971 266.532 426.843 259.874L426.45 239.919C426.317 233.296 426.181 226.713 426.045 220.211L425.184 180.797C425.175 180.415 424.849 180.112 424.456 180.12Z" fill="#1443BD"/>
<path d="M424.456 180.12C424.096 180.128 423.805 180.395 423.765 180.734L423.761 180.849L424.279 204.175L424.69 223.497C424.917 234.376 425.14 245.46 425.356 256.567L425.743 277.104C425.846 282.743 425.945 288.281 426.038 293.705L426.332 311.418C426.995 353.157 427.247 383.258 426.967 397.508C426.96 397.89 427.272 398.206 427.665 398.214C428.058 398.221 428.382 397.917 428.39 397.535L428.425 395.491C428.679 378.362 428.305 342.611 427.461 293.681L427.21 279.49C427.093 273.078 426.971 266.532 426.843 259.874L426.45 239.919C426.317 233.296 426.181 226.713 426.045 220.211L425.184 180.797C425.175 180.415 424.849 180.112 424.456 180.12Z" fill="white" fill-opacity="0.2"/>
<path fill-rule="evenodd" clip-rule="evenodd" d="M298.739 153.749C310.085 148.547 322.498 146.477 329.683 142.581C334.287 140.085 337.991 136.711 341.607 135.572C364.892 237.111 350.533 359.964 345.938 418.341C318.606 421.625 298.657 392.845 298.657 392.845C298.657 392.845 299.674 312.157 302.647 259.102C305.12 214.973 295.839 155.079 298.739 153.749Z" fill="#E4EBF7"/>
<path d="M341.892 134.831C341.691 134.543 341.307 134.45 340.994 134.596L340.903 134.648L329.636 142.102C329.48 142.205 329.373 142.365 329.338 142.545L329.277 142.906L329.256 143.042C329.198 143.441 329.139 143.917 329.085 144.47C328.158 153.921 329.429 167.851 334.607 186.206L335.121 187.994C336.997 194.399 344.572 219.648 346.388 226.567C349.249 237.464 351.139 247.28 352.45 258.756C352.494 259.136 352.846 259.41 353.236 259.367C353.627 259.325 353.908 258.983 353.865 258.603C352.599 247.522 350.795 237.975 348.108 227.534L347.767 226.224C345.866 218.984 337.707 191.826 336.284 186.909L336.205 186.636C330.959 168.312 329.616 154.422 330.463 145.008L330.502 144.601C330.543 144.176 330.587 143.8 330.632 143.474L330.689 143.079L341.703 135.792C341.999 135.597 342.095 135.223 341.944 134.92L341.892 134.831Z" fill="#1443BD"/>
<path d="M341.892 134.831C341.691 134.543 341.307 134.45 340.994 134.596L340.903 134.648L329.636 142.102C329.48 142.205 329.373 142.365 329.338 142.545L329.277 142.906L329.256 143.042C329.198 143.441 329.139 143.917 329.085 144.47C328.158 153.921 329.429 167.851 334.607 186.206L335.121 187.994C336.997 194.399 344.572 219.648 346.388 226.567C349.249 237.464 351.139 247.28 352.45 258.756C352.494 259.136 352.846 259.41 353.236 259.367C353.627 259.325 353.908 258.983 353.865 258.603C352.599 247.522 350.795 237.975 348.108 227.534L347.767 226.224C345.866 218.984 337.707 191.826 336.284 186.909L336.205 186.636C330.959 168.312 329.616 154.422 330.463 145.008L330.502 144.601C330.543 144.176 330.587 143.8 330.632 143.474L330.689 143.079L341.703 135.792C341.999 135.597 342.095 135.223 341.944 134.92L341.892 134.831Z" fill="white" fill-opacity="0.2"/>
<path d="M378.115 135.021C377.786 134.812 377.345 134.902 377.13 135.222C376.935 135.513 376.993 135.894 377.253 136.118L377.337 136.18L390.509 144.551L390.572 144.91C390.641 145.302 390.715 145.754 390.795 146.267L390.892 146.913C391.223 149.17 391.556 151.94 391.866 155.244L391.996 156.673C394.077 180.225 393.915 214.169 390.047 259.82C390.014 260.201 390.306 260.535 390.697 260.566C391.089 260.598 391.433 260.314 391.465 259.933L391.697 257.148C395.421 211.899 395.462 178.328 393.283 155.118L393.165 153.895C392.907 151.3 392.636 149.055 392.363 147.151L392.202 146.061C392.153 145.748 392.107 145.456 392.062 145.187L391.928 144.414C391.893 144.218 391.866 144.08 391.849 143.998C391.819 143.852 391.742 143.72 391.63 143.622L391.541 143.554L378.115 135.021Z" fill="#1443BD"/>
<path d="M378.115 135.021C377.786 134.812 377.345 134.902 377.13 135.222C376.935 135.513 376.993 135.894 377.253 136.118L377.337 136.18L390.509 144.551L390.572 144.91C390.641 145.302 390.715 145.754 390.795 146.267L390.892 146.913C391.223 149.17 391.556 151.94 391.866 155.244L391.996 156.673C394.077 180.225 393.915 214.169 390.047 259.82C390.014 260.201 390.306 260.535 390.697 260.566C391.089 260.598 391.433 260.314 391.465 259.933L391.697 257.148C395.421 211.899 395.462 178.328 393.283 155.118L393.165 153.895C392.907 151.3 392.636 149.055 392.363 147.151L392.202 146.061C392.153 145.748 392.107 145.456 392.062 145.187L391.928 144.414C391.893 144.218 391.866 144.08 391.849 143.998C391.819 143.852 391.742 143.72 391.63 143.622L391.541 143.554L378.115 135.021Z" fill="white" fill-opacity="0.2"/>
<path d="M301.961 293.665C301.573 293.604 301.208 293.861 301.145 294.238C301.088 294.584 301.305 294.912 301.64 295.011L301.735 295.032L325.619 298.779L324.453 347.779C324.362 351.561 320.931 354.418 317.104 353.957L316.887 353.928L299.787 351.317C299.398 351.258 299.034 351.516 298.973 351.893C298.917 352.24 299.136 352.566 299.472 352.664L299.566 352.685L316.666 355.295C321.349 356.011 325.616 352.62 325.866 348.049L325.875 347.811L327.055 298.209C327.063 297.894 326.852 297.619 326.55 297.53L326.457 297.509L301.961 293.665Z" fill="#1443BD"/>
<path d="M301.961 293.665C301.573 293.604 301.208 293.861 301.145 294.238C301.088 294.584 301.305 294.912 301.64 295.011L301.735 295.032L325.619 298.779L324.453 347.779C324.362 351.561 320.931 354.418 317.104 353.957L316.887 353.928L299.787 351.317C299.398 351.258 299.034 351.516 298.973 351.893C298.917 352.24 299.136 352.566 299.472 352.664L299.566 352.685L316.666 355.295C321.349 356.011 325.616 352.62 325.866 348.049L325.875 347.811L327.055 298.209C327.063 297.894 326.852 297.619 326.55 297.53L326.457 297.509L301.961 293.665Z" fill="white" fill-opacity="0.2"/>
<path d="M425.877 294.167C425.768 293.833 425.423 293.635 425.078 293.694L424.984 293.716L412.417 297.592C412.155 297.673 411.968 297.891 411.928 298.149L411.92 298.247L411.544 351.172C411.528 353.444 413.874 354.991 416.019 354.183L416.176 354.119L427.906 349.033C428.265 348.878 428.427 348.469 428.267 348.119C428.12 347.799 427.754 347.641 427.418 347.737L427.327 347.769L415.597 352.855C414.399 353.374 413.054 352.562 412.971 351.317L412.967 351.182L413.34 298.759L425.414 295.036C425.757 294.93 425.96 294.594 425.9 294.258L425.877 294.167Z" fill="#1443BD"/>
<path d="M425.877 294.167C425.768 293.833 425.423 293.635 425.078 293.694L424.984 293.716L412.417 297.592C412.155 297.673 411.968 297.891 411.928 298.149L411.92 298.247L411.544 351.172C411.528 353.444 413.874 354.991 416.019 354.183L416.176 354.119L427.906 349.033C428.265 348.878 428.427 348.469 428.267 348.119C428.12 347.799 427.754 347.641 427.418 347.737L427.327 347.769L415.597 352.855C414.399 353.374 413.054 352.562 412.971 351.317L412.967 351.182L413.34 298.759L425.414 295.036C425.757 294.93 425.96 294.594 425.9 294.258L425.877 294.167Z" fill="white" fill-opacity="0.2"/>
<path d="M302.676 200.389C302.316 200.383 302.014 200.638 301.96 200.975L301.952 201.068L300.082 301.919C300.075 302.302 300.388 302.617 300.781 302.624C301.141 302.63 301.443 302.375 301.497 302.038L301.505 301.944L303.375 201.093C303.382 200.711 303.069 200.396 302.676 200.389Z" fill="#1443BD"/>
<path d="M302.676 200.389C302.316 200.383 302.014 200.638 301.96 200.975L301.952 201.068L300.082 301.919C300.075 302.302 300.388 302.617 300.781 302.624C301.141 302.63 301.443 302.375 301.497 302.038L301.505 301.944L303.375 201.093C303.382 200.711 303.069 200.396 302.676 200.389Z" fill="white" fill-opacity="0.2"/>
<rect width="8.52271" height="4.62341" rx="2.3117" transform="matrix(-0.966613 0.25624 0.269769 0.962925 368.541 116.822)" fill="#1443BD"/>
<rect width="8.52271" height="4.62341" rx="2.3117" transform="matrix(-0.966613 0.25624 0.269769 0.962925 368.541 116.822)" fill="black" fill-opacity="0.65"/>
<path d="M361.724 121.437C356.822 123.436 344.078 123.744 341.801 118.207" stroke="#1443BD" stroke-linecap="round" stroke-linejoin="round"/>
<path d="M361.724 121.437C356.822 123.436 344.078 123.744 341.801 118.207" stroke="black" stroke-opacity="0.65" stroke-linecap="round" stroke-linejoin="round"/>
<path d="M363.147 62.834C349.865 62.834 335.539 74.0007 337.057 98.3645" stroke="#1443BD" stroke-width="2" stroke-linecap="round" stroke-linejoin="round"/>
<path d="M363.147 62.834C349.865 62.834 335.539 74.0007 337.057 98.3645" stroke="white" stroke-opacity="0.85" stroke-width="2" stroke-linecap="round" stroke-linejoin="round"/>
<rect width="11.3848" height="15.6888" rx="5.6924" transform="matrix(-1 0 0 1 344.172 97.4419)" fill="#2A84C6"/>
<rect width="11.3848" height="15.6888" rx="5.6924" transform="matrix(-1 0 0 1 342.275 97.4419)" fill="#2A84C6"/>
<rect width="11.3848" height="15.6888" rx="5.6924" transform="matrix(-1 0 0 1 342.275 97.4419)" fill="white" fill-opacity="0.65"/>
</g>
<g clip-path="url(#clip0_413_3058)">
<path fill-rule="evenodd" clip-rule="evenodd" d="M534.188 76.2461C521.647 76.2461 511.48 86.1356 511.48 98.3348V98.3912C511.48 110.59 521.647 120.48 534.188 120.48H567.675C568.926 120.48 570.153 120.382 571.349 120.192L577.837 126.288C578.013 126.454 578.249 126.546 578.494 126.546C579.017 126.546 579.44 126.134 579.44 125.626L579.441 117.287C586 113.414 590.383 106.401 590.383 98.3912V98.3348C590.383 86.1356 580.216 76.2461 567.675 76.2461H534.188Z" fill="#1443BD"/>
<path fill-rule="evenodd" clip-rule="evenodd" d="M534.188 76.2461C521.647 76.2461 511.48 86.1356 511.48 98.3348V98.3912C511.48 110.59 521.647 120.48 534.188 120.48H567.675C568.926 120.48 570.153 120.382 571.349 120.192L577.837 126.288C578.013 126.454 578.249 126.546 578.494 126.546C579.017 126.546 579.44 126.134 579.44 125.626L579.441 117.287C586 113.414 590.383 106.401 590.383 98.3912V98.3348C590.383 86.1356 580.216 76.2461 567.675 76.2461H534.188Z" fill="white" fill-opacity="0.65"/>
<g filter="url(#filter0_ddddd_413_3058)">
<path d="M539.696 23.3257H491.881C473.965 23.3257 459.441 37.4535 459.441 54.881C459.441 72.3085 473.965 86.4363 491.881 86.4363H539.696C557.612 86.4363 572.135 72.3085 572.135 54.881C572.135 37.4535 557.612 23.3257 539.696 23.3257Z" fill="white"/>
</g>
<g filter="url(#filter1_ddddd_413_3058)">
<path fill-rule="evenodd" clip-rule="evenodd" d="M475.07 77.2568V93.7764C475.07 94.5025 475.675 95.0912 476.421 95.0912C476.772 95.0912 477.108 94.959 477.36 94.7225L489.839 83.0096L475.07 77.2568Z" fill="white"/>
</g>
<path d="M494.077 58.825C496.97 58.825 499.315 56.5439 499.315 53.7301C499.315 50.9163 496.97 48.6353 494.077 48.6353C491.185 48.6353 488.84 50.9163 488.84 53.7301C488.84 56.5439 491.185 58.825 494.077 58.825Z" fill="#1443BD"/>
<path d="M494.077 58.825C496.97 58.825 499.315 56.5439 499.315 53.7301C499.315 50.9163 496.97 48.6353 494.077 48.6353C491.185 48.6353 488.84 50.9163 488.84 53.7301C488.84 56.5439 491.185 58.825 494.077 58.825Z" fill="black" fill-opacity="0.5"/>
<path d="M515.535 58.825C518.428 58.825 520.773 56.5439 520.773 53.7301C520.773 50.9163 518.428 48.6353 515.535 48.6353C512.642 48.6353 510.297 50.9163 510.297 53.7301C510.297 56.5439 512.642 58.825 515.535 58.825Z" fill="#1443BD"/>
<path d="M515.535 58.825C518.428 58.825 520.773 56.5439 520.773 53.7301C520.773 50.9163 518.428 48.6353 515.535 48.6353C512.642 48.6353 510.297 50.9163 510.297 53.7301C510.297 56.5439 512.642 58.825 515.535 58.825Z" fill="black" fill-opacity="0.5"/>
<path d="M537.499 58.825C540.392 58.825 542.737 56.5439 542.737 53.7301C542.737 50.9163 540.392 48.6353 537.499 48.6353C534.607 48.6353 532.262 50.9163 532.262 53.7301C532.262 56.5439 534.607 58.825 537.499 58.825Z" fill="#1443BD"/>
<path d="M537.499 58.825C540.392 58.825 542.737 56.5439 542.737 53.7301C542.737 50.9163 540.392 48.6353 537.499 48.6353C534.607 48.6353 532.262 50.9163 532.262 53.7301C532.262 56.5439 534.607 58.825 537.499 58.825Z" fill="black" fill-opacity="0.5"/>
</g>
<path d="M29.8349 211.722C29.3985 211.776 28.9644 211.83 28.5372 211.88C28.0456 211.938 27.6 211.596 27.5403 211.115C27.4806 210.636 27.8274 210.202 28.3144 210.141C28.3167 210.141 28.319 210.141 28.3213 210.141C29.093 210.049 29.8786 209.952 30.6779 209.846C30.6802 209.846 30.6802 209.846 30.6825 209.846C31.1694 209.785 31.6173 210.121 31.6839 210.6C31.7482 211.079 31.406 211.52 30.9145 211.585C30.5516 211.632 30.1909 211.677 29.8349 211.722ZM33.2757 211.264C32.7933 211.324 32.3477 210.994 32.2765 210.519C32.2053 210.04 32.5453 209.596 33.0345 209.527C33.8086 209.416 34.5941 209.302 35.3888 209.182C35.885 209.106 36.3352 209.437 36.411 209.916C36.4868 210.395 36.1514 210.843 35.6645 210.915C34.8629 211.036 34.0727 211.153 33.2941 211.264C33.2849 211.261 33.2803 211.261 33.2757 211.264ZM26.1714 212.145C26.1645 212.145 26.1576 212.148 26.153 212.148C25.3422 212.233 24.5383 212.31 23.7642 212.377C23.2727 212.42 22.8363 212.064 22.7926 211.583C22.749 211.102 23.1142 210.681 23.6034 210.631C24.3683 210.564 25.163 210.487 25.9646 210.404C26.4562 210.352 26.8972 210.701 26.95 211.183C26.9983 211.657 26.6514 212.085 26.1714 212.145ZM37.9958 210.548C37.5204 210.609 37.0771 210.287 36.999 209.819C36.9186 209.342 37.2493 208.89 37.7386 208.813C38.5126 208.69 39.2959 208.561 40.0883 208.429C40.5684 208.346 41.0392 208.667 41.1219 209.144C41.2046 209.621 40.8785 210.076 40.3915 210.157C39.5945 210.289 38.8066 210.42 38.028 210.544C38.0165 210.546 38.0073 210.548 37.9958 210.548ZM21.4168 212.562C21.4007 212.564 21.3823 212.566 21.3639 212.566C20.5394 212.622 19.7308 212.67 18.9614 212.703C18.4675 212.726 18.0495 212.352 18.0265 211.869C18.0036 211.385 18.3848 210.976 18.8787 210.953C19.6344 210.919 20.4291 210.874 21.2399 210.818C21.7337 210.784 22.161 211.149 22.1954 211.63C22.2276 212.096 21.883 212.503 21.4168 212.562ZM42.7045 209.758C42.2336 209.817 41.7949 209.504 41.7099 209.043C41.6227 208.566 41.9465 208.112 42.4335 208.026C43.2075 207.891 43.9885 207.752 44.7786 207.608C45.2655 207.518 45.7318 207.833 45.8214 208.31C45.911 208.786 45.5917 209.243 45.1048 209.331C44.3123 209.475 43.5268 209.614 42.7481 209.752C42.7343 209.754 42.7206 209.756 42.7045 209.758ZM16.6484 212.771C16.6162 212.775 16.5818 212.778 16.5473 212.778C15.709 212.791 14.8936 212.789 14.1264 212.773C13.6325 212.762 13.2398 212.361 13.2513 211.878C13.2627 211.394 13.6716 211.009 14.1654 211.021C14.9096 211.036 15.7021 211.039 16.5175 211.025C17.0113 211.016 17.4179 211.403 17.427 211.887C17.4362 212.339 17.0963 212.717 16.6484 212.771ZM47.4017 208.906C46.9377 208.964 46.499 208.658 46.4094 208.202C46.3152 207.727 46.6345 207.268 47.1191 207.176C47.8932 207.029 48.6719 206.881 49.4597 206.73C49.9489 206.636 50.4152 206.946 50.5117 207.421C50.6082 207.896 50.2912 208.357 49.8065 208.451C49.0164 208.604 48.2331 208.753 47.4568 208.899C47.4407 208.901 47.42 208.903 47.4017 208.906ZM52.0897 207.999C51.628 208.058 51.1939 207.756 51.0997 207.304C51.0009 206.829 51.3156 206.368 51.7979 206.271C52.572 206.118 53.3507 205.961 54.1339 205.801C54.6208 205.702 55.0917 206.008 55.1928 206.48C55.2938 206.955 54.9815 207.419 54.4991 207.518C53.7136 207.677 52.9303 207.835 52.1563 207.99C52.1333 207.992 52.1103 207.997 52.0897 207.999ZM56.7662 207.047C56.3091 207.104 55.875 206.809 55.7785 206.359C55.6751 205.886 55.9852 205.421 56.4676 205.319C57.2416 205.16 58.018 204.996 58.7989 204.829C59.279 204.726 59.759 205.027 59.8624 205.499C59.968 205.972 59.6603 206.44 59.1779 206.541C58.3947 206.708 57.6137 206.872 56.8397 207.032C56.8144 207.041 56.7891 207.045 56.7662 207.047ZM11.88 212.658C11.8203 212.665 11.7606 212.667 11.6986 212.663C10.8326 212.6 10.0126 212.512 9.25924 212.402C8.77 212.33 8.43466 211.884 8.50816 211.405C8.58166 210.926 9.03645 210.595 9.52569 210.667C10.2331 210.771 11.0095 210.854 11.8318 210.913C12.3256 210.949 12.6954 211.369 12.6587 211.851C12.6242 212.276 12.2912 212.607 11.88 212.658ZM61.4335 206.057C60.9787 206.114 60.5469 205.823 60.4481 205.378C60.3424 204.906 60.6456 204.438 61.128 204.334C61.8997 204.168 62.6761 203.997 63.4547 203.826C63.9394 203.72 64.4148 204.017 64.5251 204.489C64.633 204.962 64.3299 205.43 63.8475 205.535C63.0666 205.709 62.2879 205.877 61.5139 206.044C61.4886 206.051 61.461 206.053 61.4335 206.057ZM66.0939 205.032C65.6414 205.088 65.2119 204.8 65.1085 204.357C64.9983 203.884 65.2992 203.414 65.7815 203.306C66.5533 203.133 67.3273 202.959 68.106 202.782C68.5883 202.671 69.0684 202.966 69.1786 203.439C69.2912 203.911 68.9903 204.381 68.5079 204.492C67.727 204.669 66.9506 204.843 66.1766 205.016C66.1513 205.025 66.1237 205.029 66.0939 205.032ZM70.7474 203.976C70.2995 204.033 69.87 203.749 69.7644 203.308C69.6518 202.838 69.9504 202.365 70.4305 202.255C71.2022 202.078 71.9763 201.898 72.7526 201.718C73.235 201.605 73.715 201.898 73.8299 202.368C73.9447 202.838 73.6484 203.31 73.1661 203.423C72.3874 203.605 71.6111 203.785 70.8393 203.963C70.8094 203.967 70.7773 203.972 70.7474 203.976ZM7.17136 211.934C7.05651 211.947 6.93937 211.941 6.82223 211.909C5.90576 211.662 5.09726 211.358 4.41737 211.005C3.98096 210.778 3.81557 210.247 4.04526 209.819C4.27725 209.392 4.81932 209.23 5.25573 209.455C5.82077 209.747 6.50525 210.004 7.29539 210.217C7.77314 210.346 8.05336 210.827 7.92244 211.295C7.82137 211.648 7.51819 211.891 7.17136 211.934ZM75.3941 202.892C74.9462 202.948 74.5189 202.667 74.411 202.228C74.2938 201.758 74.5901 201.283 75.0702 201.171C75.8397 200.989 76.6137 200.804 77.3901 200.62C77.8701 200.505 78.3548 200.793 78.4719 201.263C78.5891 201.733 78.2951 202.208 77.815 202.323C77.0387 202.507 76.2646 202.692 75.4928 202.874C75.4584 202.883 75.4262 202.887 75.3941 202.892ZM80.0338 201.783C79.5882 201.839 79.1633 201.56 79.053 201.124C78.9336 200.653 79.2276 200.179 79.7077 200.062C80.4771 199.875 81.2489 199.688 82.0229 199.499C82.5007 199.382 82.9876 199.668 83.1071 200.138C83.2265 200.608 82.9348 201.083 82.4548 201.2C81.6807 201.389 80.9066 201.578 80.1349 201.765C80.1004 201.772 80.0683 201.778 80.0338 201.783ZM84.6667 200.651C84.2234 200.707 83.7984 200.431 83.6859 199.996C83.5642 199.526 83.8559 199.052 84.3359 198.932C85.1054 198.743 85.8771 198.552 86.6489 198.359C87.129 198.239 87.6159 198.523 87.7376 198.991C87.8594 199.461 87.57 199.938 87.0899 200.057C86.3159 200.251 85.5441 200.442 84.7723 200.631C84.7379 200.64 84.7034 200.647 84.6667 200.651ZM89.2972 199.497C88.8562 199.553 88.4313 199.279 88.3188 198.845C88.197 198.377 88.4841 197.897 88.9642 197.778C89.7337 197.585 90.5031 197.389 91.2749 197.195C91.7526 197.074 92.2419 197.355 92.3659 197.825C92.4899 198.293 92.2028 198.773 91.7228 198.894C90.951 199.09 90.1792 199.285 89.4075 199.479C89.3684 199.486 89.3317 199.492 89.2972 199.497ZM93.9117 198.327C93.473 198.383 93.0481 198.111 92.9332 197.679C92.8092 197.211 93.094 196.732 93.5741 196.61C94.3412 196.415 95.1107 196.217 95.8779 196.019C96.3556 195.897 96.8449 196.176 96.9712 196.644C97.0975 197.112 96.8104 197.591 96.3327 197.715C95.5632 197.913 94.7937 198.111 94.0243 198.307C93.9875 198.316 93.9508 198.323 93.9117 198.327ZM3.1265 209.632C2.81182 209.671 2.48797 209.547 2.28813 209.277C2.23531 209.205 2.18477 209.133 2.13653 209.059C1.69552 208.382 1.33491 207.698 1.06158 207.023C0.880125 206.573 1.10522 206.064 1.5646 205.886C2.02398 205.709 2.54308 205.929 2.72454 206.379C2.95423 206.948 3.26431 207.533 3.6433 208.114C3.67316 208.159 3.70303 208.202 3.73518 208.244C4.02459 208.636 3.93731 209.185 3.53535 209.468C3.41362 209.56 3.2712 209.614 3.1265 209.632ZM98.5262 197.139C98.0875 197.193 97.6649 196.923 97.5477 196.493C97.4214 196.026 97.7062 195.546 98.184 195.423C98.9534 195.222 99.7229 195.022 100.492 194.822C100.972 194.696 101.459 194.975 101.588 195.443C101.717 195.911 101.432 196.39 100.954 196.516C100.185 196.718 99.4128 196.919 98.6433 197.119C98.6043 197.126 98.5653 197.132 98.5262 197.139ZM103.148 195.929C102.711 195.983 102.289 195.715 102.171 195.288C102.043 194.82 102.325 194.338 102.803 194.212C103.575 194.01 104.344 193.805 105.116 193.6C105.596 193.474 106.085 193.751 106.214 194.217C106.343 194.685 106.06 195.166 105.585 195.292C104.813 195.497 104.041 195.702 103.269 195.904C103.228 195.918 103.187 195.924 103.148 195.929ZM107.764 194.705C107.328 194.759 106.908 194.493 106.788 194.066C106.657 193.598 106.94 193.116 107.415 192.991C108.182 192.786 108.95 192.581 109.717 192.374C110.192 192.246 110.686 192.52 110.817 192.988C110.948 193.456 110.668 193.938 110.19 194.066C109.423 194.273 108.653 194.478 107.886 194.682C107.847 194.691 107.806 194.7 107.764 194.705ZM112.372 193.467C111.938 193.521 111.518 193.256 111.396 192.831C111.265 192.365 111.543 191.881 112.021 191.753C112.788 191.546 113.555 191.337 114.32 191.13C114.795 191.002 115.289 191.274 115.422 191.74C115.553 192.205 115.275 192.689 114.8 192.82C114.033 193.029 113.265 193.236 112.498 193.445C112.455 193.454 112.413 193.461 112.372 193.467ZM116.973 192.217C116.539 192.271 116.118 192.007 115.999 191.582C115.866 191.116 116.143 190.633 116.621 190.502C117.388 190.293 118.156 190.081 118.92 189.872C119.396 189.742 119.89 190.014 120.023 190.48C120.156 190.945 119.878 191.429 119.403 191.56C118.638 191.771 117.871 191.98 117.101 192.19C117.058 192.201 117.016 192.21 116.973 192.217ZM121.571 190.952C121.139 191.006 120.719 190.743 120.597 190.32C120.464 189.854 120.74 189.371 121.215 189.238C121.982 189.026 122.747 188.813 123.512 188.601C123.987 188.468 124.481 188.741 124.617 189.204C124.752 189.67 124.477 190.153 124.001 190.286C123.236 190.498 122.469 190.711 121.702 190.923C121.658 190.936 121.615 190.945 121.571 190.952ZM126.165 189.674C125.733 189.728 125.315 189.467 125.191 189.044C125.055 188.579 125.331 188.095 125.807 187.96C126.574 187.746 127.339 187.532 128.101 187.316C128.574 187.184 129.073 187.451 129.208 187.917C129.344 188.383 129.07 188.869 128.595 189.002C127.83 189.215 127.065 189.431 126.298 189.645C126.254 189.661 126.211 189.67 126.165 189.674ZM1.44746 205.308C1.43597 205.311 1.4245 205.31 1.41531 205.313C0.923775 205.355 0.487353 205.002 0.443712 204.519C0.36332 203.657 0.423047 202.793 0.622878 201.945C0.733129 201.472 1.21318 201.178 1.69553 201.288C2.17788 201.396 2.47877 201.866 2.36622 202.338C2.21003 203.004 2.1618 203.684 2.22381 204.359C2.26746 204.831 1.92062 205.25 1.44746 205.308ZM130.756 188.385C130.327 188.439 129.909 188.18 129.785 187.757C129.647 187.292 129.923 186.806 130.398 186.673C131.165 186.457 131.93 186.241 132.69 186.025C133.168 185.89 133.662 186.158 133.8 186.624C133.938 187.089 133.664 187.575 133.189 187.71C132.426 187.926 131.661 188.142 130.894 188.358C130.846 188.372 130.802 188.378 130.756 188.385ZM135.346 187.085C134.916 187.139 134.498 186.88 134.374 186.459C134.236 185.994 134.51 185.508 134.983 185.373C135.75 185.154 136.515 184.936 137.275 184.718C137.75 184.583 138.247 184.848 138.384 185.314C138.522 185.78 138.251 186.266 137.776 186.401C137.013 186.619 136.248 186.837 135.481 187.055C135.438 187.069 135.392 187.08 135.346 187.085ZM139.93 185.773C139.501 185.827 139.085 185.568 138.959 185.15C138.821 184.684 139.092 184.198 139.565 184.063C140.332 183.843 141.095 183.622 141.855 183.404C142.331 183.267 142.827 183.532 142.967 183.998C143.107 184.464 142.836 184.95 142.36 185.087C141.6 185.307 140.835 185.526 140.068 185.746C140.022 185.76 139.976 185.769 139.93 185.773ZM144.513 184.452C144.085 184.506 143.667 184.25 143.541 183.831C143.401 183.368 143.672 182.88 144.145 182.743C144.912 182.52 145.675 182.299 146.435 182.079C146.908 181.942 147.407 182.205 147.547 182.671C147.687 183.134 147.418 183.622 146.943 183.76C146.182 183.98 145.42 184.203 144.653 184.425C144.607 184.437 144.559 184.446 144.513 184.452ZM149.09 183.121C148.663 183.175 148.247 182.918 148.121 182.502C147.981 182.038 148.25 181.55 148.723 181.411C149.49 181.186 150.253 180.963 151.011 180.74C151.484 180.601 151.982 180.864 152.125 181.33C152.267 181.793 151.998 182.281 151.523 182.421C150.765 182.644 150.002 182.866 149.233 183.091C149.187 183.105 149.139 183.114 149.09 183.121ZM2.4558 200.86C2.27435 200.883 2.08601 200.851 1.91374 200.759C1.47962 200.527 1.32114 199.994 1.55772 199.569C1.9436 198.878 2.43054 198.188 3.00707 197.515C3.32404 197.144 3.88908 197.096 4.26807 197.407C4.64706 197.717 4.69529 198.271 4.37831 198.642C3.87759 199.227 3.45725 199.821 3.1288 200.408C2.98639 200.667 2.73143 200.827 2.4558 200.86ZM153.668 181.78C153.241 181.834 152.825 181.579 152.699 181.163C152.556 180.7 152.825 180.212 153.298 180.072C154.065 179.847 154.828 179.622 155.584 179.397C156.057 179.258 156.555 179.519 156.7 179.982C156.842 180.446 156.574 180.936 156.1 181.075C155.342 181.298 154.58 181.523 153.813 181.75C153.764 181.762 153.716 181.773 153.668 181.78ZM158.241 180.428C157.816 180.482 157.401 180.227 157.272 179.811C157.129 179.348 157.396 178.859 157.869 178.718C158.639 178.49 159.399 178.263 160.155 178.038C160.628 177.899 161.126 178.16 161.271 178.623C161.416 179.087 161.147 179.575 160.676 179.717C159.92 179.942 159.158 180.169 158.388 180.396C158.338 180.412 158.289 180.421 158.241 180.428ZM162.812 179.066C162.387 179.12 161.974 178.866 161.843 178.452C161.698 177.989 161.964 177.501 162.438 177.359C163.207 177.129 163.967 176.902 164.721 176.675C165.192 176.533 165.695 176.794 165.839 177.255C165.984 177.719 165.718 178.209 165.247 178.351C164.493 178.578 163.731 178.805 162.961 179.035C162.911 179.051 162.86 179.06 162.812 179.066ZM167.381 177.696C166.956 177.75 166.542 177.498 166.414 177.084C166.269 176.621 166.533 176.13 167.006 175.989C167.776 175.757 168.538 175.527 169.289 175.3C169.762 175.158 170.263 175.417 170.408 175.878C170.553 176.342 170.288 176.832 169.815 176.974C169.064 177.201 168.302 177.431 167.532 177.663C167.479 177.68 167.429 177.689 167.381 177.696ZM5.46934 197.279C5.18912 197.315 4.89511 197.218 4.69069 196.995C4.35993 196.635 4.3898 196.082 4.75731 195.758C5.33613 195.247 5.98386 194.732 6.67982 194.23C7.07718 193.942 7.63763 194.025 7.93163 194.417C8.22564 194.806 8.14065 195.355 7.74099 195.643C7.09326 196.111 6.49147 196.588 5.95629 197.06C5.81388 197.184 5.64391 197.256 5.46934 197.279ZM171.945 176.317C171.522 176.371 171.108 176.119 170.978 175.707C170.831 175.246 171.097 174.753 171.568 174.612C172.34 174.378 173.1 174.146 173.849 173.919C174.32 173.777 174.823 174.034 174.97 174.495C175.117 174.958 174.852 175.449 174.379 175.593C173.63 175.82 172.868 176.052 172.096 176.286C172.048 176.299 171.997 176.31 171.945 176.317ZM176.508 174.929C176.086 174.983 175.672 174.733 175.541 174.319C175.394 173.858 175.659 173.365 176.129 173.221C176.904 172.985 177.664 172.753 178.41 172.524C178.883 172.38 179.384 172.636 179.531 173.098C179.678 173.559 179.416 174.052 178.943 174.196C178.197 174.425 177.436 174.657 176.662 174.893C176.612 174.911 176.561 174.922 176.508 174.929ZM181.07 173.532C180.648 173.586 180.236 173.336 180.103 172.924C179.954 172.463 180.218 171.97 180.689 171.826C181.467 171.588 182.228 171.354 182.967 171.125C183.438 170.978 183.941 171.235 184.091 171.698C184.24 172.159 183.978 172.652 183.505 172.798C182.763 173.028 182.003 173.262 181.224 173.5C181.174 173.514 181.123 173.525 181.07 173.532ZM9.2983 194.493C8.96295 194.536 8.6184 194.39 8.42776 194.091C8.16362 193.681 8.28995 193.139 8.70799 192.883C9.3672 192.478 10.0746 192.068 10.8119 191.67C11.2438 191.436 11.7881 191.589 12.0293 192.014C12.2682 192.437 12.112 192.97 11.6779 193.204C10.9704 193.587 10.2928 193.978 9.6612 194.365C9.54635 194.435 9.42233 194.478 9.2983 194.493ZM185.629 172.123C185.209 172.175 184.796 171.928 184.665 171.518C184.516 171.057 184.777 170.564 185.248 170.418C186.034 170.175 186.792 169.939 187.527 169.712C187.998 169.565 188.501 169.82 188.65 170.281C188.799 170.742 188.54 171.235 188.069 171.381C187.334 171.61 186.574 171.847 185.788 172.09C185.735 172.105 185.682 172.117 185.629 172.123ZM190.189 170.706C189.769 170.758 189.357 170.513 189.224 170.103C189.075 169.642 189.334 169.149 189.805 169.001C190.602 168.751 191.363 168.515 192.084 168.288C192.555 168.139 193.058 168.393 193.209 168.854C193.361 169.316 193.101 169.808 192.63 169.957C191.909 170.184 191.149 170.42 190.35 170.67C190.295 170.688 190.242 170.699 190.189 170.706ZM13.4764 192.221C13.1089 192.268 12.7345 192.084 12.5599 191.74C12.3417 191.305 12.5231 190.779 12.9642 190.565C13.6624 190.225 14.3997 189.886 15.1577 189.553C15.6079 189.355 16.1385 189.551 16.3406 189.991C16.5427 190.432 16.3429 190.952 15.8927 191.15C15.1554 191.474 14.4388 191.807 13.7589 192.136C13.6693 192.181 13.5728 192.21 13.4764 192.221ZM194.748 169.275C194.328 169.327 193.917 169.082 193.784 168.674C193.632 168.213 193.891 167.721 194.362 167.572C195.194 167.311 195.954 167.07 196.641 166.852C197.112 166.704 197.615 166.956 197.769 167.417C197.92 167.878 197.663 168.371 197.192 168.521C196.505 168.74 195.743 168.98 194.909 169.241C194.856 169.257 194.801 169.268 194.748 169.275ZM199.312 167.831C198.894 167.883 198.483 167.64 198.347 167.232C198.194 166.771 198.451 166.276 198.922 166.128C200.33 165.68 201.081 165.437 201.081 165.437C201.549 165.286 202.057 165.536 202.211 165.995C202.365 166.454 202.11 166.951 201.641 167.102C201.641 167.102 200.888 167.345 199.475 167.795C199.422 167.813 199.367 167.824 199.312 167.831ZM17.8359 190.295C17.4454 190.345 17.0526 190.133 16.8965 189.76C16.7081 189.312 16.9263 188.799 17.3811 188.615C18.1023 188.322 18.858 188.03 19.6252 187.742C20.0869 187.568 20.6037 187.796 20.7805 188.248C20.9574 188.7 20.7254 189.206 20.2637 189.38C19.5103 189.661 18.7707 189.949 18.0633 190.237C17.9898 190.266 17.9117 190.286 17.8359 190.295ZM22.3011 188.619C21.8922 188.671 21.4903 188.439 21.3456 188.043C21.1802 187.586 21.4214 187.087 21.8876 186.923C22.6272 186.664 23.3921 186.405 24.1662 186.153C24.637 185.998 25.1424 186.248 25.2985 186.707C25.4547 187.166 25.2021 187.663 24.7335 187.816C23.9709 188.066 23.2153 188.32 22.4894 188.574C22.4274 188.597 22.3631 188.61 22.3011 188.619ZM26.8398 187.134C26.4171 187.186 26.006 186.938 25.8728 186.527C25.7258 186.066 25.9876 185.573 26.4585 185.429C27.2073 185.199 27.9813 184.968 28.7623 184.743C29.2354 184.605 29.7339 184.871 29.874 185.334C30.0141 185.798 29.743 186.286 29.2699 186.423C28.5004 186.646 27.7356 186.875 26.996 187.103C26.9431 187.116 26.8903 187.127 26.8398 187.134ZM31.4267 185.805C30.9926 185.859 30.5722 185.595 30.4528 185.17C30.3196 184.704 30.5975 184.221 31.073 184.09C31.8355 183.881 32.6165 183.674 33.3951 183.472C33.8729 183.348 34.3621 183.627 34.4885 184.095C34.6148 184.563 34.33 185.042 33.8522 185.166C33.0828 185.366 32.311 185.571 31.5553 185.778C31.5117 185.791 31.468 185.8 31.4267 185.805ZM36.055 184.605C35.6117 184.662 35.1844 184.385 35.0742 183.948C34.9547 183.478 35.2464 183.004 35.7242 182.884C36.4914 182.695 37.2792 182.509 38.0602 182.326C38.5425 182.216 39.0226 182.506 39.1374 182.977C39.2522 183.447 38.9536 183.919 38.4736 184.032C37.6995 184.212 36.9186 184.398 36.1583 184.583C36.1239 184.594 36.0894 184.601 36.055 184.605ZM40.7131 183.523C40.2606 183.58 39.8288 183.292 39.7277 182.846C39.6198 182.374 39.9229 181.906 40.4053 181.8C41.1885 181.627 41.981 181.46 42.7573 181.298C43.242 181.197 43.7151 181.501 43.8185 181.975C43.9196 182.45 43.6118 182.914 43.1271 183.015C42.3577 183.175 41.5744 183.341 40.7958 183.512C40.7705 183.517 40.7406 183.521 40.7131 183.523ZM45.4057 182.556C44.9417 182.614 44.5053 182.311 44.4157 181.856C44.3215 181.381 44.6362 180.92 45.1208 180.828C46.6161 180.54 47.4775 180.396 47.5119 180.389C47.992 180.306 48.4605 180.628 48.5455 181.107C48.6282 181.584 48.302 182.036 47.8151 182.119C47.8059 182.122 46.9377 182.266 45.4677 182.549C45.4447 182.551 45.4263 182.554 45.4057 182.556Z" fill="#B7EE81"/>
<path d="M29.8349 211.722C29.3985 211.776 28.9644 211.83 28.5372 211.88C28.0456 211.938 27.6 211.596 27.5403 211.115C27.4806 210.636 27.8274 210.202 28.3144 210.141C28.3167 210.141 28.319 210.141 28.3213 210.141C29.093 210.049 29.8786 209.952 30.6779 209.846C30.6802 209.846 30.6802 209.846 30.6825 209.846C31.1694 209.785 31.6173 210.121 31.6839 210.6C31.7482 211.079 31.406 211.52 30.9145 211.585C30.5516 211.632 30.1909 211.677 29.8349 211.722ZM33.2757 211.264C32.7933 211.324 32.3477 210.994 32.2765 210.519C32.2053 210.04 32.5453 209.596 33.0345 209.527C33.8086 209.416 34.5941 209.302 35.3888 209.182C35.885 209.106 36.3352 209.437 36.411 209.916C36.4868 210.395 36.1514 210.843 35.6645 210.915C34.8629 211.036 34.0727 211.153 33.2941 211.264C33.2849 211.261 33.2803 211.261 33.2757 211.264ZM26.1714 212.145C26.1645 212.145 26.1576 212.148 26.153 212.148C25.3422 212.233 24.5383 212.31 23.7642 212.377C23.2727 212.42 22.8363 212.064 22.7926 211.583C22.749 211.102 23.1142 210.681 23.6034 210.631C24.3683 210.564 25.163 210.487 25.9646 210.404C26.4562 210.352 26.8972 210.701 26.95 211.183C26.9983 211.657 26.6514 212.085 26.1714 212.145ZM37.9958 210.548C37.5204 210.609 37.0771 210.287 36.999 209.819C36.9186 209.342 37.2493 208.89 37.7386 208.813C38.5126 208.69 39.2959 208.561 40.0883 208.429C40.5684 208.346 41.0392 208.667 41.1219 209.144C41.2046 209.621 40.8785 210.076 40.3915 210.157C39.5945 210.289 38.8066 210.42 38.028 210.544C38.0165 210.546 38.0073 210.548 37.9958 210.548ZM21.4168 212.562C21.4007 212.564 21.3823 212.566 21.3639 212.566C20.5394 212.622 19.7308 212.67 18.9614 212.703C18.4675 212.726 18.0495 212.352 18.0265 211.869C18.0036 211.385 18.3848 210.976 18.8787 210.953C19.6344 210.919 20.4291 210.874 21.2399 210.818C21.7337 210.784 22.161 211.149 22.1954 211.63C22.2276 212.096 21.883 212.503 21.4168 212.562ZM42.7045 209.758C42.2336 209.817 41.7949 209.504 41.7099 209.043C41.6227 208.566 41.9465 208.112 42.4335 208.026C43.2075 207.891 43.9885 207.752 44.7786 207.608C45.2655 207.518 45.7318 207.833 45.8214 208.31C45.911 208.786 45.5917 209.243 45.1048 209.331C44.3123 209.475 43.5268 209.614 42.7481 209.752C42.7343 209.754 42.7206 209.756 42.7045 209.758ZM16.6484 212.771C16.6162 212.775 16.5818 212.778 16.5473 212.778C15.709 212.791 14.8936 212.789 14.1264 212.773C13.6325 212.762 13.2398 212.361 13.2513 211.878C13.2627 211.394 13.6716 211.009 14.1654 211.021C14.9096 211.036 15.7021 211.039 16.5175 211.025C17.0113 211.016 17.4179 211.403 17.427 211.887C17.4362 212.339 17.0963 212.717 16.6484 212.771ZM47.4017 208.906C46.9377 208.964 46.499 208.658 46.4094 208.202C46.3152 207.727 46.6345 207.268 47.1191 207.176C47.8932 207.029 48.6719 206.881 49.4597 206.73C49.9489 206.636 50.4152 206.946 50.5117 207.421C50.6082 207.896 50.2912 208.357 49.8065 208.451C49.0164 208.604 48.2331 208.753 47.4568 208.899C47.4407 208.901 47.42 208.903 47.4017 208.906ZM52.0897 207.999C51.628 208.058 51.1939 207.756 51.0997 207.304C51.0009 206.829 51.3156 206.368 51.7979 206.271C52.572 206.118 53.3507 205.961 54.1339 205.801C54.6208 205.702 55.0917 206.008 55.1928 206.48C55.2938 206.955 54.9815 207.419 54.4991 207.518C53.7136 207.677 52.9303 207.835 52.1563 207.99C52.1333 207.992 52.1103 207.997 52.0897 207.999ZM56.7662 207.047C56.3091 207.104 55.875 206.809 55.7785 206.359C55.6751 205.886 55.9852 205.421 56.4676 205.319C57.2416 205.16 58.018 204.996 58.7989 204.829C59.279 204.726 59.759 205.027 59.8624 205.499C59.968 205.972 59.6603 206.44 59.1779 206.541C58.3947 206.708 57.6137 206.872 56.8397 207.032C56.8144 207.041 56.7891 207.045 56.7662 207.047ZM11.88 212.658C11.8203 212.665 11.7606 212.667 11.6986 212.663C10.8326 212.6 10.0126 212.512 9.25924 212.402C8.77 212.33 8.43466 211.884 8.50816 211.405C8.58166 210.926 9.03645 210.595 9.52569 210.667C10.2331 210.771 11.0095 210.854 11.8318 210.913C12.3256 210.949 12.6954 211.369 12.6587 211.851C12.6242 212.276 12.2912 212.607 11.88 212.658ZM61.4335 206.057C60.9787 206.114 60.5469 205.823 60.4481 205.378C60.3424 204.906 60.6456 204.438 61.128 204.334C61.8997 204.168 62.6761 203.997 63.4547 203.826C63.9394 203.72 64.4148 204.017 64.5251 204.489C64.633 204.962 64.3299 205.43 63.8475 205.535C63.0666 205.709 62.2879 205.877 61.5139 206.044C61.4886 206.051 61.461 206.053 61.4335 206.057ZM66.0939 205.032C65.6414 205.088 65.2119 204.8 65.1085 204.357C64.9983 203.884 65.2992 203.414 65.7815 203.306C66.5533 203.133 67.3273 202.959 68.106 202.782C68.5883 202.671 69.0684 202.966 69.1786 203.439C69.2912 203.911 68.9903 204.381 68.5079 204.492C67.727 204.669 66.9506 204.843 66.1766 205.016C66.1513 205.025 66.1237 205.029 66.0939 205.032ZM70.7474 203.976C70.2995 204.033 69.87 203.749 69.7644 203.308C69.6518 202.838 69.9504 202.365 70.4305 202.255C71.2022 202.078 71.9763 201.898 72.7526 201.718C73.235 201.605 73.715 201.898 73.8299 202.368C73.9447 202.838 73.6484 203.31 73.1661 203.423C72.3874 203.605 71.6111 203.785 70.8393 203.963C70.8094 203.967 70.7773 203.972 70.7474 203.976ZM7.17136 211.934C7.05651 211.947 6.93937 211.941 6.82223 211.909C5.90576 211.662 5.09726 211.358 4.41737 211.005C3.98096 210.778 3.81557 210.247 4.04526 209.819C4.27725 209.392 4.81932 209.23 5.25573 209.455C5.82077 209.747 6.50525 210.004 7.29539 210.217C7.77314 210.346 8.05336 210.827 7.92244 211.295C7.82137 211.648 7.51819 211.891 7.17136 211.934ZM75.3941 202.892C74.9462 202.948 74.5189 202.667 74.411 202.228C74.2938 201.758 74.5901 201.283 75.0702 201.171C75.8397 200.989 76.6137 200.804 77.3901 200.62C77.8701 200.505 78.3548 200.793 78.4719 201.263C78.5891 201.733 78.2951 202.208 77.815 202.323C77.0387 202.507 76.2646 202.692 75.4928 202.874C75.4584 202.883 75.4262 202.887 75.3941 202.892ZM80.0338 201.783C79.5882 201.839 79.1633 201.56 79.053 201.124C78.9336 200.653 79.2276 200.179 79.7077 200.062C80.4771 199.875 81.2489 199.688 82.0229 199.499C82.5007 199.382 82.9876 199.668 83.1071 200.138C83.2265 200.608 82.9348 201.083 82.4548 201.2C81.6807 201.389 80.9066 201.578 80.1349 201.765C80.1004 201.772 80.0683 201.778 80.0338 201.783ZM84.6667 200.651C84.2234 200.707 83.7984 200.431 83.6859 199.996C83.5642 199.526 83.8559 199.052 84.3359 198.932C85.1054 198.743 85.8771 198.552 86.6489 198.359C87.129 198.239 87.6159 198.523 87.7376 198.991C87.8594 199.461 87.57 199.938 87.0899 200.057C86.3159 200.251 85.5441 200.442 84.7723 200.631C84.7379 200.64 84.7034 200.647 84.6667 200.651ZM89.2972 199.497C88.8562 199.553 88.4313 199.279 88.3188 198.845C88.197 198.377 88.4841 197.897 88.9642 197.778C89.7337 197.585 90.5031 197.389 91.2749 197.195C91.7526 197.074 92.2419 197.355 92.3659 197.825C92.4899 198.293 92.2028 198.773 91.7228 198.894C90.951 199.09 90.1792 199.285 89.4075 199.479C89.3684 199.486 89.3317 199.492 89.2972 199.497ZM93.9117 198.327C93.473 198.383 93.0481 198.111 92.9332 197.679C92.8092 197.211 93.094 196.732 93.5741 196.61C94.3412 196.415 95.1107 196.217 95.8779 196.019C96.3556 195.897 96.8449 196.176 96.9712 196.644C97.0975 197.112 96.8104 197.591 96.3327 197.715C95.5632 197.913 94.7937 198.111 94.0243 198.307C93.9875 198.316 93.9508 198.323 93.9117 198.327ZM3.1265 209.632C2.81182 209.671 2.48797 209.547 2.28813 209.277C2.23531 209.205 2.18477 209.133 2.13653 209.059C1.69552 208.382 1.33491 207.698 1.06158 207.023C0.880125 206.573 1.10522 206.064 1.5646 205.886C2.02398 205.709 2.54308 205.929 2.72454 206.379C2.95423 206.948 3.26431 207.533 3.6433 208.114C3.67316 208.159 3.70303 208.202 3.73518 208.244C4.02459 208.636 3.93731 209.185 3.53535 209.468C3.41362 209.56 3.2712 209.614 3.1265 209.632ZM98.5262 197.139C98.0875 197.193 97.6649 196.923 97.5477 196.493C97.4214 196.026 97.7062 195.546 98.184 195.423C98.9534 195.222 99.7229 195.022 100.492 194.822C100.972 194.696 101.459 194.975 101.588 195.443C101.717 195.911 101.432 196.39 100.954 196.516C100.185 196.718 99.4128 196.919 98.6433 197.119C98.6043 197.126 98.5653 197.132 98.5262 197.139ZM103.148 195.929C102.711 195.983 102.289 195.715 102.171 195.288C102.043 194.82 102.325 194.338 102.803 194.212C103.575 194.01 104.344 193.805 105.116 193.6C105.596 193.474 106.085 193.751 106.214 194.217C106.343 194.685 106.06 195.166 105.585 195.292C104.813 195.497 104.041 195.702 103.269 195.904C103.228 195.918 103.187 195.924 103.148 195.929ZM107.764 194.705C107.328 194.759 106.908 194.493 106.788 194.066C106.657 193.598 106.94 193.116 107.415 192.991C108.182 192.786 108.95 192.581 109.717 192.374C110.192 192.246 110.686 192.52 110.817 192.988C110.948 193.456 110.668 193.938 110.19 194.066C109.423 194.273 108.653 194.478 107.886 194.682C107.847 194.691 107.806 194.7 107.764 194.705ZM112.372 193.467C111.938 193.521 111.518 193.256 111.396 192.831C111.265 192.365 111.543 191.881 112.021 191.753C112.788 191.546 113.555 191.337 114.32 191.13C114.795 191.002 115.289 191.274 115.422 191.74C115.553 192.205 115.275 192.689 114.8 192.82C114.033 193.029 113.265 193.236 112.498 193.445C112.455 193.454 112.413 193.461 112.372 193.467ZM116.973 192.217C116.539 192.271 116.118 192.007 115.999 191.582C115.866 191.116 116.143 190.633 116.621 190.502C117.388 190.293 118.156 190.081 118.92 189.872C119.396 189.742 119.89 190.014 120.023 190.48C120.156 190.945 119.878 191.429 119.403 191.56C118.638 191.771 117.871 191.98 117.101 192.19C117.058 192.201 117.016 192.21 116.973 192.217ZM121.571 190.952C121.139 191.006 120.719 190.743 120.597 190.32C120.464 189.854 120.74 189.371 121.215 189.238C121.982 189.026 122.747 188.813 123.512 188.601C123.987 188.468 124.481 188.741 124.617 189.204C124.752 189.67 124.477 190.153 124.001 190.286C123.236 190.498 122.469 190.711 121.702 190.923C121.658 190.936 121.615 190.945 121.571 190.952ZM126.165 189.674C125.733 189.728 125.315 189.467 125.191 189.044C125.055 188.579 125.331 188.095 125.807 187.96C126.574 187.746 127.339 187.532 128.101 187.316C128.574 187.184 129.073 187.451 129.208 187.917C129.344 188.383 129.07 188.869 128.595 189.002C127.83 189.215 127.065 189.431 126.298 189.645C126.254 189.661 126.211 189.67 126.165 189.674ZM1.44746 205.308C1.43597 205.311 1.4245 205.31 1.41531 205.313C0.923775 205.355 0.487353 205.002 0.443712 204.519C0.36332 203.657 0.423047 202.793 0.622878 201.945C0.733129 201.472 1.21318 201.178 1.69553 201.288C2.17788 201.396 2.47877 201.866 2.36622 202.338C2.21003 203.004 2.1618 203.684 2.22381 204.359C2.26746 204.831 1.92062 205.25 1.44746 205.308ZM130.756 188.385C130.327 188.439 129.909 188.18 129.785 187.757C129.647 187.292 129.923 186.806 130.398 186.673C131.165 186.457 131.93 186.241 132.69 186.025C133.168 185.89 133.662 186.158 133.8 186.624C133.938 187.089 133.664 187.575 133.189 187.71C132.426 187.926 131.661 188.142 130.894 188.358C130.846 188.372 130.802 188.378 130.756 188.385ZM135.346 187.085C134.916 187.139 134.498 186.88 134.374 186.459C134.236 185.994 134.51 185.508 134.983 185.373C135.75 185.154 136.515 184.936 137.275 184.718C137.75 184.583 138.247 184.848 138.384 185.314C138.522 185.78 138.251 186.266 137.776 186.401C137.013 186.619 136.248 186.837 135.481 187.055C135.438 187.069 135.392 187.08 135.346 187.085ZM139.93 185.773C139.501 185.827 139.085 185.568 138.959 185.15C138.821 184.684 139.092 184.198 139.565 184.063C140.332 183.843 141.095 183.622 141.855 183.404C142.331 183.267 142.827 183.532 142.967 183.998C143.107 184.464 142.836 184.95 142.36 185.087C141.6 185.307 140.835 185.526 140.068 185.746C140.022 185.76 139.976 185.769 139.93 185.773ZM144.513 184.452C144.085 184.506 143.667 184.25 143.541 183.831C143.401 183.368 143.672 182.88 144.145 182.743C144.912 182.52 145.675 182.299 146.435 182.079C146.908 181.942 147.407 182.205 147.547 182.671C147.687 183.134 147.418 183.622 146.943 183.76C146.182 183.98 145.42 184.203 144.653 184.425C144.607 184.437 144.559 184.446 144.513 184.452ZM149.09 183.121C148.663 183.175 148.247 182.918 148.121 182.502C147.981 182.038 148.25 181.55 148.723 181.411C149.49 181.186 150.253 180.963 151.011 180.74C151.484 180.601 151.982 180.864 152.125 181.33C152.267 181.793 151.998 182.281 151.523 182.421C150.765 182.644 150.002 182.866 149.233 183.091C149.187 183.105 149.139 183.114 149.09 183.121ZM2.4558 200.86C2.27435 200.883 2.08601 200.851 1.91374 200.759C1.47962 200.527 1.32114 199.994 1.55772 199.569C1.9436 198.878 2.43054 198.188 3.00707 197.515C3.32404 197.144 3.88908 197.096 4.26807 197.407C4.64706 197.717 4.69529 198.271 4.37831 198.642C3.87759 199.227 3.45725 199.821 3.1288 200.408C2.98639 200.667 2.73143 200.827 2.4558 200.86ZM153.668 181.78C153.241 181.834 152.825 181.579 152.699 181.163C152.556 180.7 152.825 180.212 153.298 180.072C154.065 179.847 154.828 179.622 155.584 179.397C156.057 179.258 156.555 179.519 156.7 179.982C156.842 180.446 156.574 180.936 156.1 181.075C155.342 181.298 154.58 181.523 153.813 181.75C153.764 181.762 153.716 181.773 153.668 181.78ZM158.241 180.428C157.816 180.482 157.401 180.227 157.272 179.811C157.129 179.348 157.396 178.859 157.869 178.718C158.639 178.49 159.399 178.263 160.155 178.038C160.628 177.899 161.126 178.16 161.271 178.623C161.416 179.087 161.147 179.575 160.676 179.717C159.92 179.942 159.158 180.169 158.388 180.396C158.338 180.412 158.289 180.421 158.241 180.428ZM162.812 179.066C162.387 179.12 161.974 178.866 161.843 178.452C161.698 177.989 161.964 177.501 162.438 177.359C163.207 177.129 163.967 176.902 164.721 176.675C165.192 176.533 165.695 176.794 165.839 177.255C165.984 177.719 165.718 178.209 165.247 178.351C164.493 178.578 163.731 178.805 162.961 179.035C162.911 179.051 162.86 179.06 162.812 179.066ZM167.381 177.696C166.956 177.75 166.542 177.498 166.414 177.084C166.269 176.621 166.533 176.13 167.006 175.989C167.776 175.757 168.538 175.527 169.289 175.3C169.762 175.158 170.263 175.417 170.408 175.878C170.553 176.342 170.288 176.832 169.815 176.974C169.064 177.201 168.302 177.431 167.532 177.663C167.479 177.68 167.429 177.689 167.381 177.696ZM5.46934 197.279C5.18912 197.315 4.89511 197.218 4.69069 196.995C4.35993 196.635 4.3898 196.082 4.75731 195.758C5.33613 195.247 5.98386 194.732 6.67982 194.23C7.07718 193.942 7.63763 194.025 7.93163 194.417C8.22564 194.806 8.14065 195.355 7.74099 195.643C7.09326 196.111 6.49147 196.588 5.95629 197.06C5.81388 197.184 5.64391 197.256 5.46934 197.279ZM171.945 176.317C171.522 176.371 171.108 176.119 170.978 175.707C170.831 175.246 171.097 174.753 171.568 174.612C172.34 174.378 173.1 174.146 173.849 173.919C174.32 173.777 174.823 174.034 174.97 174.495C175.117 174.958 174.852 175.449 174.379 175.593C173.63 175.82 172.868 176.052 172.096 176.286C172.048 176.299 171.997 176.31 171.945 176.317ZM176.508 174.929C176.086 174.983 175.672 174.733 175.541 174.319C175.394 173.858 175.659 173.365 176.129 173.221C176.904 172.985 177.664 172.753 178.41 172.524C178.883 172.38 179.384 172.636 179.531 173.098C179.678 173.559 179.416 174.052 178.943 174.196C178.197 174.425 177.436 174.657 176.662 174.893C176.612 174.911 176.561 174.922 176.508 174.929ZM181.07 173.532C180.648 173.586 180.236 173.336 180.103 172.924C179.954 172.463 180.218 171.97 180.689 171.826C181.467 171.588 182.228 171.354 182.967 171.125C183.438 170.978 183.941 171.235 184.091 171.698C184.24 172.159 183.978 172.652 183.505 172.798C182.763 173.028 182.003 173.262 181.224 173.5C181.174 173.514 181.123 173.525 181.07 173.532ZM9.2983 194.493C8.96295 194.536 8.6184 194.39 8.42776 194.091C8.16362 193.681 8.28995 193.139 8.70799 192.883C9.3672 192.478 10.0746 192.068 10.8119 191.67C11.2438 191.436 11.7881 191.589 12.0293 192.014C12.2682 192.437 12.112 192.97 11.6779 193.204C10.9704 193.587 10.2928 193.978 9.6612 194.365C9.54635 194.435 9.42233 194.478 9.2983 194.493ZM185.629 172.123C185.209 172.175 184.796 171.928 184.665 171.518C184.516 171.057 184.777 170.564 185.248 170.418C186.034 170.175 186.792 169.939 187.527 169.712C187.998 169.565 188.501 169.82 188.65 170.281C188.799 170.742 188.54 171.235 188.069 171.381C187.334 171.61 186.574 171.847 185.788 172.09C185.735 172.105 185.682 172.117 185.629 172.123ZM190.189 170.706C189.769 170.758 189.357 170.513 189.224 170.103C189.075 169.642 189.334 169.149 189.805 169.001C190.602 168.751 191.363 168.515 192.084 168.288C192.555 168.139 193.058 168.393 193.209 168.854C193.361 169.316 193.101 169.808 192.63 169.957C191.909 170.184 191.149 170.42 190.35 170.67C190.295 170.688 190.242 170.699 190.189 170.706ZM13.4764 192.221C13.1089 192.268 12.7345 192.084 12.5599 191.74C12.3417 191.305 12.5231 190.779 12.9642 190.565C13.6624 190.225 14.3997 189.886 15.1577 189.553C15.6079 189.355 16.1385 189.551 16.3406 189.991C16.5427 190.432 16.3429 190.952 15.8927 191.15C15.1554 191.474 14.4388 191.807 13.7589 192.136C13.6693 192.181 13.5728 192.21 13.4764 192.221ZM194.748 169.275C194.328 169.327 193.917 169.082 193.784 168.674C193.632 168.213 193.891 167.721 194.362 167.572C195.194 167.311 195.954 167.07 196.641 166.852C197.112 166.704 197.615 166.956 197.769 167.417C197.92 167.878 197.663 168.371 197.192 168.521C196.505 168.74 195.743 168.98 194.909 169.241C194.856 169.257 194.801 169.268 194.748 169.275ZM199.312 167.831C198.894 167.883 198.483 167.64 198.347 167.232C198.194 166.771 198.451 166.276 198.922 166.128C200.33 165.68 201.081 165.437 201.081 165.437C201.549 165.286 202.057 165.536 202.211 165.995C202.365 166.454 202.11 166.951 201.641 167.102C201.641 167.102 200.888 167.345 199.475 167.795C199.422 167.813 199.367 167.824 199.312 167.831ZM17.8359 190.295C17.4454 190.345 17.0526 190.133 16.8965 189.76C16.7081 189.312 16.9263 188.799 17.3811 188.615C18.1023 188.322 18.858 188.03 19.6252 187.742C20.0869 187.568 20.6037 187.796 20.7805 188.248C20.9574 188.7 20.7254 189.206 20.2637 189.38C19.5103 189.661 18.7707 189.949 18.0633 190.237C17.9898 190.266 17.9117 190.286 17.8359 190.295ZM22.3011 188.619C21.8922 188.671 21.4903 188.439 21.3456 188.043C21.1802 187.586 21.4214 187.087 21.8876 186.923C22.6272 186.664 23.3921 186.405 24.1662 186.153C24.637 185.998 25.1424 186.248 25.2985 186.707C25.4547 187.166 25.2021 187.663 24.7335 187.816C23.9709 188.066 23.2153 188.32 22.4894 188.574C22.4274 188.597 22.3631 188.61 22.3011 188.619ZM26.8398 187.134C26.4171 187.186 26.006 186.938 25.8728 186.527C25.7258 186.066 25.9876 185.573 26.4585 185.429C27.2073 185.199 27.9813 184.968 28.7623 184.743C29.2354 184.605 29.7339 184.871 29.874 185.334C30.0141 185.798 29.743 186.286 29.2699 186.423C28.5004 186.646 27.7356 186.875 26.996 187.103C26.9431 187.116 26.8903 187.127 26.8398 187.134ZM31.4267 185.805C30.9926 185.859 30.5722 185.595 30.4528 185.17C30.3196 184.704 30.5975 184.221 31.073 184.09C31.8355 183.881 32.6165 183.674 33.3951 183.472C33.8729 183.348 34.3621 183.627 34.4885 184.095C34.6148 184.563 34.33 185.042 33.8522 185.166C33.0828 185.366 32.311 185.571 31.5553 185.778C31.5117 185.791 31.468 185.8 31.4267 185.805ZM36.055 184.605C35.6117 184.662 35.1844 184.385 35.0742 183.948C34.9547 183.478 35.2464 183.004 35.7242 182.884C36.4914 182.695 37.2792 182.509 38.0602 182.326C38.5425 182.216 39.0226 182.506 39.1374 182.977C39.2522 183.447 38.9536 183.919 38.4736 184.032C37.6995 184.212 36.9186 184.398 36.1583 184.583C36.1239 184.594 36.0894 184.601 36.055 184.605ZM40.7131 183.523C40.2606 183.58 39.8288 183.292 39.7277 182.846C39.6198 182.374 39.9229 181.906 40.4053 181.8C41.1885 181.627 41.981 181.46 42.7573 181.298C43.242 181.197 43.7151 181.501 43.8185 181.975C43.9196 182.45 43.6118 182.914 43.1271 183.015C42.3577 183.175 41.5744 183.341 40.7958 183.512C40.7705 183.517 40.7406 183.521 40.7131 183.523ZM45.4057 182.556C44.9417 182.614 44.5053 182.311 44.4157 181.856C44.3215 181.381 44.6362 180.92 45.1208 180.828C46.6161 180.54 47.4775 180.396 47.5119 180.389C47.992 180.306 48.4605 180.628 48.5455 181.107C48.6282 181.584 48.302 182.036 47.8151 182.119C47.8059 182.122 46.9377 182.266 45.4677 182.549C45.4447 182.551 45.4263 182.554 45.4057 182.556Z" fill="white" fill-opacity="0.5"/>
<path d="M185.383 192.775L227.906 161.778L186.394 169.394L190.525 175.867L183.112 186.256L185.383 192.775Z" fill="#B7EE81"/>
<path d="M185.383 192.775L227.906 161.778L186.394 169.394L190.525 175.867L183.112 186.256L185.383 192.775Z" fill="black" fill-opacity="0.2"/>
<path d="M227.906 161.778L180.985 176.331L149.101 204.341L227.906 161.778Z" fill="#B7EE81"/>
<path d="M227.906 161.778L180.985 176.331L149.101 204.341L227.906 161.778Z" fill="white" fill-opacity="0.5"/>
<path d="M186.394 169.395L227.906 161.779L182.51 154.754L186.394 169.395Z" fill="#B7EE81"/>
<path d="M186.394 169.395L227.906 161.779L182.51 154.754L186.394 169.395Z" fill="white" fill-opacity="0.5"/>
<path d="M187.247 29.5812L220.461 28.4549L196.199 17.8443L196.008 22.6399L188.42 25.4146L187.247 29.5812Z" fill="#B7EE81"/>
<path d="M187.247 29.5812L220.461 28.4549L196.199 17.8443L196.008 22.6399L188.42 25.4146L187.247 29.5812Z" fill="black" fill-opacity="0.2"/>
<path d="M220.461 28.5208L190.875 19.5908L164.239 22.9072L220.461 28.5208Z" fill="#B7EE81"/>
<path d="M220.461 28.5208L190.875 19.5908L164.239 22.9072L220.461 28.5208Z" fill="white" fill-opacity="0.5"/>
<path d="M196.279 17.8533L220.461 28.4243L199.531 8.95308L196.279 17.8533Z" fill="#B7EE81"/>
<path d="M196.279 17.8533L220.461 28.4243L199.531 8.95308L196.279 17.8533Z" fill="white" fill-opacity="0.5"/>
<defs>
<filter id="filter0_ddddd_413_3058" x="389.441" y="-6.67432" width="252.694" height="203.111" filterUnits="userSpaceOnUse" color-interpolation-filters="sRGB">
<feFlood flood-opacity="0" result="BackgroundImageFix"/>
<feColorMatrix in="SourceAlpha" type="matrix" values="0 0 0 0 0 0 0 0 0 0 0 0 0 0 0 0 0 0 127 0" result="hardAlpha"/>
<feOffset dy="6"/>
<feGaussianBlur stdDeviation="4"/>
<feColorMatrix type="matrix" values="0 0 0 0 0.705882 0 0 0 0 0.831373 0 0 0 0 0.921569 0 0 0 0.12 0"/>
<feBlend mode="normal" in2="BackgroundImageFix" result="effect1_dropShadow_413_3058"/>
<feColorMatrix in="SourceAlpha" type="matrix" values="0 0 0 0 0 0 0 0 0 0 0 0 0 0 0 0 0 0 127 0" result="hardAlpha"/>
<feOffset dy="8"/>
<feGaussianBlur stdDeviation="12"/>
<feColorMatrix type="matrix" values="0 0 0 0 0.705882 0 0 0 0 0.831373 0 0 0 0 0.921569 0 0 0 0.08 0"/>
<feBlend mode="normal" in2="effect1_dropShadow_413_3058" result="effect2_dropShadow_413_3058"/>
<feColorMatrix in="SourceAlpha" type="matrix" values="0 0 0 0 0 0 0 0 0 0 0 0 0 0 0 0 0 0 127 0" result="hardAlpha"/>
<feOffset dy="16"/>
<feGaussianBlur stdDeviation="18"/>
<feColorMatrix type="matrix" values="0 0 0 0 0.705882 0 0 0 0 0.831373 0 0 0 0 0.921569 0 0 0 0.04 0"/>
<feBlend mode="normal" in2="effect2_dropShadow_413_3058" result="effect3_dropShadow_413_3058"/>
<feColorMatrix in="SourceAlpha" type="matrix" values="0 0 0 0 0 0 0 0 0 0 0 0 0 0 0 0 0 0 127 0" result="hardAlpha"/>
<feOffset dy="40"/>
<feGaussianBlur stdDeviation="35"/>
<feColorMatrix type="matrix" values="0 0 0 0 0.705882 0 0 0 0 0.831373 0 0 0 0 0.921569 0 0 0 0.04 0"/>
<feBlend mode="normal" in2="effect3_dropShadow_413_3058" result="effect4_dropShadow_413_3058"/>
<feColorMatrix in="SourceAlpha" type="matrix" values="0 0 0 0 0 0 0 0 0 0 0 0 0 0 0 0 0 0 127 0" result="hardAlpha"/>
<feOffset dy="2"/>
<feGaussianBlur stdDeviation="2"/>
<feColorMatrix type="matrix" values="0 0 0 0 0.87451 0 0 0 0 0.929412 0 0 0 0 0.964706 0 0 0 0.4 0"/>
<feBlend mode="normal" in2="effect4_dropShadow_413_3058" result="effect5_dropShadow_413_3058"/>
<feBlend mode="normal" in="SourceGraphic" in2="effect5_dropShadow_413_3058" result="shape"/>
</filter>
<filter id="filter1_ddddd_413_3058" x="405.07" y="47.2568" width="154.77" height="157.834" filterUnits="userSpaceOnUse" color-interpolation-filters="sRGB">
<feFlood flood-opacity="0" result="BackgroundImageFix"/>
<feColorMatrix in="SourceAlpha" type="matrix" values="0 0 0 0 0 0 0 0 0 0 0 0 0 0 0 0 0 0 127 0" result="hardAlpha"/>
<feOffset dy="6"/>
<feGaussianBlur stdDeviation="4"/>
<feColorMatrix type="matrix" values="0 0 0 0 0.705882 0 0 0 0 0.831373 0 0 0 0 0.921569 0 0 0 0.12 0"/>
<feBlend mode="normal" in2="BackgroundImageFix" result="effect1_dropShadow_413_3058"/>
<feColorMatrix in="SourceAlpha" type="matrix" values="0 0 0 0 0 0 0 0 0 0 0 0 0 0 0 0 0 0 127 0" result="hardAlpha"/>
<feOffset dy="8"/>
<feGaussianBlur stdDeviation="12"/>
<feColorMatrix type="matrix" values="0 0 0 0 0.705882 0 0 0 0 0.831373 0 0 0 0 0.921569 0 0 0 0.08 0"/>
<feBlend mode="normal" in2="effect1_dropShadow_413_3058" result="effect2_dropShadow_413_3058"/>
<feColorMatrix in="SourceAlpha" type="matrix" values="0 0 0 0 0 0 0 0 0 0 0 0 0 0 0 0 0 0 127 0" result="hardAlpha"/>
<feOffset dy="16"/>
<feGaussianBlur stdDeviation="18"/>
<feColorMatrix type="matrix" values="0 0 0 0 0.705882 0 0 0 0 0.831373 0 0 0 0 0.921569 0 0 0 0.04 0"/>
<feBlend mode="normal" in2="effect2_dropShadow_413_3058" result="effect3_dropShadow_413_3058"/>
<feColorMatrix in="SourceAlpha" type="matrix" values="0 0 0 0 0 0 0 0 0 0 0 0 0 0 0 0 0 0 127 0" result="hardAlpha"/>
<feOffset dy="40"/>
<feGaussianBlur stdDeviation="35"/>
<feColorMatrix type="matrix" values="0 0 0 0 0.705882 0 0 0 0 0.831373 0 0 0 0 0.921569 0 0 0 0.04 0"/>
<feBlend mode="normal" in2="effect3_dropShadow_413_3058" result="effect4_dropShadow_413_3058"/>
<feColorMatrix in="SourceAlpha" type="matrix" values="0 0 0 0 0 0 0 0 0 0 0 0 0 0 0 0 0 0 127 0" result="hardAlpha"/>
<feOffset dy="2"/>
<feGaussianBlur stdDeviation="2"/>
<feColorMatrix type="matrix" values="0 0 0 0 0.87451 0 0 0 0 0.929412 0 0 0 0 0.964706 0 0 0 0.4 0"/>
<feBlend mode="normal" in2="effect4_dropShadow_413_3058" result="effect5_dropShadow_413_3058"/>
<feBlend mode="normal" in="SourceGraphic" in2="effect5_dropShadow_413_3058" result="shape"/>
</filter>
<clipPath id="clip0_413_3058">
<rect width="144.176" height="140.246" fill="white" transform="translate(452.824 4.83594)"/>
</clipPath>
</defs>
</svg>
