<svg width="482" height="554" viewBox="0 0 482 554" fill="none" xmlns="http://www.w3.org/2000/svg">
<path d="M353.999 390.004C394.809 343.4 416.024 280.5 407.229 214.675C393.437 111.449 310.243 33.9833 210 21.8564" stroke="#E5E5E5" stroke-width="2" stroke-dasharray="12 8"/>
<path fill-rule="evenodd" clip-rule="evenodd" d="M0.838331 425.957C0.838331 425.957 -1.78595 405.313 26.5563 396.023C54.8985 386.733 61.1968 391.636 61.1968 391.636L58.5725 399.894C58.5725 399.894 54.1112 420.538 33.6418 423.376C13.1724 426.215 5.29961 422.086 0.838331 425.957Z" fill="#B7EE81"/>
<path fill-rule="evenodd" clip-rule="evenodd" d="M0.838331 425.957C0.838331 425.957 -1.78595 405.313 26.5563 396.023C54.8985 386.733 61.1968 391.636 61.1968 391.636L58.5725 399.894C58.5725 399.894 54.1112 420.538 33.6418 423.376C13.1724 426.215 5.29961 422.086 0.838331 425.957Z" fill="white" fill-opacity="0.2"/>
<path d="M58.158 392.611L58.9871 393.244L58.9184 393.328C58.8885 393.365 58.8515 393.409 58.8073 393.461L58.6762 393.613C58.5841 393.719 58.4826 393.834 58.3715 393.956L58.2864 394.049C57.7105 394.677 57.0155 395.376 56.1996 396.127C53.8742 398.268 51.0438 400.407 47.6943 402.402C40.9678 406.409 33.0253 409.322 23.824 410.678L23.4826 410.727C17.2892 411.611 12.3539 413.634 8.53088 416.449C6.69692 417.8 5.24146 419.244 4.12587 420.686C3.73756 421.188 3.41986 421.652 3.16801 422.067L3.08579 422.205C3.0471 422.271 3.01203 422.333 2.9805 422.39L2.89256 422.555L2.88729 422.566L1.93863 422.124L1.96758 422.066C2.02765 421.948 2.12632 421.769 2.26662 421.538C2.53825 421.091 2.87789 420.594 3.29051 420.061C4.4633 418.545 5.98731 417.033 7.90169 415.623C11.808 412.747 16.8189 410.675 23.0597 409.746L23.3318 409.706C32.5352 408.392 40.4581 405.506 47.1504 401.519C50.4356 399.562 53.2083 397.467 55.4822 395.374C56.2231 394.691 56.8599 394.056 57.3939 393.48L57.5068 393.358C57.6728 393.177 57.8176 393.014 57.9414 392.87L58.08 392.706L58.158 392.611Z" fill="#B7EE81"/>
<path d="M58.158 392.611L58.9871 393.244L58.9184 393.328C58.8885 393.365 58.8515 393.409 58.8073 393.461L58.6762 393.613C58.5841 393.719 58.4826 393.834 58.3715 393.956L58.2864 394.049C57.7105 394.677 57.0155 395.376 56.1996 396.127C53.8742 398.268 51.0438 400.407 47.6943 402.402C40.9678 406.409 33.0253 409.322 23.824 410.678L23.4826 410.727C17.2892 411.611 12.3539 413.634 8.53088 416.449C6.69692 417.8 5.24146 419.244 4.12587 420.686C3.73756 421.188 3.41986 421.652 3.16801 422.067L3.08579 422.205C3.0471 422.271 3.01203 422.333 2.9805 422.39L2.89256 422.555L2.88729 422.566L1.93863 422.124L1.96758 422.066C2.02765 421.948 2.12632 421.769 2.26662 421.538C2.53825 421.091 2.87789 420.594 3.29051 420.061C4.4633 418.545 5.98731 417.033 7.90169 415.623C11.808 412.747 16.8189 410.675 23.0597 409.746L23.3318 409.706C32.5352 408.392 40.4581 405.506 47.1504 401.519C50.4356 399.562 53.2083 397.467 55.4822 395.374C56.2231 394.691 56.8599 394.056 57.3939 393.48L57.5068 393.358C57.6728 393.177 57.8176 393.014 57.9414 392.87L58.08 392.706L58.158 392.611Z" fill="white" fill-opacity="0.2"/>
<path fill-rule="evenodd" clip-rule="evenodd" d="M57.7848 439.892H61.1963V391.636H57.7848L58.704 406.463C58.9657 410.682 58.9943 414.912 58.7901 419.134L57.7848 439.892Z" fill="#B7EE81"/>
<path fill-rule="evenodd" clip-rule="evenodd" d="M57.7848 439.892H61.1963V391.636H57.7848L58.704 406.463C58.9657 410.682 58.9943 414.912 58.7901 419.134L57.7848 439.892Z" fill="white" fill-opacity="0.2"/>
<path fill-rule="evenodd" clip-rule="evenodd" d="M5.2413 355.303C5.2413 355.303 15.6872 339.683 40.5738 349.58C65.4601 359.477 66.7075 367.38 66.7075 367.38L60.1691 370.581C60.1691 370.581 44.8787 382.139 29.1999 372.345C13.5214 362.55 10.5867 355.214 5.2413 355.303Z" fill="#B7EE81"/>
<path fill-rule="evenodd" clip-rule="evenodd" d="M5.2413 355.303C5.2413 355.303 15.6872 339.683 40.5738 349.58C65.4601 359.477 66.7075 367.38 66.7075 367.38L60.1691 370.581C60.1691 370.581 44.8787 382.139 29.1999 372.345C13.5214 362.55 10.5867 355.214 5.2413 355.303Z" fill="white" fill-opacity="0.2"/>
<path fill-rule="evenodd" clip-rule="evenodd" d="M63.296 453.31H65.9203L66.9484 368.127C66.961 367.077 66.2572 366.147 65.2298 365.859L63.296 365.315C63.296 365.315 63.9549 373.23 63.8208 383.121C63.6925 392.582 62.7711 403.84 62.7711 412.179C62.7711 435.763 63.296 453.31 63.296 453.31Z" fill="#B7EE81"/>
<path fill-rule="evenodd" clip-rule="evenodd" d="M63.296 453.31H65.9203L66.9484 368.127C66.961 367.077 66.2572 366.147 65.2298 365.859L63.296 365.315C63.296 365.315 63.9549 373.23 63.8208 383.121C63.6925 392.582 62.7711 403.84 62.7711 412.179C62.7711 435.763 63.296 453.31 63.296 453.31Z" fill="white" fill-opacity="0.2"/>
<path fill-rule="evenodd" clip-rule="evenodd" d="M40.7271 354.735C52.0519 363.378 63.5583 368.928 63.5583 368.928L60.169 370.581C60.169 370.581 44.8787 382.139 29.1999 372.344C13.5214 362.55 10.5867 355.214 5.2413 355.303C5.2413 355.303 23.1444 341.316 40.7271 354.735Z" fill="#B7EE81"/>
<path fill-rule="evenodd" clip-rule="evenodd" d="M40.7271 354.735C52.0519 363.378 63.5583 368.928 63.5583 368.928L60.169 370.581C60.169 370.581 44.8787 382.139 29.1999 372.344C13.5214 362.55 10.5867 355.214 5.2413 355.303C5.2413 355.303 23.1444 341.316 40.7271 354.735Z" fill="black" fill-opacity="0.2"/>
<path fill-rule="evenodd" clip-rule="evenodd" d="M128.052 392.248C128.052 392.248 121.005 381.765 104.217 388.407C87.4296 395.05 86.5882 400.354 86.5882 400.354L90.9988 402.503C90.9988 402.503 101.313 410.261 111.89 403.687C122.466 397.113 124.446 392.189 128.052 392.248Z" fill="#B7EE81"/>
<path fill-rule="evenodd" clip-rule="evenodd" d="M128.052 392.248C128.052 392.248 121.005 381.765 104.217 388.407C87.4296 395.05 86.5882 400.354 86.5882 400.354L90.9988 402.503C90.9988 402.503 101.313 410.261 111.89 403.687C122.466 397.113 124.446 392.189 128.052 392.248Z" fill="white" fill-opacity="0.2"/>
<path fill-rule="evenodd" clip-rule="evenodd" d="M88.8495 458.457H87.0361L86.3257 401.002C86.317 400.293 86.8033 399.666 87.5133 399.472L88.8495 399.105C88.8495 399.105 88.3942 404.444 88.4869 411.115C88.5755 417.496 89.2122 425.09 89.2122 430.714C89.2122 446.621 88.8495 458.457 88.8495 458.457Z" fill="#B7EE81"/>
<path fill-rule="evenodd" clip-rule="evenodd" d="M88.8495 458.457H87.0361L86.3257 401.002C86.317 400.293 86.8033 399.666 87.5133 399.472L88.8495 399.105C88.8495 399.105 88.3942 404.444 88.4869 411.115C88.5755 417.496 89.2122 425.09 89.2122 430.714C89.2122 446.621 88.8495 458.457 88.8495 458.457Z" fill="white" fill-opacity="0.2"/>
<path fill-rule="evenodd" clip-rule="evenodd" d="M130.011 335.433C130.011 335.433 119.565 319.814 94.6781 329.711C69.7918 339.607 68.5445 347.51 68.5445 347.51L75.0829 350.712C75.0829 350.712 90.3733 362.269 106.052 352.475C121.731 342.681 124.665 335.344 130.011 335.433Z" fill="#B7EE81"/>
<path fill-rule="evenodd" clip-rule="evenodd" d="M130.011 335.433C130.011 335.433 119.565 319.814 94.6781 329.711C69.7918 339.607 68.5445 347.51 68.5445 347.51L75.0829 350.712C75.0829 350.712 90.3733 362.269 106.052 352.475C121.731 342.681 124.665 335.344 130.011 335.433Z" fill="white" fill-opacity="0.2"/>
<path fill-rule="evenodd" clip-rule="evenodd" d="M71.9563 436.795H69.332L68.3038 348.257C68.2912 347.207 68.995 346.278 70.0224 345.989L71.9563 345.446C71.9563 345.446 71.2973 353.361 71.4314 363.251C71.5597 372.712 72.4811 383.97 72.4811 392.309C72.4811 415.893 71.9563 436.795 71.9563 436.795Z" fill="#B7EE81"/>
<path fill-rule="evenodd" clip-rule="evenodd" d="M71.9563 436.795H69.332L68.3038 348.257C68.2912 347.207 68.995 346.278 70.0224 345.989L71.9563 345.446C71.9563 345.446 71.2973 353.361 71.4314 363.251C71.5597 372.712 72.4811 383.97 72.4811 392.309C72.4811 415.893 71.9563 436.795 71.9563 436.795Z" fill="white" fill-opacity="0.2"/>
<path fill-rule="evenodd" clip-rule="evenodd" d="M130.011 335.433C130.011 335.433 112.108 321.447 94.525 334.865C83.2001 343.508 71.6937 349.058 71.6937 349.058L75.083 350.711C75.083 350.711 90.3734 362.269 106.052 352.474C121.731 342.68 124.665 335.344 130.011 335.433Z" fill="#B7EE81"/>
<path fill-rule="evenodd" clip-rule="evenodd" d="M130.011 335.433C130.011 335.433 112.108 321.447 94.525 334.865C83.2001 343.508 71.6937 349.058 71.6937 349.058L75.083 350.711C75.083 350.711 90.3734 362.269 106.052 352.474C121.731 342.68 124.665 335.344 130.011 335.433Z" fill="black" fill-opacity="0.2"/>
<path fill-rule="evenodd" clip-rule="evenodd" d="M76.6799 436.021H81.1412L82.9058 381.18L79.5451 329.42C79.5577 328.369 78.8539 327.44 77.8265 327.151L75.8926 326.608C75.8926 326.608 80.0915 367.713 80.0915 376.052C80.0915 399.636 76.6799 436.021 76.6799 436.021Z" fill="#B7EE81"/>
<path fill-rule="evenodd" clip-rule="evenodd" d="M76.6799 436.021H81.1412L82.9058 381.18L79.5451 329.42C79.5577 328.369 78.8539 327.44 77.8265 327.151L75.8926 326.608C75.8926 326.608 80.0915 367.713 80.0915 376.052C80.0915 399.636 76.6799 436.021 76.6799 436.021Z" fill="white" fill-opacity="0.2"/>
<path fill-rule="evenodd" clip-rule="evenodd" d="M26.4758 297.647C26.4758 297.647 36.0038 283.772 58.5726 297.706C81.307 311.743 79.7285 330.157 79.7285 330.157L72.4634 330.901C72.4634 330.901 54.0218 336.45 42.8332 321.87C31.6446 307.29 31.5131 299.408 26.4758 297.647Z" fill="#B7EE81"/>
<path fill-rule="evenodd" clip-rule="evenodd" d="M26.4758 297.647C26.4758 297.647 36.0038 283.772 58.5726 297.706C81.307 311.743 79.7285 330.157 79.7285 330.157L72.4634 330.901C72.4634 330.901 54.0218 336.45 42.8332 321.87C31.6446 307.29 31.5131 299.408 26.4758 297.647Z" fill="white" fill-opacity="0.2"/>
<path fill-rule="evenodd" clip-rule="evenodd" d="M26.4758 297.646C26.4758 297.646 36.7326 290.212 45.4512 300.802C49.9125 306.221 57.8053 310.307 61.1969 313.447C70.0074 321.603 76.2272 330.52 76.2272 330.52L72.4634 330.9C72.4634 330.9 54.0218 336.449 42.8332 321.869C31.6446 307.289 31.5131 299.407 26.4758 297.646Z" fill="#B7EE81"/>
<path fill-rule="evenodd" clip-rule="evenodd" d="M26.4758 297.646C26.4758 297.646 36.7326 290.212 45.4512 300.802C49.9125 306.221 57.8053 310.307 61.1969 313.447C70.0074 321.603 76.2272 330.52 76.2272 330.52L72.4634 330.9C72.4634 330.9 54.0218 336.449 42.8332 321.869C31.6446 307.289 31.5131 299.407 26.4758 297.646Z" fill="black" fill-opacity="0.2"/>
<path fill-rule="evenodd" clip-rule="evenodd" d="M93.2045 508.275H50.5572C47.0787 508.275 44.2478 505.502 44.2478 502.082L34.3648 442.214C34.3648 438.794 37.1846 436.021 40.6631 436.021H101.546C105.025 436.021 107.845 438.794 107.845 442.214L99.6368 502.082C99.6368 505.502 96.683 508.275 93.2045 508.275Z" fill="#1443BD"/>
<path fill-rule="evenodd" clip-rule="evenodd" d="M93.2045 508.275H50.5572C47.0787 508.275 44.2478 505.502 44.2478 502.082L34.3648 442.214C34.3648 438.794 37.1846 436.021 40.6631 436.021H101.546C105.025 436.021 107.845 438.794 107.845 442.214L99.6368 502.082C99.6368 505.502 96.683 508.275 93.2045 508.275Z" fill="black" fill-opacity="0.2"/>
<path fill-rule="evenodd" clip-rule="evenodd" d="M197.41 386.061C197.41 392.768 191.881 398.205 185.061 398.205C178.241 398.205 172.711 392.768 172.711 386.061C172.711 379.355 178.241 373.918 185.061 373.918C191.881 373.918 197.41 379.355 197.41 386.061Z" fill="#1443BD"/>
<path fill-rule="evenodd" clip-rule="evenodd" d="M197.41 386.061C197.41 392.768 191.881 398.205 185.061 398.205C178.241 398.205 172.711 392.768 172.711 386.061C172.711 379.355 178.241 373.918 185.061 373.918C191.881 373.918 197.41 379.355 197.41 386.061Z" fill="black" fill-opacity="0.5"/>
<path fill-rule="evenodd" clip-rule="evenodd" d="M182.743 495.351H187.524V389.688H182.743V495.351Z" fill="#1443BD"/>
<path fill-rule="evenodd" clip-rule="evenodd" d="M182.743 495.351H187.524V389.688H182.743V495.351Z" fill="black" fill-opacity="0.5"/>
<path fill-rule="evenodd" clip-rule="evenodd" d="M182.744 495.35L127.068 504.469L123.475 501.918L182.744 484.752V495.35Z" fill="#1443BD"/>
<path fill-rule="evenodd" clip-rule="evenodd" d="M182.744 495.35L127.068 504.469L123.475 501.918L182.744 484.752V495.35Z" fill="black" fill-opacity="0.5"/>
<path fill-rule="evenodd" clip-rule="evenodd" d="M187.524 495.35L243.199 504.469L246.792 501.918L187.524 484.752V495.35Z" fill="#1443BD"/>
<path fill-rule="evenodd" clip-rule="evenodd" d="M187.524 495.35L243.199 504.469L246.792 501.918L187.524 484.752V495.35Z" fill="black" fill-opacity="0.5"/>
<path fill-rule="evenodd" clip-rule="evenodd" d="M181.341 507.61H188.926V492.3H181.341V507.61Z" fill="#1443BD"/>
<path fill-rule="evenodd" clip-rule="evenodd" d="M181.341 507.61H188.926V492.3H181.341V507.61Z" fill="black" fill-opacity="0.5"/>
<path fill-rule="evenodd" clip-rule="evenodd" d="M132.285 507.814C132.285 511.31 129.402 514.144 125.848 514.144C122.292 514.144 119.41 511.31 119.41 507.814C119.41 504.318 122.292 501.484 125.848 501.484C129.402 501.484 132.285 504.318 132.285 507.814Z" fill="#1443BD"/>
<path fill-rule="evenodd" clip-rule="evenodd" d="M132.285 507.814C132.285 511.31 129.402 514.144 125.848 514.144C122.292 514.144 119.41 511.31 119.41 507.814C119.41 504.318 122.292 501.484 125.848 501.484C129.402 501.484 132.285 504.318 132.285 507.814Z" fill="black" fill-opacity="0.5"/>
<path fill-rule="evenodd" clip-rule="evenodd" d="M191.571 507.814C191.571 511.31 188.689 514.144 185.133 514.144C181.579 514.144 178.696 511.31 178.696 507.814C178.696 504.318 181.579 501.484 185.133 501.484C188.689 501.484 191.571 504.318 191.571 507.814Z" fill="#1443BD"/>
<path fill-rule="evenodd" clip-rule="evenodd" d="M191.571 507.814C191.571 511.31 188.689 514.144 185.133 514.144C181.579 514.144 178.696 511.31 178.696 507.814C178.696 504.318 181.579 501.484 185.133 501.484C188.689 501.484 191.571 504.318 191.571 507.814Z" fill="black" fill-opacity="0.5"/>
<path fill-rule="evenodd" clip-rule="evenodd" d="M251.421 507.814C251.421 511.31 248.539 514.144 244.983 514.144C241.429 514.144 238.546 511.31 238.546 507.814C238.546 504.318 241.429 501.484 244.983 501.484C248.539 501.484 251.421 504.318 251.421 507.814Z" fill="#1443BD"/>
<path fill-rule="evenodd" clip-rule="evenodd" d="M251.421 507.814C251.421 511.31 248.539 514.144 244.983 514.144C241.429 514.144 238.546 511.31 238.546 507.814C238.546 504.318 241.429 501.484 244.983 501.484C248.539 501.484 251.421 504.318 251.421 507.814Z" fill="black" fill-opacity="0.5"/>
<path fill-rule="evenodd" clip-rule="evenodd" d="M262.469 383.832H107.651C107.651 368.87 119.986 356.74 135.203 356.74H234.918C250.134 356.74 262.469 368.87 262.469 383.832Z" fill="#2A84C6"/>
<path fill-rule="evenodd" clip-rule="evenodd" d="M262.469 383.832H107.651C107.651 368.87 119.986 356.74 135.203 356.74H234.918C250.134 356.74 262.469 368.87 262.469 383.832Z" fill="white" fill-opacity="0.5"/>
<g clip-path="url(#clip0_411_2868)">
<path fill-rule="evenodd" clip-rule="evenodd" d="M376.297 35.3173H264.657V25.9549C264.657 23.924 266.416 22.2773 268.586 22.2773H372.368C374.538 22.2773 376.297 23.924 376.297 25.9549V35.3173Z" fill="#1443BD"/>
<path fill-rule="evenodd" clip-rule="evenodd" d="M376.297 35.3173H264.657V25.9549C264.657 23.924 266.416 22.2773 268.586 22.2773H372.368C374.538 22.2773 376.297 23.924 376.297 25.9549V35.3173Z" fill="black" fill-opacity="0.5"/>
<path fill-rule="evenodd" clip-rule="evenodd" d="M372.368 130.287H268.586C266.416 130.287 264.657 128.564 264.657 126.439V34.8278H376.297V126.439C376.297 128.564 374.538 130.287 372.368 130.287Z" fill="#2A84C6"/>
<path fill-rule="evenodd" clip-rule="evenodd" d="M372.368 130.287H268.586C266.416 130.287 264.657 128.564 264.657 126.439V34.8278H376.297V126.439C376.297 128.564 374.538 130.287 372.368 130.287Z" fill="white" fill-opacity="0.85"/>
<path fill-rule="evenodd" clip-rule="evenodd" d="M273.816 28.7616C273.816 30.0822 272.723 31.1529 271.374 31.1529C270.025 31.1529 268.932 30.0822 268.932 28.7616C268.932 27.441 270.025 26.3702 271.374 26.3702C272.723 26.3702 273.816 27.441 273.816 28.7616Z" fill="#F56D7E"/>
<path fill-rule="evenodd" clip-rule="evenodd" d="M282.365 28.7616C282.365 30.0822 281.271 31.1529 279.922 31.1529C278.573 31.1529 277.48 30.0822 277.48 28.7616C277.48 27.441 278.573 26.3702 279.922 26.3702C281.271 26.3702 282.365 27.441 282.365 28.7616Z" fill="#F1F380"/>
<path fill-rule="evenodd" clip-rule="evenodd" d="M292.134 28.7616C292.134 30.0822 291.041 31.1529 289.692 31.1529C288.343 31.1529 287.25 30.0822 287.25 28.7616C287.25 27.441 288.343 26.3702 289.692 26.3702C291.041 26.3702 292.134 27.441 292.134 28.7616Z" fill="#B7EE81"/>
<path fill-rule="evenodd" clip-rule="evenodd" d="M292.134 28.7616C292.134 30.0822 291.041 31.1529 289.692 31.1529C288.343 31.1529 287.25 30.0822 287.25 28.7616C287.25 27.441 288.343 26.3702 289.692 26.3702C291.041 26.3702 292.134 27.441 292.134 28.7616Z" fill="white" fill-opacity="0.2"/>
<path fill-rule="evenodd" clip-rule="evenodd" d="M276.544 117.838C275.869 117.838 275.321 117.297 275.321 116.631V46.7058C275.321 46.0397 275.869 45.4996 276.544 45.4996H365.077C365.752 45.4996 366.3 46.0397 366.3 46.7058V116.631C366.3 117.297 365.752 117.838 365.077 117.838H276.544Z" fill="white"/>
<g filter="url(#filter0_iii_411_2868)">
<path d="M285 60C285 57.7909 286.791 56 289 56H351.128C353.338 56 355.128 57.7909 355.128 60V61.9648C355.128 64.174 353.338 65.9648 351.128 65.9648H289C286.791 65.9648 285 64.174 285 61.9648V60Z" fill="white"/>
</g>
<g filter="url(#filter1_iii_411_2868)">
<path d="M285 81.2579C285 79.0488 286.791 77.2579 289 77.2579H351.128C353.338 77.2579 355.128 79.0488 355.128 81.2579V83.2227C355.128 85.4319 353.338 87.2227 351.128 87.2227H289C286.791 87.2227 285 85.4319 285 83.2227V81.2579Z" fill="white"/>
</g>
<g filter="url(#filter2_ddddd_411_2868)">
<path d="M285 103.499C285 100.747 287.231 98.5161 289.982 98.5161H350.146C352.898 98.5161 355.128 100.747 355.128 103.499C355.128 106.25 352.898 108.481 350.146 108.481H289.982C287.231 108.481 285 106.25 285 103.499Z" fill="#2A84C6"/>
</g>
</g>
<path fill-rule="evenodd" clip-rule="evenodd" d="M239.506 164.282C239.506 164.282 253 163.511 255.307 177.662C267.815 183.375 263.078 196.929 263.078 196.929C263.078 196.929 268.61 208.361 255.236 212.843C253.228 223.905 240.52 220.785 240.52 220.785C240.52 220.785 236.673 229.139 227.191 224.761C215.917 231.945 196.147 228.635 189.944 218.155C175.022 227.257 151.73 212.628 155.615 203.494C139.327 201.131 132.887 183.382 143.754 169.69C137.39 157.592 146.385 151.534 146.385 151.534C146.385 151.534 146.376 124.984 165.241 123.009C176.02 109.628 195.637 122.78 195.637 122.78C195.637 122.78 209.538 121.15 213.412 133.222C228.471 136.825 227.032 145.013 227.598 152.039C241.189 153.958 239.506 164.282 239.506 164.282Z" fill="#1443BD"/>
<path fill-rule="evenodd" clip-rule="evenodd" d="M239.506 164.282C239.506 164.282 253 163.511 255.307 177.662C267.815 183.375 263.078 196.929 263.078 196.929C263.078 196.929 268.61 208.361 255.236 212.843C253.228 223.905 240.52 220.785 240.52 220.785C240.52 220.785 236.673 229.139 227.191 224.761C215.917 231.945 196.147 228.635 189.944 218.155C175.022 227.257 151.73 212.628 155.615 203.494C139.327 201.131 132.887 183.382 143.754 169.69C137.39 157.592 146.385 151.534 146.385 151.534C146.385 151.534 146.376 124.984 165.241 123.009C176.02 109.628 195.637 122.78 195.637 122.78C195.637 122.78 209.538 121.15 213.412 133.222C228.471 136.825 227.032 145.013 227.598 152.039C241.189 153.958 239.506 164.282 239.506 164.282Z" fill="black" fill-opacity="0.5"/>
<path fill-rule="evenodd" clip-rule="evenodd" d="M198.286 147.822C187.423 148.762 184.869 140.523 184.869 140.523C184.869 140.523 181.438 128.935 179.702 135.724C178.781 139.33 173.454 133.989 170.468 137.665C168.458 140.139 172.61 143.899 166.213 150.407C162.508 154.177 175.441 158.533 166.63 165.314C166.63 165.314 171.628 174.929 161.409 177.06L159.415 187.666C158.255 193.839 162.765 199.649 169.126 200.179C175.19 200.683 180.482 196.164 180.821 190.187L181.561 177.111C197.023 178.422 199.611 157.589 198.286 147.822Z" fill="#FFC999"/>
<path fill-rule="evenodd" clip-rule="evenodd" d="M186.881 161.512C182.407 161.558 178.491 158.99 178.491 158.99C178.491 158.99 177.325 164.72 181.055 165.408C184.677 166.075 186.881 161.512 186.881 161.512Z" fill="white"/>
<path d="M177.851 158.864L177.807 159.109C177.791 159.211 177.774 159.332 177.757 159.471C177.64 160.408 177.622 161.393 177.768 162.329C178.077 164.311 179.074 165.695 180.935 166.038C182.881 166.397 184.587 165.529 186.018 163.914C186.428 163.451 186.786 162.957 187.09 162.463C187.275 162.165 187.402 161.929 187.471 161.786C187.678 161.357 187.357 160.864 186.874 160.869C185.002 160.888 183.08 160.433 181.222 159.659C180.582 159.393 179.997 159.108 179.48 158.823L179.24 158.689C179.06 158.585 178.93 158.505 178.853 158.455C178.467 158.202 177.942 158.415 177.851 158.864ZM178.993 160.256L179.011 160.034L178.842 159.944C179.399 160.251 180.027 160.556 180.713 160.842L181.09 160.995C182.468 161.536 183.88 161.913 185.296 162.071L185.768 162.114L185.629 162.317C185.446 162.575 185.247 162.828 185.033 163.07C183.875 164.377 182.582 165.035 181.175 164.776C179.953 164.55 179.293 163.633 179.059 162.135C178.965 161.532 178.951 160.89 178.993 160.256Z" fill="#F56D7E"/>
<path d="M183.642 158.43C183.858 158.426 184.215 158.38 184.716 158.258C185.484 158.072 186.384 157.751 187.418 157.267L187.601 157.18L187.448 156.897C186.744 155.566 186.265 154.268 185.976 153.026L185.903 152.688C185.705 151.729 185.642 150.923 185.661 150.304L185.677 150.016C185.678 150.003 185.679 149.991 185.68 149.982C185.71 149.717 185.953 149.527 186.222 149.557C186.464 149.584 186.644 149.779 186.656 150.011L186.647 150.18C186.614 150.739 186.663 151.526 186.863 152.497C187.165 153.965 187.755 155.529 188.703 157.145C188.843 157.383 188.752 157.688 188.503 157.814C187.131 158.507 185.948 158.951 184.951 159.193C184.373 159.333 183.937 159.389 183.641 159.393L183.509 159.391C183.239 159.375 183.034 159.146 183.051 158.881C183.066 158.642 183.256 158.454 183.49 158.431L183.568 158.429L183.642 158.43Z" fill="#DD936F"/>
<path d="M176.192 146.11C178.19 146.28 179.464 148.732 179.22 151.506C179.19 151.846 178.885 152.099 178.539 152.069C178.193 152.04 177.936 151.74 177.966 151.399C178.157 149.22 177.233 147.441 176.084 147.343C174.936 147.247 173.716 148.844 173.524 151.022C173.494 151.363 173.188 151.615 172.842 151.586C172.496 151.556 172.239 151.256 172.269 150.915C172.508 148.212 174.112 146.052 176.042 146.101L176.192 146.11Z" fill="#1443BD"/>
<path d="M176.192 146.11C178.19 146.28 179.464 148.732 179.22 151.506C179.19 151.846 178.885 152.099 178.539 152.069C178.193 152.04 177.936 151.74 177.966 151.399C178.157 149.22 177.233 147.441 176.084 147.343C174.936 147.247 173.716 148.844 173.524 151.022C173.494 151.363 173.188 151.615 172.842 151.586C172.496 151.556 172.239 151.256 172.269 150.915C172.508 148.212 174.112 146.052 176.042 146.101L176.192 146.11Z" fill="black" fill-opacity="0.5"/>
<path d="M193.104 149.064C195.101 149.233 196.375 151.686 196.132 154.459C196.102 154.8 195.797 155.052 195.451 155.023C195.104 154.993 194.848 154.693 194.878 154.353C195.069 152.174 194.145 150.395 192.996 150.298C191.847 150.201 190.628 151.797 190.436 153.976C190.407 154.316 190.102 154.569 189.755 154.539C189.409 154.51 189.152 154.21 189.182 153.869C189.419 151.165 191.023 149.006 192.955 149.056L193.104 149.064Z" fill="#1443BD"/>
<path d="M193.104 149.064C195.101 149.233 196.375 151.686 196.132 154.459C196.102 154.8 195.797 155.052 195.451 155.023C195.104 154.993 194.848 154.693 194.878 154.353C195.069 152.174 194.145 150.395 192.996 150.298C191.847 150.201 190.628 151.797 190.436 153.976C190.407 154.316 190.102 154.569 189.755 154.539C189.409 154.51 189.152 154.21 189.182 153.869C189.419 151.165 191.023 149.006 192.955 149.056L193.104 149.064Z" fill="black" fill-opacity="0.5"/>
<path d="M171.43 140.304C174.413 138.806 177.256 138.751 179.708 139.564C180.293 139.757 180.716 139.955 180.957 140.096C181.271 140.28 181.374 140.68 181.187 140.989C181 141.298 180.593 141.399 180.279 141.215L180.217 141.181C180.175 141.159 180.116 141.13 180.042 141.096C179.826 140.995 179.573 140.894 179.285 140.798C177.15 140.091 174.672 140.138 172.033 141.464C171.707 141.628 171.308 141.501 171.142 141.18C170.975 140.86 171.104 140.467 171.43 140.304Z" fill="#1443BD"/>
<path d="M171.43 140.304C174.413 138.806 177.256 138.751 179.708 139.564C180.293 139.757 180.716 139.955 180.957 140.096C181.271 140.28 181.374 140.68 181.187 140.989C181 141.298 180.593 141.399 180.279 141.215L180.217 141.181C180.175 141.159 180.116 141.13 180.042 141.096C179.826 140.995 179.573 140.894 179.285 140.798C177.15 140.091 174.672 140.138 172.033 141.464C171.707 141.628 171.308 141.501 171.142 141.18C170.975 140.86 171.104 140.467 171.43 140.304Z" fill="black" fill-opacity="0.5"/>
<path d="M171.886 173.682C172.035 173.46 172.339 173.399 172.565 173.546C175.424 175.406 178.464 176.477 181.582 176.783C181.852 176.81 182.048 177.046 182.021 177.311C181.994 177.575 181.754 177.768 181.485 177.742C178.207 177.42 175.015 176.295 172.024 174.35C171.799 174.203 171.737 173.904 171.886 173.682Z" fill="#DD936F"/>
<path fill-rule="evenodd" clip-rule="evenodd" d="M235.511 278.645L236.321 278.208C242.37 274.938 244.579 267.467 241.255 261.52L210.464 206.428C207.138 200.479 199.541 198.308 193.493 201.577L192.683 202.014C186.635 205.284 184.426 212.753 187.75 218.702L218.542 273.794C221.867 279.741 229.463 281.913 235.511 278.645Z" fill="#FFC999"/>
<path fill-rule="evenodd" clip-rule="evenodd" d="M200.77 241.997L187.533 218.313C184.343 212.604 186.842 205.171 193.088 201.795C199.335 198.421 207.056 200.33 210.247 206.039L223.357 229.498L200.77 241.997Z" fill="#1443BD"/>
<path fill-rule="evenodd" clip-rule="evenodd" d="M200.77 241.997L187.533 218.313C184.343 212.604 186.842 205.171 193.088 201.795C199.335 198.421 207.056 200.33 210.247 206.039L223.357 229.498L200.77 241.997Z" fill="white" fill-opacity="0.35"/>
<path d="M192.577 201.645C192.761 201.545 192.993 201.611 193.094 201.792C193.195 201.974 193.128 202.201 192.944 202.301C186.961 205.534 184.52 212.589 187.413 218.079L187.539 218.31L200.59 241.662L222.843 229.35C223.005 229.259 223.207 229.3 223.322 229.436L223.361 229.492C223.453 229.652 223.411 229.85 223.273 229.964L223.216 230.002L200.629 242.5C200.465 242.591 200.262 242.55 200.148 242.411L200.109 242.355L186.872 218.671C183.577 212.775 186.152 205.118 192.577 201.645Z" fill="#2A84C6"/>
<path d="M192.577 201.645C192.761 201.545 192.993 201.611 193.094 201.792C193.195 201.974 193.128 202.201 192.944 202.301C186.961 205.534 184.52 212.589 187.413 218.079L187.539 218.31L200.59 241.662L222.843 229.35C223.005 229.259 223.207 229.3 223.322 229.436L223.361 229.492C223.453 229.652 223.411 229.85 223.273 229.964L223.216 230.002L200.629 242.5C200.465 242.591 200.262 242.55 200.148 242.411L200.109 242.355L186.872 218.671C183.577 212.775 186.152 205.118 192.577 201.645Z" fill="black" fill-opacity="0.2"/>
<path fill-rule="evenodd" clip-rule="evenodd" d="M212.861 461.133C217.944 463.054 223.679 460.645 225.854 455.675L272.373 349.372C275.724 341.713 271.994 332.875 264.162 329.914C256.331 326.955 247.54 331.059 244.811 338.953L206.932 448.522C205.162 453.645 207.778 459.211 212.861 461.133Z" fill="#FFC999"/>
<path fill-rule="evenodd" clip-rule="evenodd" d="M144.595 326.592C147.866 316.878 156.925 311.163 164.656 313.935L247.77 343.753C254.172 346.05 257.12 354.303 254.411 362.347C251.704 370.391 244.327 375.284 237.798 373.369L153.01 348.52C145.125 346.208 141.324 336.305 144.595 326.592Z" fill="#FFC999"/>
<path fill-rule="evenodd" clip-rule="evenodd" d="M222.099 465.343L203.268 458.879L212.604 429.228L234.224 436.647L222.099 465.343Z" fill="#1443BD"/>
<path fill-rule="evenodd" clip-rule="evenodd" d="M222.099 465.343L203.268 458.879L212.604 429.228L234.224 436.647L222.099 465.343Z" fill="white" fill-opacity="0.35"/>
<path d="M211.341 435.349C211.45 435.041 211.773 434.866 212.089 434.93L212.175 434.953L232.133 441.804C232.475 441.921 232.655 442.288 232.536 442.624C232.426 442.932 232.104 443.106 231.787 443.043L231.702 443.02L211.743 436.169C211.402 436.052 211.222 435.685 211.341 435.349Z" fill="#2A84C6"/>
<path d="M211.341 435.349C211.45 435.041 211.773 434.866 212.089 434.93L212.175 434.953L232.133 441.804C232.475 441.921 232.655 442.288 232.536 442.624C232.426 442.932 232.104 443.106 231.787 443.043L231.702 443.02L211.743 436.169C211.402 436.052 211.222 435.685 211.341 435.349Z" fill="white" fill-opacity="0.85"/>
<path fill-rule="evenodd" clip-rule="evenodd" d="M226.234 458.841L205.531 451.735L191.248 488.667L237.898 504.677L240.044 498.991C240.825 496.898 239.97 494.555 238.011 493.431L226.9 485.6L221.801 479.854C220.265 478.124 219.82 475.71 220.648 473.563C222.427 468.945 225.433 461.112 226.234 458.841Z" fill="#2A84C6"/>
<path fill-rule="evenodd" clip-rule="evenodd" d="M226.234 458.841L205.531 451.735L191.248 488.667L237.898 504.677L240.044 498.991C240.825 496.898 239.97 494.555 238.011 493.431L226.9 485.6L221.801 479.854C220.265 478.124 219.82 475.71 220.648 473.563C222.427 468.945 225.433 461.112 226.234 458.841Z" fill="black" fill-opacity="0.2"/>
<path fill-rule="evenodd" clip-rule="evenodd" d="M191.267 490.037L237.774 505.998C238.216 506.15 238.698 505.922 238.85 505.487L240.672 500.359C240.826 499.926 240.594 499.451 240.152 499.3L193.645 483.339C193.204 483.188 192.722 483.416 192.568 483.85L190.748 488.979C190.594 489.412 190.827 489.886 191.267 490.037Z" fill="#2A84C6"/>
<path fill-rule="evenodd" clip-rule="evenodd" d="M191.267 490.037L237.774 505.998C238.216 506.15 238.698 505.922 238.85 505.487L240.672 500.359C240.826 499.926 240.594 499.451 240.152 499.3L193.645 483.339C193.204 483.188 192.722 483.416 192.568 483.85L190.748 488.979C190.594 489.412 190.827 489.886 191.267 490.037Z" fill="white" fill-opacity="0.85"/>
<path fill-rule="evenodd" clip-rule="evenodd" d="M240.152 499.3C241.299 496.067 239.892 492.493 236.83 490.865L226.906 485.583L223.347 493.406L240.152 499.3Z" fill="#2A84C6"/>
<path fill-rule="evenodd" clip-rule="evenodd" d="M240.152 499.3C241.299 496.067 239.892 492.493 236.83 490.865L226.906 485.583L223.347 493.406L240.152 499.3Z" fill="white" fill-opacity="0.85"/>
<path d="M193.328 483.229C193.381 483.079 193.534 482.991 193.689 483.011L193.755 483.027L240.262 498.988C240.437 499.048 240.529 499.236 240.468 499.408C240.415 499.558 240.262 499.646 240.107 499.626L240.041 499.61L193.534 483.649C193.359 483.589 193.267 483.401 193.328 483.229Z" fill="#2A84C6"/>
<path d="M193.328 483.229C193.381 483.079 193.534 482.991 193.689 483.011L193.755 483.027L240.262 498.988C240.437 499.048 240.529 499.236 240.468 499.408C240.415 499.558 240.262 499.646 240.107 499.626L240.041 499.61L193.534 483.649C193.359 483.589 193.267 483.401 193.328 483.229Z" fill="white" fill-opacity="0.5"/>
<path d="M216.078 472.005C217.617 471.532 219.22 471.427 220.63 471.528L220.812 471.542C220.891 471.55 220.953 471.556 220.995 471.562C221.363 471.608 221.622 471.939 221.574 472.3C221.527 472.661 221.191 472.916 220.824 472.869L220.533 472.843C219.381 472.761 218.071 472.833 216.819 473.166L216.479 473.264L216.274 473.331L216.434 473.414C216.66 473.533 216.899 473.663 217.148 473.804L217.401 473.948L217.878 474.226C217.959 474.274 218.04 474.323 218.123 474.373C218.765 474.759 219.419 475.173 220.05 475.586L220.879 476.14C221.362 476.47 221.208 477.208 220.632 477.326L220.479 477.362C220.431 477.374 220.376 477.389 220.312 477.406C220.038 477.482 219.728 477.58 219.39 477.703C218.906 477.88 218.415 478.09 217.926 478.334L217.744 478.427L217.935 478.496L218.298 478.634C219.066 478.934 219.871 479.304 220.7 479.727C221.511 480.141 222.302 480.584 223.04 481.027L223.579 481.357L223.998 481.623C224.579 482.006 224.248 482.877 223.587 482.83L223.345 482.8C222.358 482.7 221.189 482.857 220.086 483.474C219.893 483.583 219.705 483.704 219.523 483.839C219.228 484.058 218.807 484.001 218.584 483.71C218.361 483.42 218.419 483.006 218.715 482.787C218.943 482.617 219.179 482.465 219.423 482.328C220.027 481.99 220.642 481.763 221.246 481.625L221.382 481.596L221.237 481.514C221.048 481.409 220.857 481.305 220.665 481.202L220.082 480.897C219.29 480.493 218.524 480.142 217.802 479.859C217.128 479.595 216.506 479.396 215.946 479.269C215.373 479.14 215.234 478.401 215.722 478.079C216.641 477.472 217.589 476.99 218.524 476.619L218.954 476.456L218.683 476.28C218.473 476.146 218.262 476.013 218.052 475.883L217.423 475.497L216.953 475.218L216.724 475.086C215.767 474.535 214.977 474.141 214.434 473.955C213.895 473.77 213.823 473.05 214.315 472.765C214.856 472.451 215.447 472.2 216.078 472.005Z" fill="#2A84C6"/>
<path d="M216.078 472.005C217.617 471.532 219.22 471.427 220.63 471.528L220.812 471.542C220.891 471.55 220.953 471.556 220.995 471.562C221.363 471.608 221.622 471.939 221.574 472.3C221.527 472.661 221.191 472.916 220.824 472.869L220.533 472.843C219.381 472.761 218.071 472.833 216.819 473.166L216.479 473.264L216.274 473.331L216.434 473.414C216.66 473.533 216.899 473.663 217.148 473.804L217.401 473.948L217.878 474.226C217.959 474.274 218.04 474.323 218.123 474.373C218.765 474.759 219.419 475.173 220.05 475.586L220.879 476.14C221.362 476.47 221.208 477.208 220.632 477.326L220.479 477.362C220.431 477.374 220.376 477.389 220.312 477.406C220.038 477.482 219.728 477.58 219.39 477.703C218.906 477.88 218.415 478.09 217.926 478.334L217.744 478.427L217.935 478.496L218.298 478.634C219.066 478.934 219.871 479.304 220.7 479.727C221.511 480.141 222.302 480.584 223.04 481.027L223.579 481.357L223.998 481.623C224.579 482.006 224.248 482.877 223.587 482.83L223.345 482.8C222.358 482.7 221.189 482.857 220.086 483.474C219.893 483.583 219.705 483.704 219.523 483.839C219.228 484.058 218.807 484.001 218.584 483.71C218.361 483.42 218.419 483.006 218.715 482.787C218.943 482.617 219.179 482.465 219.423 482.328C220.027 481.99 220.642 481.763 221.246 481.625L221.382 481.596L221.237 481.514C221.048 481.409 220.857 481.305 220.665 481.202L220.082 480.897C219.29 480.493 218.524 480.142 217.802 479.859C217.128 479.595 216.506 479.396 215.946 479.269C215.373 479.14 215.234 478.401 215.722 478.079C216.641 477.472 217.589 476.99 218.524 476.619L218.954 476.456L218.683 476.28C218.473 476.146 218.262 476.013 218.052 475.883L217.423 475.497L216.953 475.218L216.724 475.086C215.767 474.535 214.977 474.141 214.434 473.955C213.895 473.77 213.823 473.05 214.315 472.765C214.856 472.451 215.447 472.2 216.078 472.005Z" fill="white" fill-opacity="0.85"/>
<path d="M214.33 464.715C210.683 464.852 207.884 466.125 206.372 468.84C205.301 470.765 205.751 472.159 207.518 472.579C208.751 472.873 210.629 472.696 213.064 472.155C214.733 471.784 216.582 471.259 218.5 470.637L219.689 470.243C220.752 469.882 221.619 469.567 222.194 469.348C222.347 469.314 222.666 469.205 222.994 469.037C223.499 468.779 223.869 468.456 224.023 468.002C224.233 467.383 223.953 466.77 223.279 466.229C223.221 466.182 223.155 466.145 223.085 466.12L222.761 466.011C222.655 465.976 222.532 465.937 222.391 465.894C221.849 465.729 221.244 465.564 220.589 465.409C218.472 464.911 216.337 464.639 214.33 464.715ZM214.381 466.033C216.25 465.962 218.269 466.219 220.277 466.692C220.902 466.839 221.479 466.996 221.993 467.154L222.516 467.321L222.574 467.371C222.73 467.512 222.755 467.571 222.751 467.584C222.733 467.636 222.6 467.752 222.375 467.867C222.153 467.981 221.922 468.06 221.784 468.095L221.178 468.319C220.514 468.561 219.681 468.855 218.712 469.178C216.606 469.878 214.571 470.469 212.769 470.869C210.525 471.368 208.806 471.529 207.833 471.298C207.001 471.1 206.87 470.693 207.549 469.473C208.799 467.228 211.161 466.154 214.381 466.033Z" fill="#2A84C6"/>
<path d="M214.33 464.715C210.683 464.852 207.884 466.125 206.372 468.84C205.301 470.765 205.751 472.159 207.518 472.579C208.751 472.873 210.629 472.696 213.064 472.155C214.733 471.784 216.582 471.259 218.5 470.637L219.689 470.243C220.752 469.882 221.619 469.567 222.194 469.348C222.347 469.314 222.666 469.205 222.994 469.037C223.499 468.779 223.869 468.456 224.023 468.002C224.233 467.383 223.953 466.77 223.279 466.229C223.221 466.182 223.155 466.145 223.085 466.12L222.761 466.011C222.655 465.976 222.532 465.937 222.391 465.894C221.849 465.729 221.244 465.564 220.589 465.409C218.472 464.911 216.337 464.639 214.33 464.715ZM214.381 466.033C216.25 465.962 218.269 466.219 220.277 466.692C220.902 466.839 221.479 466.996 221.993 467.154L222.516 467.321L222.574 467.371C222.73 467.512 222.755 467.571 222.751 467.584C222.733 467.636 222.6 467.752 222.375 467.867C222.153 467.981 221.922 468.06 221.784 468.095L221.178 468.319C220.514 468.561 219.681 468.855 218.712 469.178C216.606 469.878 214.571 470.469 212.769 470.869C210.525 471.368 208.806 471.529 207.833 471.298C207.001 471.1 206.87 470.693 207.549 469.473C208.799 467.228 211.161 466.154 214.381 466.033Z" fill="white" fill-opacity="0.85"/>
<path fill-rule="evenodd" clip-rule="evenodd" d="M334.281 462.549C339.348 460.588 341.919 455.001 340.107 449.892L301.331 340.626C298.539 332.755 289.714 328.719 281.907 331.742C274.099 334.763 270.443 343.632 273.856 351.263L321.245 457.195C323.46 462.147 329.215 464.511 334.281 462.549Z" fill="#FFC999"/>
<path fill-rule="evenodd" clip-rule="evenodd" d="M189.393 335.458C190.519 325.286 198.158 317.828 206.308 318.945L293.935 330.951C300.685 331.875 305.327 339.337 304.396 347.76C303.463 356.185 297.296 362.49 290.503 361.966L202.301 355.162C194.097 354.528 188.268 345.631 189.393 335.458Z" fill="#FFC999"/>
<path fill-rule="evenodd" clip-rule="evenodd" d="M343.983 459.513L325.661 467.264L312.163 439.204L333.197 430.306L343.983 459.513Z" fill="#1443BD"/>
<path fill-rule="evenodd" clip-rule="evenodd" d="M343.983 459.513L325.661 467.264L312.163 439.204L333.197 430.306L343.983 459.513Z" fill="white" fill-opacity="0.35"/>
<path d="M335.2 435.494C335.532 435.353 335.918 435.504 336.061 435.831C336.192 436.131 336.074 436.474 335.797 436.637L335.718 436.677L316.298 444.893C315.966 445.034 315.581 444.883 315.438 444.556C315.307 444.256 315.425 443.913 315.701 443.75L315.781 443.71L335.2 435.494Z" fill="#2A84C6"/>
<path d="M335.2 435.494C335.532 435.353 335.918 435.504 336.061 435.831C336.192 436.131 336.074 436.474 335.797 436.637L335.718 436.677L316.298 444.893C315.966 445.034 315.581 444.883 315.438 444.556C315.307 444.256 315.425 443.913 315.701 443.75L315.781 443.71L335.2 435.494Z" fill="white" fill-opacity="0.85"/>
<path fill-rule="evenodd" clip-rule="evenodd" d="M342.561 451.972L322.419 460.493L337.274 497.205L382.661 478.004L380.336 472.388C379.474 470.326 377.233 469.167 375.018 469.64L361.444 471.253L353.738 470.407C351.416 470.151 349.428 468.668 348.563 466.535C346.701 461.949 343.533 454.178 342.561 451.972Z" fill="#2A84C6"/>
<path fill-rule="evenodd" clip-rule="evenodd" d="M342.561 451.972L322.419 460.493L337.274 497.205L382.661 478.004L380.336 472.388C379.474 470.326 377.233 469.167 375.018 469.64L361.444 471.253L353.738 470.407C351.416 470.151 349.428 468.668 348.563 466.535C346.701 461.949 343.533 454.178 342.561 451.972Z" fill="black" fill-opacity="0.2"/>
<path fill-rule="evenodd" clip-rule="evenodd" d="M338.23 498.204L383.479 479.061C383.907 478.881 384.106 478.391 383.922 477.97L381.738 472.98C381.555 472.558 381.057 472.363 380.627 472.544L335.379 491.687C334.949 491.869 334.752 492.357 334.937 492.78L337.118 497.77C337.305 498.191 337.801 498.385 338.23 498.204Z" fill="#2A84C6"/>
<path fill-rule="evenodd" clip-rule="evenodd" d="M338.23 498.204L383.479 479.061C383.907 478.881 384.106 478.391 383.922 477.97L381.738 472.98C381.555 472.558 381.057 472.363 380.627 472.544L335.379 491.687C334.949 491.869 334.752 492.357 334.937 492.78L337.118 497.77C337.305 498.191 337.801 498.385 338.23 498.204Z" fill="white" fill-opacity="0.85"/>
<path fill-rule="evenodd" clip-rule="evenodd" d="M380.628 472.544C379.252 469.399 375.758 467.701 372.381 468.535L361.437 471.236L364.191 479.367L380.628 472.544Z" fill="#2A84C6"/>
<path fill-rule="evenodd" clip-rule="evenodd" d="M380.628 472.544C379.252 469.399 375.758 467.701 372.381 468.535L361.437 471.236L364.191 479.367L380.628 472.544Z" fill="white" fill-opacity="0.85"/>
<path d="M380.495 472.24C380.665 472.168 380.862 472.245 380.936 472.413C381 472.559 380.947 472.726 380.819 472.813L380.76 472.846L335.512 491.989C335.342 492.061 335.145 491.983 335.072 491.816C335.007 491.67 335.06 491.503 335.188 491.415L335.247 491.383L380.495 472.24Z" fill="#2A84C6"/>
<path d="M380.495 472.24C380.665 472.168 380.862 472.245 380.936 472.413C381 472.559 380.947 472.726 380.819 472.813L380.76 472.846L335.512 491.989C335.342 492.061 335.145 491.983 335.072 491.816C335.007 491.67 335.06 491.503 335.188 491.415L335.247 491.383L380.495 472.24Z" fill="white" fill-opacity="0.5"/>
<path d="M347.445 464.829C347.747 464.619 348.165 464.691 348.379 464.988C348.592 465.286 348.52 465.697 348.217 465.907L348.099 465.993C347.982 466.08 347.82 466.208 347.626 466.373C347.169 466.761 346.712 467.207 346.286 467.702C345.864 468.192 345.5 468.699 345.207 469.219L345.178 469.272L345.385 469.219C345.723 469.134 346.091 469.05 346.485 468.967L346.786 468.905C347.397 468.781 348.04 468.664 348.69 468.557L349.566 468.418L350.506 468.282C351.089 468.205 351.482 468.851 351.139 469.321L351.034 469.474C350.975 469.563 350.902 469.681 350.816 469.824C350.562 470.252 350.307 470.745 350.068 471.296C350.009 471.432 349.952 471.57 349.897 471.709L349.768 472.05L349.961 471.972C350.318 471.831 350.694 471.695 351.089 471.564L351.491 471.434C352.604 471.084 353.793 470.788 354.981 470.543C355.188 470.501 355.389 470.461 355.58 470.425L356.44 470.272C356.495 470.263 356.539 470.256 356.572 470.251C357.262 470.147 357.617 471.005 357.102 471.411L356.952 471.513C356.888 471.558 356.8 471.625 356.693 471.713C356.417 471.94 356.14 472.215 355.882 472.536C355.345 473.203 354.963 473.976 354.798 474.858C354.731 475.216 354.381 475.453 354.017 475.387C353.653 475.321 353.412 474.978 353.479 474.62C353.651 473.697 354.012 472.871 354.513 472.143L354.639 471.966L354.112 472.086C353.544 472.221 352.982 472.368 352.438 472.527L351.899 472.69C350.758 473.049 349.78 473.443 349.02 473.868C348.509 474.153 347.899 473.701 348.037 473.139C348.24 472.313 348.512 471.524 348.834 470.779C348.939 470.538 349.047 470.306 349.156 470.084L349.304 469.793L348.914 469.857C348.49 469.927 348.07 470.001 347.661 470.078L347.057 470.196L346.503 470.313C345.523 470.527 344.747 470.745 344.253 470.954C343.728 471.176 343.18 470.693 343.347 470.156C343.711 468.981 344.38 467.876 345.262 466.85C345.736 466.299 346.243 465.806 346.75 465.375L346.996 465.17C347.187 465.016 347.34 464.901 347.445 464.829Z" fill="#2A84C6"/>
<path d="M347.445 464.829C347.747 464.619 348.165 464.691 348.379 464.988C348.592 465.286 348.52 465.697 348.217 465.907L348.099 465.993C347.982 466.08 347.82 466.208 347.626 466.373C347.169 466.761 346.712 467.207 346.286 467.702C345.864 468.192 345.5 468.699 345.207 469.219L345.178 469.272L345.385 469.219C345.723 469.134 346.091 469.05 346.485 468.967L346.786 468.905C347.397 468.781 348.04 468.664 348.69 468.557L349.566 468.418L350.506 468.282C351.089 468.205 351.482 468.851 351.139 469.321L351.034 469.474C350.975 469.563 350.902 469.681 350.816 469.824C350.562 470.252 350.307 470.745 350.068 471.296C350.009 471.432 349.952 471.57 349.897 471.709L349.768 472.05L349.961 471.972C350.318 471.831 350.694 471.695 351.089 471.564L351.491 471.434C352.604 471.084 353.793 470.788 354.981 470.543C355.188 470.501 355.389 470.461 355.58 470.425L356.44 470.272C356.495 470.263 356.539 470.256 356.572 470.251C357.262 470.147 357.617 471.005 357.102 471.411L356.952 471.513C356.888 471.558 356.8 471.625 356.693 471.713C356.417 471.94 356.14 472.215 355.882 472.536C355.345 473.203 354.963 473.976 354.798 474.858C354.731 475.216 354.381 475.453 354.017 475.387C353.653 475.321 353.412 474.978 353.479 474.62C353.651 473.697 354.012 472.871 354.513 472.143L354.639 471.966L354.112 472.086C353.544 472.221 352.982 472.368 352.438 472.527L351.899 472.69C350.758 473.049 349.78 473.443 349.02 473.868C348.509 474.153 347.899 473.701 348.037 473.139C348.24 472.313 348.512 471.524 348.834 470.779C348.939 470.538 349.047 470.306 349.156 470.084L349.304 469.793L348.914 469.857C348.49 469.927 348.07 470.001 347.661 470.078L347.057 470.196L346.503 470.313C345.523 470.527 344.747 470.745 344.253 470.954C343.728 471.176 343.18 470.693 343.347 470.156C343.711 468.981 344.38 467.876 345.262 466.85C345.736 466.299 346.243 465.806 346.75 465.375L346.996 465.17C347.187 465.016 347.34 464.901 347.445 464.829Z" fill="white" fill-opacity="0.85"/>
<path d="M345.46 459.382C345.386 459.386 345.312 459.402 345.243 459.43L344.882 459.586L344.778 459.633C344.418 459.796 344.017 459.988 343.586 460.209C342.356 460.841 341.125 461.578 339.973 462.416C335.956 465.339 333.843 468.737 334.794 472.541C335.27 474.445 336.349 475.263 337.774 474.735C338.786 474.36 339.91 473.298 341.185 471.65C341.878 470.755 342.602 469.699 343.348 468.516C344.192 467.177 345.02 465.745 345.798 464.314L346.112 463.73C346.263 463.448 346.404 463.18 346.534 462.929L346.805 462.4L346.851 462.33C346.901 462.248 346.976 462.11 347.05 461.951C347.168 461.699 347.258 461.448 347.308 461.2C347.531 460.096 346.874 459.301 345.46 459.382ZM345.993 460.944C345.966 461.077 345.91 461.234 345.833 461.398L345.746 461.571C345.704 461.649 345.667 461.71 345.641 461.75L345.339 462.331C345.126 462.741 344.884 463.199 344.616 463.692C343.85 465.101 343.036 466.509 342.208 467.821C341.483 468.972 340.782 469.993 340.118 470.851C338.987 472.313 338.007 473.24 337.301 473.501C336.746 473.707 336.401 473.445 336.096 472.226C335.307 469.067 337.14 466.117 340.771 463.476C341.862 462.683 343.035 461.98 344.207 461.378C344.535 461.21 344.845 461.059 345.129 460.927L345.652 460.691L345.717 460.688C346.051 460.673 346.042 460.702 345.993 460.944Z" fill="#2A84C6"/>
<path d="M345.46 459.382C345.386 459.386 345.312 459.402 345.243 459.43L344.882 459.586L344.778 459.633C344.418 459.796 344.017 459.988 343.586 460.209C342.356 460.841 341.125 461.578 339.973 462.416C335.956 465.339 333.843 468.737 334.794 472.541C335.27 474.445 336.349 475.263 337.774 474.735C338.786 474.36 339.91 473.298 341.185 471.65C341.878 470.755 342.602 469.699 343.348 468.516C344.192 467.177 345.02 465.745 345.798 464.314L346.112 463.73C346.263 463.448 346.404 463.18 346.534 462.929L346.805 462.4L346.851 462.33C346.901 462.248 346.976 462.11 347.05 461.951C347.168 461.699 347.258 461.448 347.308 461.2C347.531 460.096 346.874 459.301 345.46 459.382ZM345.993 460.944C345.966 461.077 345.91 461.234 345.833 461.398L345.746 461.571C345.704 461.649 345.667 461.71 345.641 461.75L345.339 462.331C345.126 462.741 344.884 463.199 344.616 463.692C343.85 465.101 343.036 466.509 342.208 467.821C341.483 468.972 340.782 469.993 340.118 470.851C338.987 472.313 338.007 473.24 337.301 473.501C336.746 473.707 336.401 473.445 336.096 472.226C335.307 469.067 337.14 466.117 340.771 463.476C341.862 462.683 343.035 461.98 344.207 461.378C344.535 461.21 344.845 461.059 345.129 460.927L345.652 460.691L345.717 460.688C346.051 460.673 346.042 460.702 345.993 460.944Z" fill="white" fill-opacity="0.85"/>
<path fill-rule="evenodd" clip-rule="evenodd" d="M203.547 216.155C205.879 221.875 210.234 231.735 210.518 238.126C210.979 248.484 203.768 255.828 203.768 255.828C203.768 255.828 203.895 257.994 205.061 279.537C173.516 283.423 150.755 280.454 150.755 280.454L151.618 269.613L147.374 252.628C147.374 252.628 147.08 246.082 141.434 231.868C137.507 221.986 139.118 210.403 140.036 204.023C140.427 201.289 138.027 197.764 140.765 197.147C150.325 194.995 155.173 196.167 155.173 196.167L156.367 190.093C156.572 189.053 157.523 188.318 158.6 188.37L181.59 189.479C182.577 189.526 183.407 190.226 183.605 191.178L184.95 196.499L200.432 199.464C202.645 200.003 204.24 201.899 204.361 204.137L203.547 216.155Z" fill="#1443BD"/>
<path fill-rule="evenodd" clip-rule="evenodd" d="M203.547 216.155C205.879 221.875 210.234 231.735 210.518 238.126C210.979 248.484 203.768 255.828 203.768 255.828C203.768 255.828 203.895 257.994 205.061 279.537C173.516 283.423 150.755 280.454 150.755 280.454L151.618 269.613L147.374 252.628C147.374 252.628 147.08 246.082 141.434 231.868C137.507 221.986 139.118 210.403 140.036 204.023C140.427 201.289 138.027 197.764 140.765 197.147C150.325 194.995 155.173 196.167 155.173 196.167L156.367 190.093C156.572 189.053 157.523 188.318 158.6 188.37L181.59 189.479C182.577 189.526 183.407 190.226 183.605 191.178L184.95 196.499L200.432 199.464C202.645 200.003 204.24 201.899 204.361 204.137L203.547 216.155Z" fill="white" fill-opacity="0.35"/>
<path d="M161.616 196.41L182.318 197.409C182.536 197.419 182.704 197.601 182.693 197.815C182.684 198.006 182.537 198.157 182.351 198.181L182.28 198.184L161.578 197.185C161.36 197.175 161.192 196.993 161.203 196.779C161.212 196.588 161.36 196.437 161.545 196.413L161.616 196.41Z" fill="#2A84C6"/>
<path d="M161.616 196.41L182.318 197.409C182.536 197.419 182.704 197.601 182.693 197.815C182.684 198.006 182.537 198.157 182.351 198.181L182.28 198.184L161.578 197.185C161.36 197.175 161.192 196.993 161.203 196.779C161.212 196.588 161.36 196.437 161.545 196.413L161.616 196.41Z" fill="black" fill-opacity="0.2"/>
<path d="M154.695 194.43C154.899 194.286 155.176 194.313 155.348 194.483L155.401 194.545L175.902 222.691L185.644 197.828C185.734 197.597 185.981 197.47 186.219 197.519L186.299 197.542C186.534 197.631 186.662 197.873 186.613 198.108L186.589 198.186L176.511 223.912C176.375 224.257 175.927 224.335 175.677 224.082L175.626 224.023L154.578 195.125C154.415 194.901 154.467 194.59 154.695 194.43Z" fill="#2A84C6"/>
<path d="M154.695 194.43C154.899 194.286 155.176 194.313 155.348 194.483L155.401 194.545L175.902 222.691L185.644 197.828C185.734 197.597 185.981 197.47 186.219 197.519L186.299 197.542C186.534 197.631 186.662 197.873 186.613 198.108L186.589 198.186L176.511 223.912C176.375 224.257 175.927 224.335 175.677 224.082L175.626 224.023L154.578 195.125C154.415 194.901 154.467 194.59 154.695 194.43Z" fill="white" fill-opacity="0.85"/>
<path fill-rule="evenodd" clip-rule="evenodd" d="M182.198 226.141C184.304 230.059 183.031 234.784 179.356 236.693C175.679 238.604 170.993 236.976 168.886 233.058C166.782 229.141 168.053 224.416 171.728 222.506C175.405 220.595 180.092 222.223 182.198 226.141Z" fill="#2A84C6"/>
<path fill-rule="evenodd" clip-rule="evenodd" d="M182.198 226.141C184.304 230.059 183.031 234.784 179.356 236.693C175.679 238.604 170.993 236.976 168.886 233.058C166.782 229.141 168.053 224.416 171.728 222.506C175.405 220.595 180.092 222.223 182.198 226.141Z" fill="white" fill-opacity="0.85"/>
<path fill-rule="evenodd" clip-rule="evenodd" d="M183.024 226.161C185.128 230.079 183.857 234.804 180.182 236.714C176.505 238.624 171.819 236.997 169.712 233.079C167.606 229.161 168.879 224.436 172.554 222.526C176.231 220.616 180.918 222.243 183.024 226.161Z" fill="#2A84C6"/>
<path fill-rule="evenodd" clip-rule="evenodd" d="M183.024 226.161C185.128 230.079 183.857 234.804 180.182 236.714C176.505 238.624 171.819 236.997 169.712 233.079C167.606 229.161 168.879 224.436 172.554 222.526C176.231 220.616 180.918 222.243 183.024 226.161Z" fill="white" fill-opacity="0.85"/>
<path fill-rule="evenodd" clip-rule="evenodd" d="M181.532 226.755C183.168 229.798 182.179 233.465 179.326 234.949C176.473 236.432 172.832 235.168 171.198 232.126C169.563 229.084 170.55 225.416 173.405 223.932C176.259 222.45 179.898 223.714 181.532 226.755Z" fill="#F56D7E"/>
<path d="M136.877 203.408C137.094 203.424 137.257 203.611 137.24 203.825L137.144 205.146L137.072 206.22C137.024 206.955 136.977 207.729 136.932 208.531C136.828 210.391 136.745 212.218 136.692 213.957L136.667 214.818C136.575 218.427 136.625 221.32 136.851 223.223C137.078 225.135 138.182 228.306 139.95 232.37L140.123 232.767C140.497 233.618 140.895 234.497 141.314 235.4C142.305 237.536 143.367 239.706 144.43 241.796L144.966 242.844L145.845 244.527L145.878 244.611L152.361 269.66L152.371 269.795L151.328 280.04L152.518 280.145L153.409 280.217C154.482 280.301 155.677 280.384 156.984 280.463C171.393 281.329 187.542 281.116 203.543 279.083L204.438 278.966L204.427 278.17C204.39 276.503 204.257 273.244 204.052 268.823L203.866 264.892L203.457 256.696C203.453 256.617 203.474 256.539 203.516 256.472L203.796 256.013L204.077 255.539C204.223 255.289 204.378 255.02 204.539 254.733C205.31 253.369 206.08 251.892 206.798 250.357C207.775 248.27 208.578 246.24 209.147 244.333C209.669 242.579 209.98 240.973 210.052 239.546C210.235 235.879 209.893 233.02 208.961 230.076C208.47 228.524 207.812 226.921 206.845 224.875L206.438 224.027C205.957 223.044 205.056 221.236 204.316 219.757L203.138 217.404L203.098 217.229L203.171 210.863C203.174 210.649 203.353 210.477 203.571 210.48C203.764 210.482 203.924 210.621 203.955 210.802L203.961 210.872L203.888 217.145L206.915 223.212C207.079 223.545 207.217 223.828 207.318 224.037L207.362 224.129C208.452 226.406 209.178 228.15 209.715 229.845C210.675 232.879 211.028 235.828 210.841 239.584C210.766 241.078 210.443 242.743 209.904 244.551C209.324 246.499 208.507 248.562 207.516 250.681C206.892 252.014 206.231 253.302 205.564 254.512L205.23 255.11C205.066 255.4 204.909 255.673 204.761 255.926L204.352 256.613L204.252 256.776L204.399 259.674C204.486 261.391 204.572 263.137 204.655 264.855L205.063 273.799C205.19 276.854 205.248 278.788 205.221 279.326C205.212 279.513 205.068 279.667 204.879 279.692C188.419 281.882 171.762 282.129 156.935 281.238L155.839 281.169C154.77 281.1 153.786 281.028 152.891 280.955L151.473 280.833L150.854 280.774C150.662 280.754 150.517 280.602 150.502 280.419L150.503 280.349L151.578 269.786L145.124 244.847L144.754 244.144C144.443 243.549 144.097 242.877 143.723 242.143C142.657 240.045 141.591 237.868 140.595 235.722C140.28 235.042 139.976 234.374 139.685 233.722L139.398 233.074C137.499 228.751 136.313 225.387 136.067 223.313C135.836 221.364 135.785 218.442 135.878 214.799C135.922 213.084 135.996 211.272 136.093 209.418L136.143 208.488C136.189 207.684 136.236 206.908 136.284 206.17L136.453 203.765C136.469 203.551 136.659 203.391 136.877 203.408Z" fill="#2A84C6"/>
<path d="M136.877 203.408C137.094 203.424 137.257 203.611 137.24 203.825L137.144 205.146L137.072 206.22C137.024 206.955 136.977 207.729 136.932 208.531C136.828 210.391 136.745 212.218 136.692 213.957L136.667 214.818C136.575 218.427 136.625 221.32 136.851 223.223C137.078 225.135 138.182 228.306 139.95 232.37L140.123 232.767C140.497 233.618 140.895 234.497 141.314 235.4C142.305 237.536 143.367 239.706 144.43 241.796L144.966 242.844L145.845 244.527L145.878 244.611L152.361 269.66L152.371 269.795L151.328 280.04L152.518 280.145L153.409 280.217C154.482 280.301 155.677 280.384 156.984 280.463C171.393 281.329 187.542 281.116 203.543 279.083L204.438 278.966L204.427 278.17C204.39 276.503 204.257 273.244 204.052 268.823L203.866 264.892L203.457 256.696C203.453 256.617 203.474 256.539 203.516 256.472L203.796 256.013L204.077 255.539C204.223 255.289 204.378 255.02 204.539 254.733C205.31 253.369 206.08 251.892 206.798 250.357C207.775 248.27 208.578 246.24 209.147 244.333C209.669 242.579 209.98 240.973 210.052 239.546C210.235 235.879 209.893 233.02 208.961 230.076C208.47 228.524 207.812 226.921 206.845 224.875L206.438 224.027C205.957 223.044 205.056 221.236 204.316 219.757L203.138 217.404L203.098 217.229L203.171 210.863C203.174 210.649 203.353 210.477 203.571 210.48C203.764 210.482 203.924 210.621 203.955 210.802L203.961 210.872L203.888 217.145L206.915 223.212C207.079 223.545 207.217 223.828 207.318 224.037L207.362 224.129C208.452 226.406 209.178 228.15 209.715 229.845C210.675 232.879 211.028 235.828 210.841 239.584C210.766 241.078 210.443 242.743 209.904 244.551C209.324 246.499 208.507 248.562 207.516 250.681C206.892 252.014 206.231 253.302 205.564 254.512L205.23 255.11C205.066 255.4 204.909 255.673 204.761 255.926L204.352 256.613L204.252 256.776L204.399 259.674C204.486 261.391 204.572 263.137 204.655 264.855L205.063 273.799C205.19 276.854 205.248 278.788 205.221 279.326C205.212 279.513 205.068 279.667 204.879 279.692C188.419 281.882 171.762 282.129 156.935 281.238L155.839 281.169C154.77 281.1 153.786 281.028 152.891 280.955L151.473 280.833L150.854 280.774C150.662 280.754 150.517 280.602 150.502 280.419L150.503 280.349L151.578 269.786L145.124 244.847L144.754 244.144C144.443 243.549 144.097 242.877 143.723 242.143C142.657 240.045 141.591 237.868 140.595 235.722C140.28 235.042 139.976 234.374 139.685 233.722L139.398 233.074C137.499 228.751 136.313 225.387 136.067 223.313C135.836 221.364 135.785 218.442 135.878 214.799C135.922 213.084 135.996 211.272 136.093 209.418L136.143 208.488C136.189 207.684 136.236 206.908 136.284 206.17L136.453 203.765C136.469 203.551 136.659 203.391 136.877 203.408Z" fill="black" fill-opacity="0.2"/>
<path fill-rule="evenodd" clip-rule="evenodd" d="M206.141 285.855L204.128 279.078C204.128 279.078 178.418 280.92 154.253 280.911C153.083 283.681 152.853 288.933 152.853 288.933C154.796 287.198 179.432 290.758 206.141 285.855Z" fill="#2A84C6"/>
<path fill-rule="evenodd" clip-rule="evenodd" d="M206.141 285.855L204.128 279.078C204.128 279.078 178.418 280.92 154.253 280.911C153.083 283.681 152.853 288.933 152.853 288.933C154.796 287.198 179.432 290.758 206.141 285.855Z" fill="black" fill-opacity="0.2"/>
<path fill-rule="evenodd" clip-rule="evenodd" d="M286.38 317.376L214.15 297.183L207.158 286.183L153.107 288.265C153.107 288.265 118.38 351.658 159.485 365.532C192.127 374.367 201.193 375.273 201.193 375.273L214.027 392.631L272.373 365.013L315.003 338.642L286.38 317.376Z" fill="#2A84C6"/>
<path fill-rule="evenodd" clip-rule="evenodd" d="M286.38 317.376L214.15 297.183L207.158 286.183L153.107 288.265C153.107 288.265 118.38 351.658 159.485 365.532C192.127 374.367 201.193 375.273 201.193 375.273L214.027 392.631L272.373 365.013L315.003 338.642L286.38 317.376Z" fill="black" fill-opacity="0.2"/>
<path d="M178.993 290.381C179.189 290.258 179.441 290.294 179.594 290.455L179.646 290.521L188.168 303.609L249.142 341.282C249.201 341.318 249.25 341.366 249.288 341.423L249.321 341.482L260.217 364.994C260.326 365.227 260.221 365.503 259.983 365.609C259.77 365.705 259.521 365.631 259.395 365.445L259.358 365.379L248.52 341.995L187.575 304.34C187.536 304.316 187.501 304.286 187.47 304.252L187.429 304.198L178.85 291.023C178.71 290.806 178.774 290.519 178.993 290.381Z" fill="#1443BD"/>
<path d="M178.993 290.381C179.189 290.258 179.441 290.294 179.594 290.455L179.646 290.521L188.168 303.609L249.142 341.282C249.201 341.318 249.25 341.366 249.288 341.423L249.321 341.482L260.217 364.994C260.326 365.227 260.221 365.503 259.983 365.609C259.77 365.705 259.521 365.631 259.395 365.445L259.358 365.379L248.52 341.995L187.575 304.34C187.536 304.316 187.501 304.286 187.47 304.252L187.429 304.198L178.85 291.023C178.71 290.806 178.774 290.519 178.993 290.381Z" fill="black" fill-opacity="0.5"/>
<path d="M168.528 292.747C168.762 292.731 168.968 292.885 169.02 293.103L169.032 293.178L170.336 311.615L192.848 348.376L214.451 392.43C214.565 392.661 214.466 392.939 214.231 393.05C214.02 393.151 213.77 393.082 213.639 392.899L213.6 392.834L192.018 348.818L169.468 311.997C169.442 311.955 169.424 311.909 169.413 311.862L169.402 311.79L168.089 293.242C168.071 292.986 168.267 292.765 168.528 292.747Z" fill="#1443BD"/>
<path d="M168.528 292.747C168.762 292.731 168.968 292.885 169.02 293.103L169.032 293.178L170.336 311.615L192.848 348.376L214.451 392.43C214.565 392.661 214.466 392.939 214.231 393.05C214.02 393.151 213.77 393.082 213.639 392.899L213.6 392.834L192.018 348.818L169.468 311.997C169.442 311.955 169.424 311.909 169.413 311.862L169.402 311.79L168.089 293.242C168.071 292.986 168.267 292.765 168.528 292.747Z" fill="black" fill-opacity="0.5"/>
<path d="M159.151 293.905L159.228 293.914C159.458 293.958 159.616 294.16 159.609 294.384L159.6 294.459L154.516 319.934L177.383 367.155C177.484 367.363 177.413 367.609 177.226 367.736L177.16 367.774C176.948 367.873 176.698 367.804 176.569 367.62L176.53 367.554L153.597 320.196C153.564 320.128 153.549 320.054 153.551 319.98L153.56 319.906L158.673 294.28C158.718 294.054 158.924 293.898 159.151 293.905Z" fill="#1443BD"/>
<path d="M159.151 293.905L159.228 293.914C159.458 293.958 159.616 294.16 159.609 294.384L159.6 294.459L154.516 319.934L177.383 367.155C177.484 367.363 177.413 367.609 177.226 367.736L177.16 367.774C176.948 367.873 176.698 367.804 176.569 367.62L176.53 367.554L153.597 320.196C153.564 320.128 153.549 320.054 153.551 319.98L153.56 319.906L158.673 294.28C158.718 294.054 158.924 293.898 159.151 293.905Z" fill="black" fill-opacity="0.5"/>
<path d="M206.671 285.49C206.808 285.485 206.94 285.538 207.033 285.633L207.084 285.695L215.143 297.469L286.506 316.929L286.665 317.006L315.287 338.272C315.529 338.452 315.534 338.799 315.318 338.988L315.254 339.036L272.624 365.407C272.403 365.544 272.112 365.478 271.973 365.261C271.849 365.068 271.888 364.82 272.053 364.671L272.121 364.621L314.171 338.608L286.166 317.8L214.723 298.32C214.642 298.298 214.569 298.255 214.511 298.196L214.458 298.132L206.447 286.43L153.127 288.73C152.892 288.74 152.69 288.58 152.644 288.361L152.634 288.286C152.624 288.056 152.787 287.857 153.009 287.811L153.086 287.802L206.671 285.49Z" fill="#1443BD"/>
<path d="M206.671 285.49C206.808 285.485 206.94 285.538 207.033 285.633L207.084 285.695L215.143 297.469L286.506 316.929L286.665 317.006L315.287 338.272C315.529 338.452 315.534 338.799 315.318 338.988L315.254 339.036L272.624 365.407C272.403 365.544 272.112 365.478 271.973 365.261C271.849 365.068 271.888 364.82 272.053 364.671L272.121 364.621L314.171 338.608L286.166 317.8L214.723 298.32C214.642 298.298 214.569 298.255 214.511 298.196L214.458 298.132L206.447 286.43L153.127 288.73C152.892 288.74 152.69 288.58 152.644 288.361L152.634 288.286C152.624 288.056 152.787 287.857 153.009 287.811L153.086 287.802L206.671 285.49Z" fill="black" fill-opacity="0.5"/>
<path d="M179.242 307.332C179.44 307.213 179.692 307.254 179.841 307.418L179.892 307.485L190.35 324.244L213.44 344.97C213.612 345.124 213.642 345.373 213.522 345.56L213.471 345.627C213.314 345.795 213.061 345.824 212.871 345.707L212.803 345.657L189.665 324.887L189.581 324.787L179.087 307.971C178.95 307.753 179.02 307.467 179.242 307.332Z" fill="#1443BD"/>
<path d="M179.242 307.332C179.44 307.213 179.692 307.254 179.841 307.418L179.892 307.485L190.35 324.244L213.44 344.97C213.612 345.124 213.642 345.373 213.522 345.56L213.471 345.627C213.314 345.795 213.061 345.824 212.871 345.707L212.803 345.657L189.665 324.887L189.581 324.787L179.087 307.971C178.95 307.753 179.02 307.467 179.242 307.332Z" fill="black" fill-opacity="0.5"/>
<path d="M217.364 314.386C217.441 314.167 217.666 314.041 217.89 314.078L217.965 314.097L254.575 326.461L284.638 342.551C284.867 342.673 284.952 342.956 284.827 343.181C284.715 343.384 284.471 343.471 284.256 343.397L284.186 343.367L254.196 327.309L217.658 314.976C217.411 314.893 217.28 314.628 217.364 314.386Z" fill="#1443BD"/>
<path d="M217.364 314.386C217.441 314.167 217.666 314.041 217.89 314.078L217.965 314.097L254.575 326.461L284.638 342.551C284.867 342.673 284.952 342.956 284.827 343.181C284.715 343.384 284.471 343.471 284.256 343.397L284.186 343.367L254.196 327.309L217.658 314.976C217.411 314.893 217.28 314.628 217.364 314.386Z" fill="black" fill-opacity="0.5"/>
<path fill-rule="evenodd" clip-rule="evenodd" d="M265.612 203.397C269.143 205.228 270.725 209.204 269.205 212.418L241.216 273.121C238.308 278.726 230.029 283.662 223.181 278.763C216.86 275.482 214.262 268.22 217.432 262.69L256.173 205.316C258.103 202.457 262.196 201.625 265.612 203.397Z" fill="#FFC999"/>
<path fill-rule="evenodd" clip-rule="evenodd" d="M150.6 349.304C154.508 348.328 157.017 344.784 156.296 341.262L142.365 273.26C140.853 267.057 133.95 263.407 127.014 265.139C120.017 266.889 115.723 273.431 117.509 279.62L141.942 349.229C143.153 352.496 146.821 350.249 150.6 349.304Z" fill="#FFC999"/>
<path fill-rule="evenodd" clip-rule="evenodd" d="M126.456 285.054L127.848 285.33C134.709 286.692 141.395 282.328 142.78 275.58L155.292 214.65C156.676 207.903 152.238 201.33 145.375 199.967L143.984 199.69C137.123 198.329 130.437 202.694 129.052 209.44L116.541 270.37C115.155 277.118 119.595 283.691 126.456 285.054Z" fill="#FFC999"/>
<path fill-rule="evenodd" clip-rule="evenodd" d="M123.828 234.884L129.603 206.756C130.996 199.976 138.107 195.613 145.405 197.062C152.703 198.511 157.535 205.245 156.143 212.026L150.422 239.886L123.828 234.884Z" fill="#1443BD"/>
<path fill-rule="evenodd" clip-rule="evenodd" d="M123.828 234.884L129.603 206.756C130.996 199.976 138.107 195.613 145.405 197.062C152.703 198.511 157.535 205.245 156.143 212.026L150.422 239.886L123.828 234.884Z" fill="white" fill-opacity="0.35"/>
<path d="M123.703 233.663L150.639 239.749C150.847 239.796 150.977 240 150.929 240.204C150.887 240.386 150.718 240.507 150.535 240.498L150.466 240.489L123.53 234.403C123.322 234.356 123.192 234.152 123.24 233.948C123.283 233.766 123.451 233.645 123.634 233.653L123.703 233.663Z" fill="#2A84C6"/>
<path d="M123.703 233.663L150.639 239.749C150.847 239.796 150.977 240 150.929 240.204C150.887 240.386 150.718 240.507 150.535 240.498L150.466 240.489L123.53 234.403C123.322 234.356 123.192 234.152 123.24 233.948C123.283 233.766 123.451 233.645 123.634 233.653L123.703 233.663Z" fill="black" fill-opacity="0.2"/>
<path fill-rule="evenodd" clip-rule="evenodd" d="M175.183 365.707C177.459 364.853 173.422 354.968 172.164 352.945C170.488 350.246 155.051 341.856 155.051 341.856L152.34 329.931L138.122 335.63C138.122 335.63 140.308 348.784 144.315 355.565C147.305 360.625 152.391 359.542 159.622 366.243C162.969 369.344 167.159 372.626 168.865 370.151C169.201 369.662 172.682 370.56 172.235 367.535C172.235 367.535 173.418 368.443 174.533 367.526C175.5 366.728 175.183 365.707 175.183 365.707Z" fill="#FFC999"/>
<path d="M156.553 358.477C156.669 358.236 156.961 358.133 157.205 358.247L157.483 358.382L157.583 358.433C157.878 358.584 158.205 358.76 158.557 358.963C159.562 359.54 160.567 360.207 161.508 360.956C162.361 361.636 163.119 362.352 163.758 363.103L169.351 369.678C169.525 369.882 169.498 370.186 169.29 370.356C169.083 370.527 168.774 370.5 168.6 370.296L163.006 363.721C162.411 363.021 161.697 362.348 160.891 361.705C159.992 360.989 159.028 360.349 158.063 359.794C157.809 359.649 157.57 359.517 157.348 359.4L156.887 359.165C156.845 359.145 156.812 359.129 156.788 359.118C156.543 359.005 156.438 358.718 156.553 358.477Z" fill="#DD936F"/>
<path d="M160.38 354.14C160.547 353.931 160.855 353.894 161.068 354.058L161.391 354.313L161.792 354.641C161.932 354.757 162.078 354.88 162.23 355.009C163.097 355.748 163.965 356.543 164.776 357.366C165.704 358.308 166.498 359.227 167.12 360.104L167.61 360.791C167.78 361.028 167.958 361.273 168.143 361.526L168.726 362.318C169.194 362.951 169.682 363.604 170.179 364.26L171.602 366.126L172.294 367.021C172.458 367.233 172.418 367.535 172.203 367.697C171.988 367.858 171.681 367.818 171.516 367.607L170.613 366.436L170.396 366.154C169.725 365.276 169.053 364.389 168.41 363.527L167.632 362.476L167.073 361.711C166.804 361.341 166.551 360.988 166.315 360.655C165.728 359.825 164.966 358.944 164.072 358.036C163.283 357.235 162.436 356.458 161.589 355.737L161.161 355.378L160.553 354.886C160.516 354.856 160.486 354.833 160.464 354.816C160.251 354.652 160.214 354.35 160.38 354.14Z" fill="#DD936F"/>
<path d="M163.798 351.162C163.95 350.942 164.255 350.885 164.479 351.034L164.801 351.258C165.052 351.436 165.332 351.643 165.633 351.875C166.492 352.538 167.352 353.273 168.155 354.061C169.713 355.588 170.872 357.128 171.467 358.64C171.757 359.375 172.078 360.096 172.426 360.8C172.984 361.931 173.582 362.966 174.179 363.881C174.388 364.201 174.581 364.482 174.754 364.723L174.966 365.01C175.13 365.221 175.089 365.523 174.874 365.685C174.659 365.846 174.352 365.806 174.188 365.595L174.016 365.365L173.954 365.279C173.773 365.027 173.571 364.733 173.355 364.401C172.737 363.455 172.12 362.388 171.544 361.221C171.185 360.493 170.853 359.748 170.554 358.988C170.016 357.624 168.933 356.184 167.463 354.743C166.69 353.984 165.859 353.274 165.028 352.633L164.609 352.316C164.542 352.266 164.477 352.218 164.413 352.172L163.966 351.856C163.952 351.847 163.94 351.838 163.929 351.831C163.705 351.682 163.647 351.382 163.798 351.162Z" fill="#DD936F"/>
<path fill-rule="evenodd" clip-rule="evenodd" d="M254.733 204.826L258.505 185.031C258.505 185.031 268.962 162.238 273.625 163.142C278.012 164.56 269.093 171.639 267.798 177.923C271.779 177.267 270.528 183.299 270.528 183.299C270.528 183.299 273.707 182.885 273.314 187.742C276.443 189.189 274.6 194.893 274.6 194.893C274.6 194.893 272.977 206.034 267.319 216.284C267.319 216.284 255.562 221.915 254.733 204.826Z" fill="#FFC999"/>
<path fill-rule="evenodd" clip-rule="evenodd" d="M254.255 203.228C254.255 203.228 254.512 193.985 254.915 189.25C255.318 184.516 252.504 176.299 256.172 178.202C258.636 179.482 258.72 184.519 258.993 188.215C259.268 191.908 266.172 200.08 262.246 206.553C259.594 210.927 254.837 211.916 254.255 203.228Z" fill="#FFC999"/>
<path d="M267.414 177.626C267.581 177.416 267.888 177.38 268.101 177.544C268.314 177.708 268.351 178.011 268.184 178.22L267.997 178.462L267.628 178.952C267.584 179.012 267.539 179.073 267.494 179.135C266.972 179.85 266.451 180.614 265.966 181.395C265.486 182.165 265.068 182.911 264.728 183.615C263.462 186.234 263.444 187.847 264.843 188.273C265.102 188.352 265.246 188.621 265.166 188.876C265.086 189.13 264.812 189.272 264.554 189.193C262.324 188.515 262.35 186.291 263.843 183.201C264.199 182.464 264.634 181.69 265.13 180.892C265.629 180.09 266.163 179.307 266.697 178.574L266.967 178.208L267.388 177.658C267.398 177.646 267.406 177.635 267.414 177.626Z" fill="#DD936F"/>
<path d="M270.524 183.183C270.709 183.378 270.697 183.683 270.499 183.864L270.293 184.058L270.028 184.313C269.936 184.403 269.839 184.499 269.738 184.6C269.164 185.174 268.59 185.788 268.055 186.415C267.532 187.029 267.075 187.622 266.703 188.181C265.517 189.966 265.361 191.1 266.289 191.546C266.485 191.641 266.687 191.686 266.899 191.687C267.651 191.691 268.542 191.128 269.45 190.17C269.781 189.821 270.09 189.444 270.368 189.068L270.579 188.773C270.636 188.689 270.681 188.622 270.711 188.575C270.853 188.349 271.155 188.279 271.385 188.419C271.615 188.56 271.686 188.857 271.543 189.083L271.452 189.222C271.379 189.33 271.281 189.47 271.161 189.633C270.861 190.04 270.528 190.446 270.167 190.827C269.089 191.964 267.994 192.655 266.894 192.65C266.536 192.649 266.188 192.57 265.858 192.411C264.175 191.601 264.413 189.865 265.883 187.654C266.278 187.06 266.758 186.437 267.305 185.796C267.858 185.148 268.449 184.516 269.04 183.924L269.478 183.493L269.832 183.159C270.03 182.978 270.34 182.989 270.524 183.183Z" fill="#DD936F"/>
<path d="M272.157 187.724C272.419 187.658 272.686 187.813 272.754 188.071C272.821 188.328 272.663 188.591 272.401 188.657C271.77 188.816 271.007 189.462 270.135 190.689C268.307 193.266 268.029 194.837 268.671 195.129C269.337 195.432 270.774 194.618 271.608 193.168C271.908 192.647 272.713 193.024 272.491 193.581C271.315 196.528 269.777 198.44 267.609 200.047C267.316 200.264 267.015 200.474 266.672 200.702L265.258 201.617C262.391 203.473 261.313 204.893 260.963 208.215C260.935 208.48 260.695 208.672 260.426 208.645C260.157 208.618 259.961 208.381 259.989 208.116C260.362 204.563 261.563 202.902 264.479 200.97L265.865 200.075L266.362 199.744C266.595 199.585 266.81 199.432 267.019 199.278C268.287 198.338 269.319 197.294 270.184 195.966L270.296 195.788L270.203 195.837C269.559 196.149 268.913 196.243 268.38 196.052L268.259 196.003C266.807 195.342 267.194 193.15 269.332 190.138C270.325 188.739 271.256 187.951 272.157 187.724Z" fill="#DD936F"/>
<path d="M258.564 183.121C258.803 183.079 259.033 183.216 259.112 183.434L259.132 183.51L260.385 190.367L260.454 190.462C260.561 190.612 260.681 190.785 260.809 190.98C261.175 191.535 261.54 192.153 261.882 192.819C262.864 194.735 263.455 196.657 263.456 198.475C263.456 199.502 263.264 200.467 262.858 201.353C262.747 201.595 262.456 201.703 262.21 201.594C261.963 201.485 261.853 201.199 261.964 200.957C262.311 200.201 262.476 199.371 262.476 198.476C262.476 196.832 261.926 195.046 261.007 193.252C260.747 192.746 260.473 192.268 260.196 191.828L259.987 191.504C259.78 191.19 259.62 190.967 259.532 190.852C259.501 190.812 259.477 190.767 259.46 190.72L259.441 190.647L258.168 183.68C258.12 183.419 258.297 183.168 258.564 183.121Z" fill="#DD936F"/>
<path d="M204.11 278.614C204.371 278.605 204.59 278.805 204.601 279.061C204.609 279.292 204.445 279.489 204.222 279.534L204.146 279.543L154.27 281.375C154.009 281.385 153.79 281.185 153.78 280.928C153.772 280.698 153.935 280.5 154.158 280.456L154.235 280.447L204.11 278.614Z" fill="#1443BD"/>
<path d="M204.11 278.614C204.371 278.605 204.59 278.805 204.601 279.061C204.609 279.292 204.445 279.489 204.222 279.534L204.146 279.543L154.27 281.375C154.009 281.385 153.79 281.185 153.78 280.928C153.772 280.698 153.935 280.5 154.158 280.456L154.235 280.447L204.11 278.614Z" fill="black" fill-opacity="0.5"/>
<path d="M457.627 177.076H369.847C368.115 177.076 366.711 178.492 366.711 180.238V241.556C366.711 243.302 368.115 244.718 369.847 244.718H457.627C459.359 244.718 460.763 243.302 460.763 241.556V180.238C460.763 178.492 459.359 177.076 457.627 177.076Z" fill="#2A84C6"/>
<path d="M457.627 177.076H369.847C368.115 177.076 366.711 178.492 366.711 180.238V241.556C366.711 243.302 368.115 244.718 369.847 244.718H457.627C459.359 244.718 460.763 243.302 460.763 241.556V180.238C460.763 178.492 459.359 177.076 457.627 177.076Z" fill="white" fill-opacity="0.85"/>
<path d="M443.124 236.533C444.484 236.533 445.587 234.185 445.587 231.289C445.587 228.394 444.484 226.046 443.124 226.046C441.763 226.046 440.661 228.394 440.661 231.289C440.661 234.185 441.763 236.533 443.124 236.533Z" fill="white"/>
<path d="M460.719 197.762H366.756V207.571H460.719V197.762Z" fill="white"/>
<path d="M405.971 217.735H374.465C373.887 217.735 373.419 218.207 373.419 218.789V220.069C373.419 220.651 373.887 221.123 374.465 221.123H405.971C406.549 221.123 407.017 220.651 407.017 220.069V218.789C407.017 218.207 406.549 217.735 405.971 217.735Z" fill="white"/>
<path d="M392.637 227.9H374.465C373.887 227.9 373.419 228.372 373.419 228.954V230.234C373.419 230.816 373.887 231.288 374.465 231.288H392.637C393.215 231.288 393.683 230.816 393.683 230.234V228.954C393.683 228.372 393.215 227.9 392.637 227.9Z" fill="white"/>
<path d="M382.506 183.891H374.465C373.887 183.891 373.419 184.363 373.419 184.945V189.574C373.419 190.156 373.887 190.628 374.465 190.628H382.506C383.083 190.628 383.551 190.156 383.551 189.574V184.945C383.551 184.363 383.083 183.891 382.506 183.891Z" fill="white"/>
<path d="M440.66 231.289C440.658 229.257 441.563 227.331 443.124 226.046C440.387 223.783 436.378 224.05 433.96 226.656C431.541 229.262 431.541 233.313 433.96 235.919C436.378 238.525 440.387 238.791 443.124 236.529C441.564 235.244 440.659 233.321 440.66 231.289Z" fill="#F56D7E"/>
<path d="M447.379 224.512C445.828 224.51 444.323 225.052 443.124 226.046C444.681 227.333 445.584 229.256 445.584 231.287C445.584 233.318 444.681 235.241 443.124 236.529C445.413 238.422 448.661 238.582 451.122 236.922C453.582 235.262 454.676 232.174 453.815 229.317C452.953 226.461 450.34 224.51 447.379 224.512Z" fill="#B7EE81"/>
<path d="M447.379 224.512C445.828 224.51 444.323 225.052 443.124 226.046C444.681 227.333 445.584 229.256 445.584 231.287C445.584 233.318 444.681 235.241 443.124 236.529C445.413 238.422 448.661 238.582 451.122 236.922C453.582 235.262 454.676 232.174 453.815 229.317C452.953 226.461 450.34 224.51 447.379 224.512Z" fill="white" fill-opacity="0.2"/>
<g filter="url(#filter3_ddddd_411_2868)">
<g filter="url(#filter4_i_411_2868)">
<path d="M347 307C347 301 347 298.001 348.528 295.898C349.021 295.219 349.619 294.621 350.298 294.128C352.401 292.6 355.4 292.6 361.4 292.6H397.034C403.034 292.6 406.033 292.6 408.136 294.128C408.815 294.621 409.413 295.219 409.906 295.898C411.434 298.001 411.434 301 411.434 307V354.591C411.434 360.59 411.434 363.59 409.906 365.693C409.413 366.372 408.815 366.969 408.136 367.463C406.033 368.991 403.034 368.991 397.034 368.991H361.4C355.4 368.991 352.401 368.991 350.298 367.463C349.619 366.969 349.021 366.372 348.528 365.693C347 363.59 347 360.59 347 354.591V307Z" fill="white"/>
</g>
<path fill-rule="evenodd" clip-rule="evenodd" d="M396.523 333.325C393.378 329.521 383.631 322.158 389.149 316.335C394.105 311.104 398.32 317.939 404.112 325.179L396.523 333.325Z" fill="#F56D7E"/>
<path fill-rule="evenodd" clip-rule="evenodd" d="M360.447 333.325C363.592 329.521 373.982 321.288 368.464 315.465C363.507 310.235 358.65 317.939 352.858 325.179L360.447 333.325Z" fill="#F56D7E"/>
<path fill-rule="evenodd" clip-rule="evenodd" d="M367.597 344.535C368.682 349.044 368.891 349.703 368.891 349.703C375.239 350.131 388.976 349.703 388.976 349.703C389.541 347.005 390.131 343.96 390.131 343.96C390.131 343.96 396.998 316.61 394.804 315.053C392.782 313.618 389.185 312.487 384.439 311.698C384.307 311.991 382.977 314.282 378.535 314.336C373.673 314.395 372.628 312.227 372.451 311.847C368.47 312.337 365.958 312.644 363.48 314.173C362.715 314.645 363.235 326.405 367.597 344.535Z" fill="#F56D7E"/>
</g>
<path fill-rule="evenodd" clip-rule="evenodd" d="M406.705 371.236C406.704 371.211 406.708 371.186 406.716 371.161C406.74 371.081 406.803 371.019 406.885 370.993L411.213 369.654C411.413 369.592 411.442 369.419 411.446 369.367C411.45 369.316 411.448 369.14 411.26 369.05L399.399 363.358C399.282 363.302 399.15 363.314 399.046 363.392C398.942 363.469 398.896 363.59 398.921 363.715L401.538 376.555C401.579 376.754 401.751 376.802 401.803 376.812C401.855 376.822 402.033 376.84 402.148 376.67L404.724 372.847C404.77 372.778 404.847 372.736 404.931 372.733C405.015 372.73 405.095 372.767 405.146 372.832L409.298 378.165C409.341 378.221 409.421 378.232 409.479 378.192L411.22 376.987C411.261 376.959 411.272 376.92 411.274 376.9C411.277 376.879 411.278 376.839 411.246 376.802L406.762 371.391C406.725 371.347 406.705 371.292 406.705 371.236Z" fill="#1443BD"/>
<defs>
<filter id="filter0_iii_411_2868" x="285" y="56" width="70.1285" height="15.9648" filterUnits="userSpaceOnUse" color-interpolation-filters="sRGB">
<feFlood flood-opacity="0" result="BackgroundImageFix"/>
<feBlend mode="normal" in="SourceGraphic" in2="BackgroundImageFix" result="shape"/>
<feColorMatrix in="SourceAlpha" type="matrix" values="0 0 0 0 0 0 0 0 0 0 0 0 0 0 0 0 0 0 127 0" result="hardAlpha"/>
<feOffset dy="2"/>
<feGaussianBlur stdDeviation="2"/>
<feComposite in2="hardAlpha" operator="arithmetic" k2="-1" k3="1"/>
<feColorMatrix type="matrix" values="0 0 0 0 0.705882 0 0 0 0 0.831373 0 0 0 0 0.921569 0 0 0 0.06 0"/>
<feBlend mode="normal" in2="shape" result="effect1_innerShadow_411_2868"/>
<feColorMatrix in="SourceAlpha" type="matrix" values="0 0 0 0 0 0 0 0 0 0 0 0 0 0 0 0 0 0 127 0" result="hardAlpha"/>
<feOffset dy="6"/>
<feGaussianBlur stdDeviation="4"/>
<feComposite in2="hardAlpha" operator="arithmetic" k2="-1" k3="1"/>
<feColorMatrix type="matrix" values="0 0 0 0 0.705882 0 0 0 0 0.831373 0 0 0 0 0.921569 0 0 0 0.04 0"/>
<feBlend mode="normal" in2="effect1_innerShadow_411_2868" result="effect2_innerShadow_411_2868"/>
<feColorMatrix in="SourceAlpha" type="matrix" values="0 0 0 0 0 0 0 0 0 0 0 0 0 0 0 0 0 0 127 0" result="hardAlpha"/>
<feOffset dy="1"/>
<feGaussianBlur stdDeviation="1"/>
<feComposite in2="hardAlpha" operator="arithmetic" k2="-1" k3="1"/>
<feColorMatrix type="matrix" values="0 0 0 0 0.105882 0 0 0 0 0.337255 0 0 0 0 0.505882 0 0 0 0.12 0"/>
<feBlend mode="normal" in2="effect2_innerShadow_411_2868" result="effect3_innerShadow_411_2868"/>
</filter>
<filter id="filter1_iii_411_2868" x="285" y="77.2579" width="70.1285" height="15.9648" filterUnits="userSpaceOnUse" color-interpolation-filters="sRGB">
<feFlood flood-opacity="0" result="BackgroundImageFix"/>
<feBlend mode="normal" in="SourceGraphic" in2="BackgroundImageFix" result="shape"/>
<feColorMatrix in="SourceAlpha" type="matrix" values="0 0 0 0 0 0 0 0 0 0 0 0 0 0 0 0 0 0 127 0" result="hardAlpha"/>
<feOffset dy="2"/>
<feGaussianBlur stdDeviation="2"/>
<feComposite in2="hardAlpha" operator="arithmetic" k2="-1" k3="1"/>
<feColorMatrix type="matrix" values="0 0 0 0 0.705882 0 0 0 0 0.831373 0 0 0 0 0.921569 0 0 0 0.06 0"/>
<feBlend mode="normal" in2="shape" result="effect1_innerShadow_411_2868"/>
<feColorMatrix in="SourceAlpha" type="matrix" values="0 0 0 0 0 0 0 0 0 0 0 0 0 0 0 0 0 0 127 0" result="hardAlpha"/>
<feOffset dy="6"/>
<feGaussianBlur stdDeviation="4"/>
<feComposite in2="hardAlpha" operator="arithmetic" k2="-1" k3="1"/>
<feColorMatrix type="matrix" values="0 0 0 0 0.705882 0 0 0 0 0.831373 0 0 0 0 0.921569 0 0 0 0.04 0"/>
<feBlend mode="normal" in2="effect1_innerShadow_411_2868" result="effect2_innerShadow_411_2868"/>
<feColorMatrix in="SourceAlpha" type="matrix" values="0 0 0 0 0 0 0 0 0 0 0 0 0 0 0 0 0 0 127 0" result="hardAlpha"/>
<feOffset dy="1"/>
<feGaussianBlur stdDeviation="1"/>
<feComposite in2="hardAlpha" operator="arithmetic" k2="-1" k3="1"/>
<feColorMatrix type="matrix" values="0 0 0 0 0.105882 0 0 0 0 0.337255 0 0 0 0 0.505882 0 0 0 0.12 0"/>
<feBlend mode="normal" in2="effect2_innerShadow_411_2868" result="effect3_innerShadow_411_2868"/>
</filter>
<filter id="filter2_ddddd_411_2868" x="215" y="68.5161" width="210.128" height="149.965" filterUnits="userSpaceOnUse" color-interpolation-filters="sRGB">
<feFlood flood-opacity="0" result="BackgroundImageFix"/>
<feColorMatrix in="SourceAlpha" type="matrix" values="0 0 0 0 0 0 0 0 0 0 0 0 0 0 0 0 0 0 127 0" result="hardAlpha"/>
<feOffset dy="6"/>
<feGaussianBlur stdDeviation="4"/>
<feColorMatrix type="matrix" values="0 0 0 0 0.705882 0 0 0 0 0.831373 0 0 0 0 0.921569 0 0 0 0.12 0"/>
<feBlend mode="normal" in2="BackgroundImageFix" result="effect1_dropShadow_411_2868"/>
<feColorMatrix in="SourceAlpha" type="matrix" values="0 0 0 0 0 0 0 0 0 0 0 0 0 0 0 0 0 0 127 0" result="hardAlpha"/>
<feOffset dy="8"/>
<feGaussianBlur stdDeviation="12"/>
<feColorMatrix type="matrix" values="0 0 0 0 0.705882 0 0 0 0 0.831373 0 0 0 0 0.921569 0 0 0 0.08 0"/>
<feBlend mode="normal" in2="effect1_dropShadow_411_2868" result="effect2_dropShadow_411_2868"/>
<feColorMatrix in="SourceAlpha" type="matrix" values="0 0 0 0 0 0 0 0 0 0 0 0 0 0 0 0 0 0 127 0" result="hardAlpha"/>
<feOffset dy="16"/>
<feGaussianBlur stdDeviation="18"/>
<feColorMatrix type="matrix" values="0 0 0 0 0.705882 0 0 0 0 0.831373 0 0 0 0 0.921569 0 0 0 0.04 0"/>
<feBlend mode="normal" in2="effect2_dropShadow_411_2868" result="effect3_dropShadow_411_2868"/>
<feColorMatrix in="SourceAlpha" type="matrix" values="0 0 0 0 0 0 0 0 0 0 0 0 0 0 0 0 0 0 127 0" result="hardAlpha"/>
<feOffset dy="40"/>
<feGaussianBlur stdDeviation="35"/>
<feColorMatrix type="matrix" values="0 0 0 0 0.705882 0 0 0 0 0.831373 0 0 0 0 0.921569 0 0 0 0.04 0"/>
<feBlend mode="normal" in2="effect3_dropShadow_411_2868" result="effect4_dropShadow_411_2868"/>
<feColorMatrix in="SourceAlpha" type="matrix" values="0 0 0 0 0 0 0 0 0 0 0 0 0 0 0 0 0 0 127 0" result="hardAlpha"/>
<feOffset dy="2"/>
<feGaussianBlur stdDeviation="2"/>
<feColorMatrix type="matrix" values="0 0 0 0 0.87451 0 0 0 0 0.929412 0 0 0 0 0.964706 0 0 0 0.4 0"/>
<feBlend mode="normal" in2="effect4_dropShadow_411_2868" result="effect5_dropShadow_411_2868"/>
<feBlend mode="normal" in="SourceGraphic" in2="effect5_dropShadow_411_2868" result="shape"/>
</filter>
<filter id="filter3_ddddd_411_2868" x="277" y="262.6" width="204.434" height="216.391" filterUnits="userSpaceOnUse" color-interpolation-filters="sRGB">
<feFlood flood-opacity="0" result="BackgroundImageFix"/>
<feColorMatrix in="SourceAlpha" type="matrix" values="0 0 0 0 0 0 0 0 0 0 0 0 0 0 0 0 0 0 127 0" result="hardAlpha"/>
<feOffset dy="6"/>
<feGaussianBlur stdDeviation="4"/>
<feColorMatrix type="matrix" values="0 0 0 0 0.705882 0 0 0 0 0.831373 0 0 0 0 0.921569 0 0 0 0.12 0"/>
<feBlend mode="normal" in2="BackgroundImageFix" result="effect1_dropShadow_411_2868"/>
<feColorMatrix in="SourceAlpha" type="matrix" values="0 0 0 0 0 0 0 0 0 0 0 0 0 0 0 0 0 0 127 0" result="hardAlpha"/>
<feOffset dy="8"/>
<feGaussianBlur stdDeviation="12"/>
<feColorMatrix type="matrix" values="0 0 0 0 0.705882 0 0 0 0 0.831373 0 0 0 0 0.921569 0 0 0 0.08 0"/>
<feBlend mode="normal" in2="effect1_dropShadow_411_2868" result="effect2_dropShadow_411_2868"/>
<feColorMatrix in="SourceAlpha" type="matrix" values="0 0 0 0 0 0 0 0 0 0 0 0 0 0 0 0 0 0 127 0" result="hardAlpha"/>
<feOffset dy="16"/>
<feGaussianBlur stdDeviation="18"/>
<feColorMatrix type="matrix" values="0 0 0 0 0.705882 0 0 0 0 0.831373 0 0 0 0 0.921569 0 0 0 0.04 0"/>
<feBlend mode="normal" in2="effect2_dropShadow_411_2868" result="effect3_dropShadow_411_2868"/>
<feColorMatrix in="SourceAlpha" type="matrix" values="0 0 0 0 0 0 0 0 0 0 0 0 0 0 0 0 0 0 127 0" result="hardAlpha"/>
<feOffset dy="40"/>
<feGaussianBlur stdDeviation="35"/>
<feColorMatrix type="matrix" values="0 0 0 0 0.705882 0 0 0 0 0.831373 0 0 0 0 0.921569 0 0 0 0.04 0"/>
<feBlend mode="normal" in2="effect3_dropShadow_411_2868" result="effect4_dropShadow_411_2868"/>
<feColorMatrix in="SourceAlpha" type="matrix" values="0 0 0 0 0 0 0 0 0 0 0 0 0 0 0 0 0 0 127 0" result="hardAlpha"/>
<feOffset dy="2"/>
<feGaussianBlur stdDeviation="2"/>
<feColorMatrix type="matrix" values="0 0 0 0 0.87451 0 0 0 0 0.929412 0 0 0 0 0.964706 0 0 0 0.4 0"/>
<feBlend mode="normal" in2="effect4_dropShadow_411_2868" result="effect5_dropShadow_411_2868"/>
<feBlend mode="normal" in="SourceGraphic" in2="effect5_dropShadow_411_2868" result="shape"/>
</filter>
<filter id="filter4_i_411_2868" x="347" y="292.6" width="64.4339" height="76.3906" filterUnits="userSpaceOnUse" color-interpolation-filters="sRGB">
<feFlood flood-opacity="0" result="BackgroundImageFix"/>
<feBlend mode="normal" in="SourceGraphic" in2="BackgroundImageFix" result="shape"/>
<feColorMatrix in="SourceAlpha" type="matrix" values="0 0 0 0 0 0 0 0 0 0 0 0 0 0 0 0 0 0 127 0" result="hardAlpha"/>
<feOffset dy="-1"/>
<feComposite in2="hardAlpha" operator="arithmetic" k2="-1" k3="1"/>
<feColorMatrix type="matrix" values="0 0 0 0 0 0 0 0 0 0 0 0 0 0 0 0 0 0 0.12 0"/>
<feBlend mode="normal" in2="shape" result="effect1_innerShadow_411_2868"/>
</filter>
<clipPath id="clip0_411_2868">
<rect width="147" height="144.822" fill="white" transform="translate(247 3.9408)"/>
</clipPath>
</defs>
</svg>
