<svg width="60" height="60" viewBox="0 0 60 60" fill="none" xmlns="http://www.w3.org/2000/svg">
<circle cx="30" cy="30" r="30" fill="#0E55FF"/>
<circle cx="30" cy="30" r="30" fill="white" fill-opacity="0.2"/>
<path d="M30 30C33.222 30 35.8333 27.3887 35.8333 24.1667C35.8333 20.9447 33.222 18.3334 30 18.3334C26.778 18.3334 24.1666 20.9447 24.1666 24.1667C24.1666 27.3887 26.778 30 30 30ZM34.0833 31.4584H33.3222C32.3105 31.9232 31.1849 32.1875 30 32.1875C28.8151 32.1875 27.694 31.9232 26.6777 31.4584H25.9166C22.5351 31.4584 19.7916 34.2019 19.7916 37.5834V39.4792C19.7916 40.6869 20.7714 41.6667 21.9791 41.6667H38.0208C39.2285 41.6667 40.2083 40.6869 40.2083 39.4792V37.5834C40.2083 34.2019 37.4648 31.4584 34.0833 31.4584Z" fill="white"/>
</svg>
