<svg width="60" height="60" viewBox="0 0 60 60" fill="none" xmlns="http://www.w3.org/2000/svg">
<circle cx="30" cy="30" r="30" fill="#2A84C6"/>
<circle cx="30" cy="30" r="30" fill="white" fill-opacity="0.2"/>
<path d="M39.3515 24.1667H21.9791C21.5763 24.1667 21.25 23.8404 21.25 23.4376C21.25 23.0347 21.5763 22.7084 21.9791 22.7084H39.4791C39.882 22.7084 40.2083 22.3821 40.2083 21.9792C40.2083 20.7711 39.229 19.7917 38.0208 19.7917H21.25C19.639 19.7917 18.3333 21.0974 18.3333 22.7084V37.2917C18.3333 38.9027 19.639 40.2084 21.25 40.2084H39.3515C40.6285 40.2084 41.6666 39.2272 41.6666 38.0209V26.3542C41.6666 25.1479 40.6285 24.1667 39.3515 24.1667ZM37.2916 33.6459C36.4864 33.6459 35.8333 32.9929 35.8333 32.1876C35.8333 31.3823 36.4864 30.7292 37.2916 30.7292C38.0969 30.7292 38.75 31.3823 38.75 32.1876C38.75 32.9929 38.0969 33.6459 37.2916 33.6459Z" fill="white"/>
</svg>
