<svg width="575" height="700" viewBox="0 0 575 700" fill="none" xmlns="http://www.w3.org/2000/svg">
<path d="M142.933 55.8185C145.256 55.8185 147.14 53.935 147.14 51.6116C147.14 49.2882 145.256 47.4047 142.933 47.4047C140.609 47.4047 138.726 49.2882 138.726 51.6116C138.726 53.935 140.609 55.8185 142.933 55.8185Z" fill="#F56D7E"/>
<path d="M159.3 55.8185C161.624 55.8185 163.507 53.935 163.507 51.6116C163.507 49.2882 161.624 47.4047 159.3 47.4047C156.977 47.4047 155.093 49.2882 155.093 51.6116C155.093 53.935 156.977 55.8185 159.3 55.8185Z" fill="#B7EE81"/>
<path d="M159.3 55.8185C161.624 55.8185 163.507 53.935 163.507 51.6116C163.507 49.2882 161.624 47.4047 159.3 47.4047C156.977 47.4047 155.093 49.2882 155.093 51.6116C155.093 53.935 156.977 55.8185 159.3 55.8185Z" fill="white" fill-opacity="0.2"/>
<path d="M174.758 55.8185C177.082 55.8185 178.965 53.935 178.965 51.6116C178.965 49.2882 177.082 47.4047 174.758 47.4047C172.435 47.4047 170.552 49.2882 170.552 51.6116C170.552 53.935 172.435 55.8185 174.758 55.8185Z" fill="#B7EE81"/>
<path d="M174.758 55.8185C177.082 55.8185 178.965 53.935 178.965 51.6116C178.965 49.2882 177.082 47.4047 174.758 47.4047C172.435 47.4047 170.552 49.2882 170.552 51.6116C170.552 53.935 172.435 55.8185 174.758 55.8185Z" fill="white" fill-opacity="0.2"/>
<path d="M328.163 23.338H120.973C117.422 23.338 114.543 26.2814 114.543 29.9122V181.848C114.543 185.479 117.422 188.422 120.973 188.422H328.163C331.714 188.422 334.593 185.479 334.593 181.848V29.9122C334.593 26.2814 331.714 23.338 328.163 23.338Z" fill="#F2F2F2"/>
<path fill-rule="evenodd" clip-rule="evenodd" d="M180.958 170.578V56.2969C180.958 55.0546 181.943 54.0476 183.158 54.0476H318.642C319.857 54.0476 320.842 55.0546 320.842 56.2969V171C320.842 172.009 320.021 172.827 319.008 172.827H183.158C181.943 172.827 180.958 171.82 180.958 170.578Z" fill="white"/>
<path fill-rule="evenodd" clip-rule="evenodd" d="M208.869 76.8545H200.863C200.243 76.8545 199.741 76.3542 199.741 75.737C199.741 75.1201 200.243 74.6198 200.863 74.6198H208.869C209.489 74.6198 209.991 75.1201 209.991 75.737C209.991 76.3542 209.489 76.8545 208.869 76.8545Z" fill="white"/>
<path fill-rule="evenodd" clip-rule="evenodd" d="M208.998 82.2167H200.992C200.373 82.2167 199.87 81.7165 199.87 81.0993C199.87 80.4823 200.373 79.9821 200.992 79.9821H208.998C209.618 79.9821 210.12 80.4823 210.12 81.0993C210.12 81.7165 209.618 82.2167 208.998 82.2167Z" fill="white"/>
<path d="M307.257 153.987C307.713 153.987 308.082 154.365 308.082 154.83C308.082 155.281 307.737 155.649 307.303 155.673L307.257 155.674H194.149C193.693 155.674 193.324 155.296 193.324 154.83C193.324 154.38 193.669 154.012 194.103 153.988L194.149 153.987H307.257Z" fill="#2A84C6"/>
<path d="M307.257 153.987C307.713 153.987 308.082 154.365 308.082 154.83C308.082 155.281 307.737 155.649 307.303 155.673L307.257 155.674H194.149C193.693 155.674 193.324 155.296 193.324 154.83C193.324 154.38 193.669 154.012 194.103 153.988L194.149 153.987H307.257Z" fill="white" fill-opacity="0.85"/>
<path d="M289.18 161.705C289.636 161.705 290.005 162.083 290.005 162.548C290.005 162.999 289.66 163.367 289.226 163.391L289.18 163.392H194.149C193.693 163.392 193.324 163.014 193.324 162.548C193.324 162.098 193.669 161.73 194.103 161.706L194.149 161.705H289.18Z" fill="#2A84C6"/>
<path d="M289.18 161.705C289.636 161.705 290.005 162.083 290.005 162.548C290.005 162.999 289.66 163.367 289.226 163.391L289.18 163.392H194.149C193.693 163.392 193.324 163.014 193.324 162.548C193.324 162.098 193.669 161.73 194.103 161.706L194.149 161.705H289.18Z" fill="white" fill-opacity="0.85"/>
<path d="M120.437 15.9004H328.588C331.843 15.9004 334.482 18.5393 334.482 21.7945V39.3589H114.543V21.7945C114.543 18.5393 117.182 15.9004 120.437 15.9004Z" fill="#1443BD"/>
<path d="M120.437 15.9004H328.588C331.843 15.9004 334.482 18.5393 334.482 21.7945V39.3589H114.543V21.7945C114.543 18.5393 117.182 15.9004 120.437 15.9004Z" fill="black" fill-opacity="0.5"/>
<path d="M189.083 111.083L186.377 109.047L189.083 107.016L191.79 109.047L189.083 111.083Z" fill="white"/>
<path d="M170.294 54.02H131.536C130.186 54.02 129.092 55.1389 129.092 56.5191V170.529C129.092 171.909 130.186 173.028 131.536 173.028H170.294C171.644 173.028 172.738 171.909 172.738 170.529V56.5191C172.738 55.1389 171.644 54.02 170.294 54.02Z" fill="#1443BD"/>
<path d="M170.294 54.02H131.536C130.186 54.02 129.092 55.1389 129.092 56.5191V170.529C129.092 171.909 130.186 173.028 131.536 173.028H170.294C171.644 173.028 172.738 171.909 172.738 170.529V56.5191C172.738 55.1389 171.644 54.02 170.294 54.02Z" fill="white" fill-opacity="0.65"/>
<path d="M161.964 101.437H139.573C138.806 101.437 138.184 102.073 138.184 102.857V106.368C138.184 107.152 138.806 107.787 139.573 107.787H161.964C162.731 107.787 163.352 107.152 163.352 106.368V102.857C163.352 102.073 162.731 101.437 161.964 101.437Z" fill="white"/>
<path d="M161.985 113.524H139.552C138.796 113.524 138.184 114.15 138.184 114.922V118.284C138.184 119.056 138.796 119.682 139.552 119.682H161.985C162.74 119.682 163.352 119.056 163.352 118.284V114.922C163.352 114.15 162.74 113.524 161.985 113.524Z" fill="#2A84C6"/>
<path d="M161.985 113.524H139.552C138.796 113.524 138.184 114.15 138.184 114.922V118.284C138.184 119.056 138.796 119.682 139.552 119.682H161.985C162.74 119.682 163.352 119.056 163.352 118.284V114.922C163.352 114.15 162.74 113.524 161.985 113.524Z" fill="white" fill-opacity="0.85"/>
<path d="M161.985 125.611H139.552C138.796 125.611 138.184 126.237 138.184 127.009V130.371C138.184 131.143 138.796 131.769 139.552 131.769H161.985C162.74 131.769 163.352 131.143 163.352 130.371V127.009C163.352 126.237 162.74 125.611 161.985 125.611Z" fill="#B7EE81"/>
<path d="M161.985 125.611H139.552C138.796 125.611 138.184 126.237 138.184 127.009V130.371C138.184 131.143 138.796 131.769 139.552 131.769H161.985C162.74 131.769 163.352 131.143 163.352 130.371V127.009C163.352 126.237 162.74 125.611 161.985 125.611Z" fill="white" fill-opacity="0.5"/>
<path d="M161.985 137.698H139.552C138.796 137.698 138.184 138.324 138.184 139.096V142.458C138.184 143.23 138.796 143.856 139.552 143.856H161.985C162.74 143.856 163.352 143.23 163.352 142.458V139.096C163.352 138.324 162.74 137.698 161.985 137.698Z" fill="#B7EE81"/>
<path d="M161.985 137.698H139.552C138.796 137.698 138.184 138.324 138.184 139.096V142.458C138.184 143.23 138.796 143.856 139.552 143.856H161.985C162.74 143.856 163.352 143.23 163.352 142.458V139.096C163.352 138.324 162.74 137.698 161.985 137.698Z" fill="white" fill-opacity="0.2"/>
<path fill-rule="evenodd" clip-rule="evenodd" d="M193.466 108C192.656 108 192 107.313 192 106.466C192 105.62 192.656 104.933 193.466 104.933H220.355C221.165 104.933 221.822 105.62 221.822 106.466C221.822 107.313 221.165 108 220.355 108H193.466Z" fill="#2A84C6"/>
<path fill-rule="evenodd" clip-rule="evenodd" d="M193.466 108C192.656 108 192 107.313 192 106.466C192 105.62 192.656 104.933 193.466 104.933H220.355C221.165 104.933 221.822 105.62 221.822 106.466C221.822 107.313 221.165 108 220.355 108H193.466Z" fill="white" fill-opacity="0.2"/>
<path fill-rule="evenodd" clip-rule="evenodd" d="M201.466 115C200.656 115 200 114.313 200 113.466C200 112.62 200.656 111.933 201.466 111.933H211.932C212.741 111.933 213.398 112.62 213.398 113.466C213.398 114.313 212.741 115 211.932 115H201.466Z" fill="#2A84C6"/>
<path fill-rule="evenodd" clip-rule="evenodd" d="M201.466 115C200.656 115 200 114.313 200 113.466C200 112.62 200.656 111.933 201.466 111.933H211.932C212.741 111.933 213.398 112.62 213.398 113.466C213.398 114.313 212.741 115 211.932 115H201.466Z" fill="white" fill-opacity="0.85"/>
<g filter="url(#filter0_i_433_1356)">
<rect x="192" y="64.9333" width="30.4615" height="36" rx="4" fill="white"/>
</g>
<path fill-rule="evenodd" clip-rule="evenodd" d="M215.412 84.1255C213.925 82.3327 209.317 78.8628 211.926 76.1187C214.269 73.6537 216.262 76.8748 219 80.2866L215.412 84.1255Z" fill="#F56D7E"/>
<path fill-rule="evenodd" clip-rule="evenodd" d="M198.357 84.1255C199.844 82.3326 204.756 78.4531 202.147 75.7087C199.804 73.2439 197.508 76.8748 194.769 80.2866L198.357 84.1255Z" fill="#F56D7E"/>
<path fill-rule="evenodd" clip-rule="evenodd" d="M201.737 89.4081C202.25 91.5332 202.349 91.8436 202.349 91.8436C205.35 92.0456 211.844 91.8436 211.844 91.8436C212.111 90.5721 212.391 89.1375 212.391 89.1375C212.391 89.1375 215.637 76.2484 214.6 75.5146C213.644 74.8382 211.943 74.3053 209.7 73.9333C209.637 74.0717 209.008 75.1512 206.908 75.1766C204.61 75.2043 204.115 74.1826 204.032 74.0034C202.15 74.2348 200.962 74.3792 199.791 75.1C199.429 75.3224 199.675 80.8645 201.737 89.4081Z" fill="#F56D7E"/>
<path fill-rule="evenodd" clip-rule="evenodd" d="M195.466 146C194.656 146 194 145.313 194 144.466C194 143.62 194.656 142.933 195.466 142.933H205.932C206.741 142.933 207.398 143.62 207.398 144.466C207.398 145.313 206.741 146 205.932 146H195.466Z" fill="#2A84C6"/>
<path fill-rule="evenodd" clip-rule="evenodd" d="M195.466 146C194.656 146 194 145.313 194 144.466C194 143.62 194.656 142.933 195.466 142.933H205.932C206.741 142.933 207.398 143.62 207.398 144.466C207.398 145.313 206.741 146 205.932 146H195.466Z" fill="white" fill-opacity="0.85"/>
<path fill-rule="evenodd" clip-rule="evenodd" d="M195.114 136.933C193.946 136.933 193 136.262 193 135.433C193 134.605 193.946 133.933 195.114 133.933H233.886C235.054 133.933 236 134.605 236 135.433C236 136.262 235.054 136.933 233.886 136.933H195.114Z" fill="#2A84C6"/>
<path fill-rule="evenodd" clip-rule="evenodd" d="M195.114 136.933C193.946 136.933 193 136.262 193 135.433C193 134.605 193.946 133.933 195.114 133.933H233.886C235.054 133.933 236 134.605 236 135.433C236 136.262 235.054 136.933 233.886 136.933H195.114Z" fill="white" fill-opacity="0.2"/>
<path fill-rule="evenodd" clip-rule="evenodd" d="M215.114 145.933C213.946 145.933 213 145.262 213 144.433C213 143.605 213.946 142.933 215.114 142.933H253.886C255.054 142.933 256 143.605 256 144.433C256 145.262 255.054 145.933 253.886 145.933H215.114Z" fill="#2A84C6"/>
<path fill-rule="evenodd" clip-rule="evenodd" d="M215.114 145.933C213.946 145.933 213 145.262 213 144.433C213 143.605 213.946 142.933 215.114 142.933H253.886C255.054 142.933 256 143.605 256 144.433C256 145.262 255.054 145.933 253.886 145.933H215.114Z" fill="white" fill-opacity="0.85"/>
<path fill-rule="evenodd" clip-rule="evenodd" d="M237.466 108C236.656 108 236 107.313 236 106.466C236 105.62 236.656 104.933 237.466 104.933H264.355C265.165 104.933 265.822 105.62 265.822 106.466C265.822 107.313 265.165 108 264.355 108H237.466Z" fill="#2A84C6"/>
<path fill-rule="evenodd" clip-rule="evenodd" d="M237.466 108C236.656 108 236 107.313 236 106.466C236 105.62 236.656 104.933 237.466 104.933H264.355C265.165 104.933 265.822 105.62 265.822 106.466C265.822 107.313 265.165 108 264.355 108H237.466Z" fill="white" fill-opacity="0.2"/>
<path fill-rule="evenodd" clip-rule="evenodd" d="M245.466 115C244.656 115 244 114.313 244 113.466C244 112.62 244.656 111.933 245.466 111.933H255.932C256.741 111.933 257.398 112.62 257.398 113.466C257.398 114.313 256.741 115 255.932 115H245.466Z" fill="#2A84C6"/>
<path fill-rule="evenodd" clip-rule="evenodd" d="M245.466 115C244.656 115 244 114.313 244 113.466C244 112.62 244.656 111.933 245.466 111.933H255.932C256.741 111.933 257.398 112.62 257.398 113.466C257.398 114.313 256.741 115 255.932 115H245.466Z" fill="white" fill-opacity="0.85"/>
<g filter="url(#filter1_i_433_1356)">
<rect x="236" y="64.9333" width="30.4615" height="36" rx="4" fill="white"/>
</g>
<path fill-rule="evenodd" clip-rule="evenodd" d="M259.412 84.1255C257.925 82.3327 253.317 78.8628 255.926 76.1187C258.269 73.6537 260.262 76.8748 263 80.2866L259.412 84.1255Z" fill="#1443BD"/>
<path fill-rule="evenodd" clip-rule="evenodd" d="M259.412 84.1255C257.925 82.3327 253.317 78.8628 255.926 76.1187C258.269 73.6537 260.262 76.8748 263 80.2866L259.412 84.1255Z" fill="white" fill-opacity="0.65"/>
<path fill-rule="evenodd" clip-rule="evenodd" d="M242.357 84.1255C243.844 82.3326 248.756 78.4531 246.147 75.7087C243.804 73.2439 241.508 76.8748 238.769 80.2866L242.357 84.1255Z" fill="#1443BD"/>
<path fill-rule="evenodd" clip-rule="evenodd" d="M242.357 84.1255C243.844 82.3326 248.756 78.4531 246.147 75.7087C243.804 73.2439 241.508 76.8748 238.769 80.2866L242.357 84.1255Z" fill="white" fill-opacity="0.65"/>
<path fill-rule="evenodd" clip-rule="evenodd" d="M245.737 89.4081C246.25 91.5332 246.349 91.8436 246.349 91.8436C249.35 92.0456 255.844 91.8436 255.844 91.8436C256.111 90.5721 256.391 89.1375 256.391 89.1375C256.391 89.1375 259.637 76.2484 258.6 75.5146C257.644 74.8382 255.943 74.3053 253.7 73.9333C253.637 74.0717 253.008 75.1512 250.908 75.1766C248.61 75.2043 248.115 74.1826 248.032 74.0034C246.15 74.2348 244.962 74.3792 243.791 75.1C243.429 75.3224 243.675 80.8645 245.737 89.4081Z" fill="#1443BD"/>
<path fill-rule="evenodd" clip-rule="evenodd" d="M245.737 89.4081C246.25 91.5332 246.349 91.8436 246.349 91.8436C249.35 92.0456 255.844 91.8436 255.844 91.8436C256.111 90.5721 256.391 89.1375 256.391 89.1375C256.391 89.1375 259.637 76.2484 258.6 75.5146C257.644 74.8382 255.943 74.3053 253.7 73.9333C253.637 74.0717 253.008 75.1512 250.908 75.1766C248.61 75.2043 248.115 74.1826 248.032 74.0034C246.15 74.2348 244.962 74.3792 243.791 75.1C243.429 75.3224 243.675 80.8645 245.737 89.4081Z" fill="white" fill-opacity="0.65"/>
<path fill-rule="evenodd" clip-rule="evenodd" d="M281.466 108C280.656 108 280 107.313 280 106.466C280 105.62 280.656 104.933 281.466 104.933H308.355C309.165 104.933 309.822 105.62 309.822 106.466C309.822 107.313 309.165 108 308.355 108H281.466Z" fill="#2A84C6"/>
<path fill-rule="evenodd" clip-rule="evenodd" d="M281.466 108C280.656 108 280 107.313 280 106.466C280 105.62 280.656 104.933 281.466 104.933H308.355C309.165 104.933 309.822 105.62 309.822 106.466C309.822 107.313 309.165 108 308.355 108H281.466Z" fill="white" fill-opacity="0.2"/>
<path fill-rule="evenodd" clip-rule="evenodd" d="M289.466 115C288.656 115 288 114.313 288 113.466C288 112.62 288.656 111.933 289.466 111.933H299.932C300.741 111.933 301.398 112.62 301.398 113.466C301.398 114.313 300.741 115 299.932 115H289.466Z" fill="#2A84C6"/>
<path fill-rule="evenodd" clip-rule="evenodd" d="M289.466 115C288.656 115 288 114.313 288 113.466C288 112.62 288.656 111.933 289.466 111.933H299.932C300.741 111.933 301.398 112.62 301.398 113.466C301.398 114.313 300.741 115 299.932 115H289.466Z" fill="white" fill-opacity="0.85"/>
<g filter="url(#filter2_i_433_1356)">
<rect x="280" y="64.9333" width="30.4615" height="36" rx="4" fill="white"/>
</g>
<path fill-rule="evenodd" clip-rule="evenodd" d="M303.412 84.1255C301.925 82.3327 297.317 78.8628 299.926 76.1187C302.269 73.6537 304.262 76.8748 307 80.2866L303.412 84.1255Z" fill="#B7EE81"/>
<path fill-rule="evenodd" clip-rule="evenodd" d="M303.412 84.1255C301.925 82.3327 297.317 78.8628 299.926 76.1187C302.269 73.6537 304.262 76.8748 307 80.2866L303.412 84.1255Z" fill="white" fill-opacity="0.5"/>
<path fill-rule="evenodd" clip-rule="evenodd" d="M286.357 84.1255C287.844 82.3326 292.756 78.4531 290.147 75.7087C287.804 73.2439 285.508 76.8748 282.769 80.2866L286.357 84.1255Z" fill="#B7EE81"/>
<path fill-rule="evenodd" clip-rule="evenodd" d="M286.357 84.1255C287.844 82.3326 292.756 78.4531 290.147 75.7087C287.804 73.2439 285.508 76.8748 282.769 80.2866L286.357 84.1255Z" fill="white" fill-opacity="0.5"/>
<path fill-rule="evenodd" clip-rule="evenodd" d="M289.737 89.4081C290.25 91.5332 290.349 91.8436 290.349 91.8436C293.35 92.0456 299.844 91.8436 299.844 91.8436C300.111 90.5721 300.391 89.1375 300.391 89.1375C300.391 89.1375 303.637 76.2484 302.6 75.5146C301.644 74.8382 299.943 74.3053 297.7 73.9333C297.637 74.0717 297.008 75.1512 294.908 75.1766C292.61 75.2043 292.115 74.1826 292.032 74.0034C290.15 74.2348 288.962 74.3792 287.791 75.1C287.429 75.3224 287.675 80.8645 289.737 89.4081Z" fill="#B7EE81"/>
<path fill-rule="evenodd" clip-rule="evenodd" d="M289.737 89.4081C290.25 91.5332 290.349 91.8436 290.349 91.8436C293.35 92.0456 299.844 91.8436 299.844 91.8436C300.111 90.5721 300.391 89.1375 300.391 89.1375C300.391 89.1375 303.637 76.2484 302.6 75.5146C301.644 74.8382 299.943 74.3053 297.7 73.9333C297.637 74.0717 297.008 75.1512 294.908 75.1766C292.61 75.2043 292.115 74.1826 292.032 74.0034C290.15 74.2348 288.962 74.3792 287.791 75.1C287.429 75.3224 287.675 80.8645 289.737 89.4081Z" fill="white" fill-opacity="0.5"/>
<path fill-rule="evenodd" clip-rule="evenodd" d="M334.607 279.889C340.636 288.424 352.134 290.661 360.806 284.985L439.372 233.587C450.929 226.028 453.893 210.091 445.861 198.721C437.922 187.486 422.439 185.252 411.769 193.803L338.367 252.643C330.162 259.219 328.503 271.248 334.607 279.889Z" fill="#FFC999"/>
<path fill-rule="evenodd" clip-rule="evenodd" d="M392.803 267.744L442.708 235.378C453.245 227.003 453.251 205.52 444.874 194.896C436.496 184.273 421.227 182.739 410.988 191.493L364.208 231.485C364.208 231.485 378.207 260.394 392.803 267.744Z" fill="#1443BD"/>
<path fill-rule="evenodd" clip-rule="evenodd" d="M392.803 267.744L442.708 235.378C453.245 227.003 453.251 205.52 444.874 194.896C436.496 184.273 421.227 182.739 410.988 191.493L364.208 231.485C364.208 231.485 378.207 260.394 392.803 267.744Z" fill="white" fill-opacity="0.5"/>
<path fill-rule="evenodd" clip-rule="evenodd" d="M301.487 165.475C296.442 168.143 294.141 174.243 296.126 179.686L331.035 275.336C335.046 286.32 347.448 291.37 357.744 286.212C367.807 281.17 371.61 268.481 366.037 258.539L316.384 169.964C313.394 164.63 306.828 162.651 301.487 165.475Z" fill="#FFC999"/>
<path fill-rule="evenodd" clip-rule="evenodd" d="M472.491 187.321L459.854 173.219L463.837 126.811L499.175 130.176L498.998 176.101L472.491 187.321Z" fill="#FFC999"/>
<path fill-rule="evenodd" clip-rule="evenodd" d="M454.805 122.228C454.805 122.228 449.559 116.328 447.164 120.114C444.771 123.901 448.352 137.816 454.21 138.356C462.035 139.077 454.805 122.228 454.805 122.228Z" fill="#FFC999"/>
<path fill-rule="evenodd" clip-rule="evenodd" d="M487.908 158.62C487.908 158.62 476.102 167.905 461.133 157.867C450.358 150.641 449.752 125.69 452.419 107.475C453.928 97.1673 458.761 91.7497 468.718 88.9998C478.676 86.2499 505.426 86.9928 504.675 117.44C503.838 151.354 487.908 158.62 487.908 158.62Z" fill="#FFC999"/>
<path d="M469.487 112.813L469.39 112.826C469.129 112.885 468.954 113.126 468.964 113.389L468.976 113.488L470.349 119.853L466.479 136.977C466.41 137.285 466.605 137.583 466.897 137.645L466.987 137.656L474.118 137.945C474.417 137.957 474.67 137.718 474.682 137.412C474.692 137.136 474.504 136.9 474.248 136.846L474.161 136.835L467.686 136.573L471.434 119.98C471.446 119.926 471.451 119.871 471.447 119.816L471.435 119.735L470.037 113.249C469.979 112.983 469.744 112.804 469.487 112.813Z" fill="#DD936F"/>
<path d="M479.879 142.391C479.787 141.973 479.381 141.711 478.973 141.805L478.702 141.859L478.595 141.879C478.269 141.937 477.884 141.996 477.444 142.052C474.478 142.423 470.872 142.433 466.802 141.84C466.387 141.78 466.003 142.074 465.944 142.498C465.885 142.922 466.173 143.315 466.588 143.376C470.797 143.989 474.535 143.979 477.628 143.591L478.162 143.519C478.33 143.494 478.49 143.469 478.64 143.444L479.174 143.346C479.229 143.335 479.273 143.326 479.306 143.318C479.714 143.224 479.971 142.809 479.879 142.391Z" fill="#F56D7E"/>
<path fill-rule="evenodd" clip-rule="evenodd" d="M500.899 130.384L507.046 118.834C507.046 118.834 511.217 102.038 507.602 94.6477C501.991 83.1798 488.385 83.0681 480.402 79.811C472.419 76.5524 472.576 73.7777 469.289 74.1406C466.001 74.502 453.062 83.1549 451.363 92.5632C449.869 100.835 451.321 122.069 451.321 122.069C451.321 122.069 454.153 103.391 456.064 98.4926C462.539 95.9568 485.784 96.5306 495.395 99.8839C495.395 99.8839 496.05 106.293 496.403 110.803C501.486 114.759 500.899 130.384 500.899 130.384Z" fill="#1443BD"/>
<path fill-rule="evenodd" clip-rule="evenodd" d="M500.899 130.384L507.046 118.834C507.046 118.834 511.217 102.038 507.602 94.6477C501.991 83.1798 488.385 83.0681 480.402 79.811C472.419 76.5524 472.576 73.7777 469.289 74.1406C466.001 74.502 453.062 83.1549 451.363 92.5632C449.869 100.835 451.321 122.069 451.321 122.069C451.321 122.069 454.153 103.391 456.064 98.4926C462.539 95.9568 485.784 96.5306 495.395 99.8839C495.395 99.8839 496.05 106.293 496.403 110.803C501.486 114.759 500.899 130.384 500.899 130.384Z" fill="black" fill-opacity="0.5"/>
<path d="M460.947 156.802C460.751 156.57 460.408 156.543 460.181 156.743C459.953 156.943 459.927 157.293 460.123 157.526C460.271 157.703 460.556 157.996 460.979 158.366C461.675 158.974 462.516 159.579 463.505 160.143C468.828 163.178 475.941 163.82 484.911 160.607C485.194 160.506 485.343 160.189 485.244 159.9C485.145 159.61 484.835 159.458 484.552 159.559C475.876 162.667 469.086 162.054 464.034 159.174C463.11 158.646 462.327 158.083 461.685 157.521L461.425 157.288C461.191 157.071 461.032 156.904 460.947 156.802Z" fill="#DD936F"/>
<path d="M466.485 110.874C463.982 109.842 461.445 109.275 459.017 109.433C457.306 109.544 455.722 110.019 454.313 110.907C453.633 111.336 453.421 112.248 453.84 112.944C454.26 113.64 455.152 113.857 455.832 113.428C456.817 112.807 457.943 112.47 459.201 112.388C461.131 112.263 463.266 112.739 465.401 113.62C465.941 113.843 466.448 114.078 466.913 114.315L467.254 114.493C467.58 114.668 467.805 114.8 467.913 114.868C468.594 115.296 469.486 115.079 469.905 114.382C470.324 113.686 470.111 112.774 469.43 112.346L469.122 112.159C468.504 111.797 467.6 111.335 466.485 110.874Z" fill="#1443BD"/>
<path d="M466.485 110.874C463.982 109.842 461.445 109.275 459.017 109.433C457.306 109.544 455.722 110.019 454.313 110.907C453.633 111.336 453.421 112.248 453.84 112.944C454.26 113.64 455.152 113.857 455.832 113.428C456.817 112.807 457.943 112.47 459.201 112.388C461.131 112.263 463.266 112.739 465.401 113.62C465.941 113.843 466.448 114.078 466.913 114.315L467.254 114.493C467.58 114.668 467.805 114.8 467.913 114.868C468.594 115.296 469.486 115.079 469.905 114.382C470.324 113.686 470.111 112.774 469.43 112.346L469.122 112.159C468.504 111.797 467.6 111.335 466.485 110.874Z" fill="black" fill-opacity="0.5"/>
<path d="M490.78 113.401C488.277 112.369 485.74 111.802 483.312 111.96C481.602 112.071 480.018 112.546 478.609 113.434C477.928 113.863 477.716 114.775 478.136 115.471C478.555 116.167 479.447 116.383 480.128 115.954C481.112 115.334 482.238 114.996 483.496 114.915C485.427 114.789 487.561 115.266 489.697 116.147C490.236 116.37 490.743 116.605 491.208 116.842L491.549 117.02C491.875 117.195 492.101 117.327 492.209 117.394C492.89 117.823 493.781 117.605 494.2 116.909C494.619 116.212 494.407 115.301 493.725 114.872L493.417 114.686C492.799 114.324 491.896 113.861 490.78 113.401Z" fill="#1443BD"/>
<path d="M490.78 113.401C488.277 112.369 485.74 111.802 483.312 111.96C481.602 112.071 480.018 112.546 478.609 113.434C477.928 113.863 477.716 114.775 478.136 115.471C478.555 116.167 479.447 116.383 480.128 115.954C481.112 115.334 482.238 114.996 483.496 114.915C485.427 114.789 487.561 115.266 489.697 116.147C490.236 116.37 490.743 116.605 491.208 116.842L491.549 117.02C491.875 117.195 492.101 117.327 492.209 117.394C492.89 117.823 493.781 117.605 494.2 116.909C494.619 116.212 494.407 115.301 493.725 114.872L493.417 114.686C492.799 114.324 491.896 113.861 490.78 113.401Z" fill="black" fill-opacity="0.5"/>
<path d="M469.688 147.447C469.389 147.43 469.132 147.663 469.115 147.969C469.099 148.245 469.283 148.485 469.538 148.544L469.625 148.556L473.898 148.81C474.198 148.828 474.455 148.594 474.472 148.288C474.488 148.013 474.304 147.773 474.049 147.714L473.961 147.702L469.688 147.447Z" fill="#DD936F"/>
<path d="M469.724 118.752C469.125 118.709 468.606 119.17 468.563 119.781C468.524 120.352 468.914 120.853 469.452 120.953L469.57 120.968L474.811 121.348C475.409 121.391 475.928 120.93 475.971 120.319C476.01 119.748 475.621 119.247 475.082 119.147L474.964 119.132L469.724 118.752Z" fill="#1443BD"/>
<path d="M469.724 118.752C469.125 118.709 468.606 119.17 468.563 119.781C468.524 120.352 468.914 120.853 469.452 120.953L469.57 120.968L474.811 121.348C475.409 121.391 475.928 120.93 475.971 120.319C476.01 119.748 475.621 119.247 475.082 119.147L474.964 119.132L469.724 118.752Z" fill="black" fill-opacity="0.5"/>
<path d="M474.272 122.476C473.174 121.954 472.048 121.675 470.941 121.787C470.006 121.881 469.152 122.258 468.434 122.942C467.995 123.361 467.972 124.063 468.381 124.512C468.79 124.96 469.477 124.984 469.916 124.566C470.274 124.224 470.681 124.045 471.155 123.997C471.813 123.931 472.579 124.121 473.356 124.49C473.769 124.686 474.083 124.881 474.242 124.997C474.731 125.352 475.409 125.236 475.757 124.737C476.105 124.237 475.991 123.544 475.503 123.188C475.243 122.999 474.819 122.736 474.272 122.476Z" fill="#1443BD"/>
<path d="M474.272 122.476C473.174 121.954 472.048 121.675 470.941 121.787C470.006 121.881 469.152 122.258 468.434 122.942C467.995 123.361 467.972 124.063 468.381 124.512C468.79 124.96 469.477 124.984 469.916 124.566C470.274 124.224 470.681 124.045 471.155 123.997C471.813 123.931 472.579 124.121 473.356 124.49C473.769 124.686 474.083 124.881 474.242 124.997C474.731 125.352 475.409 125.236 475.757 124.737C476.105 124.237 475.991 123.544 475.503 123.188C475.243 122.999 474.819 122.736 474.272 122.476Z" fill="black" fill-opacity="0.5"/>
<path d="M494.377 120.242C493.778 120.21 493.267 120.681 493.235 121.293C493.206 121.865 493.604 122.358 494.145 122.448L494.263 122.46L502.863 122.923C503.462 122.955 503.973 122.484 504.005 121.872C504.034 121.3 503.635 120.807 503.095 120.717L502.977 120.705L494.377 120.242Z" fill="#1443BD"/>
<path d="M494.377 120.242C493.778 120.21 493.267 120.681 493.235 121.293C493.206 121.865 493.604 122.358 494.145 122.448L494.263 122.46L502.863 122.923C503.462 122.955 503.973 122.484 504.005 121.872C504.034 121.3 503.635 120.807 503.095 120.717L502.977 120.705L494.377 120.242Z" fill="black" fill-opacity="0.5"/>
<path fill-rule="evenodd" clip-rule="evenodd" d="M493.774 119.577L477.355 118.603C476.21 118.534 475.227 119.426 475.168 120.597C475.06 122.786 474.981 126.299 475.366 129.334C475.822 132.912 478.811 135.265 482.323 135.64C486.708 136.11 490.653 136.347 492.782 134.133C496.023 130.758 495.612 124.861 495.723 121.757C495.764 120.619 494.887 119.642 493.774 119.577Z" fill="white"/>
<path d="M487.786 128.621C488.177 128.704 488.561 128.447 488.642 128.047C489.106 125.772 487.884 123.549 485.851 123.114C483.818 122.681 481.829 124.22 481.365 126.496C481.284 126.896 481.535 127.288 481.927 127.372C482.318 127.455 482.702 127.198 482.784 126.798C483.092 125.283 484.352 124.308 485.554 124.564C486.758 124.822 487.533 126.23 487.224 127.745C487.143 128.145 487.394 128.538 487.786 128.621Z" fill="#1443BD"/>
<path d="M487.786 128.621C488.177 128.704 488.561 128.447 488.642 128.047C489.106 125.772 487.884 123.549 485.851 123.114C483.818 122.681 481.829 124.22 481.365 126.496C481.284 126.896 481.535 127.288 481.927 127.372C482.318 127.455 482.702 127.198 482.784 126.798C483.092 125.283 484.352 124.308 485.554 124.564C486.758 124.822 487.533 126.23 487.224 127.745C487.143 128.145 487.394 128.538 487.786 128.621Z" fill="black" fill-opacity="0.5"/>
<path fill-rule="evenodd" clip-rule="evenodd" d="M468.177 117.87L449.59 116.768C448.743 119.504 448.798 130.283 451.857 132.774C456.001 135.316 464.689 134.838 466.161 132.586C468.397 129.169 469.535 122.466 469.664 119.559C469.703 118.674 469.043 117.922 468.177 117.87Z" fill="white"/>
<path d="M465.089 126.704C465.489 126.711 465.819 126.385 465.826 125.976C465.865 123.652 464.257 121.701 462.18 121.666C460.104 121.631 458.431 123.524 458.393 125.848C458.387 126.257 458.706 126.594 459.106 126.6C459.506 126.607 459.835 126.281 459.842 125.872C459.867 124.325 460.927 123.126 462.156 123.147C463.385 123.168 464.404 124.403 464.378 125.951C464.371 126.36 464.689 126.697 465.089 126.704Z" fill="#1443BD"/>
<path d="M465.089 126.704C465.489 126.711 465.819 126.385 465.826 125.976C465.865 123.652 464.257 121.701 462.18 121.666C460.104 121.631 458.431 123.524 458.393 125.848C458.387 126.257 458.706 126.594 459.106 126.6C459.506 126.607 459.835 126.281 459.842 125.872C459.867 124.325 460.927 123.126 462.156 123.147C463.385 123.168 464.404 124.403 464.378 125.951C464.371 126.36 464.689 126.697 465.089 126.704Z" fill="black" fill-opacity="0.5"/>
<path d="M475.202 118.026C474.602 118.006 474.101 118.487 474.082 119.1C474.064 119.673 474.472 120.157 475.015 120.235L475.133 120.246L495.515 120.908C496.114 120.927 496.616 120.446 496.635 119.833C496.652 119.261 496.244 118.776 495.702 118.698L495.584 118.688L475.202 118.026Z" fill="#1443BD"/>
<path d="M475.202 118.026C474.602 118.006 474.101 118.487 474.082 119.1C474.064 119.673 474.472 120.157 475.015 120.235L475.133 120.246L495.515 120.908C496.114 120.927 496.616 120.446 496.635 119.833C496.652 119.261 496.244 118.776 495.702 118.698L495.584 118.688L475.202 118.026Z" fill="black" fill-opacity="0.5"/>
<path d="M449.492 116.07C448.894 116.025 448.374 116.486 448.331 117.097C448.29 117.668 448.68 118.169 449.218 118.27L449.336 118.285L469.263 119.755C469.861 119.799 470.381 119.339 470.424 118.727C470.464 118.157 470.075 117.655 469.537 117.555L469.419 117.54L449.492 116.07Z" fill="#1443BD"/>
<path d="M449.492 116.07C448.894 116.025 448.374 116.486 448.331 117.097C448.29 117.668 448.68 118.169 449.218 118.27L449.336 118.285L469.263 119.755C469.861 119.799 470.381 119.339 470.424 118.727C470.464 118.157 470.075 117.655 469.537 117.555L469.419 117.54L449.492 116.07Z" fill="black" fill-opacity="0.5"/>
<path d="M477.376 118.233L493.794 119.208C495.105 119.284 496.132 120.432 496.084 121.771L496.066 122.503L496.048 123.828C496.013 125.797 495.944 126.898 495.732 128.252C495.329 130.827 494.49 132.881 493.039 134.392C491.108 136.402 488.284 136.651 482.285 136.008C478.452 135.599 475.468 133 475.008 129.382C474.68 126.803 474.65 123.747 474.806 120.578C474.876 119.203 476.029 118.153 477.376 118.233ZM477.334 118.972C476.437 118.919 475.663 119.577 475.543 120.466L475.529 120.616C475.375 123.744 475.404 126.761 475.725 129.286C476.139 132.543 478.843 134.897 482.36 135.273L483.145 135.353C488.375 135.865 490.892 135.571 492.523 133.874C493.854 132.488 494.636 130.571 495.017 128.135L495.088 127.652C495.239 126.54 495.295 125.504 495.324 123.807L495.357 121.855C495.358 121.818 495.36 121.781 495.361 121.744C495.395 120.808 494.671 120 493.753 119.946L477.334 118.972Z" fill="#1443BD"/>
<path d="M477.376 118.233L493.794 119.208C495.105 119.284 496.132 120.432 496.084 121.771L496.066 122.503L496.048 123.828C496.013 125.797 495.944 126.898 495.732 128.252C495.329 130.827 494.49 132.881 493.039 134.392C491.108 136.402 488.284 136.651 482.285 136.008C478.452 135.599 475.468 133 475.008 129.382C474.68 126.803 474.65 123.747 474.806 120.578C474.876 119.203 476.029 118.153 477.376 118.233ZM477.334 118.972C476.437 118.919 475.663 119.577 475.543 120.466L475.529 120.616C475.375 123.744 475.404 126.761 475.725 129.286C476.139 132.543 478.843 134.897 482.36 135.273L483.145 135.353C488.375 135.865 490.892 135.571 492.523 133.874C493.854 132.488 494.636 130.571 495.017 128.135L495.088 127.652C495.239 126.54 495.295 125.504 495.324 123.807L495.357 121.855C495.358 121.818 495.36 121.781 495.361 121.744C495.395 120.808 494.671 120 493.753 119.946L477.334 118.972Z" fill="black" fill-opacity="0.5"/>
<path d="M449.611 116.399L468.199 117.501C469.262 117.564 470.074 118.488 470.026 119.576C469.843 123.694 468.399 129.832 466.462 132.792C464.787 135.355 455.786 135.615 451.672 133.091C448.9 130.839 448.015 120.633 449.245 116.656C449.295 116.495 449.446 116.389 449.611 116.399ZM449.858 117.154L449.811 117.335C448.853 121.347 449.737 130.575 452.083 132.485C455.866 134.801 464.44 134.553 465.861 132.381C467.711 129.554 469.126 123.538 469.303 119.543C469.333 118.858 468.824 118.279 468.157 118.24L449.858 117.154Z" fill="#1443BD"/>
<path d="M449.611 116.399L468.199 117.501C469.262 117.564 470.074 118.488 470.026 119.576C469.843 123.694 468.399 129.832 466.462 132.792C464.787 135.355 455.786 135.615 451.672 133.091C448.9 130.839 448.015 120.633 449.245 116.656C449.295 116.495 449.446 116.389 449.611 116.399ZM449.858 117.154L449.811 117.335C448.853 121.347 449.737 130.575 452.083 132.485C455.866 134.801 464.44 134.553 465.861 132.381C467.711 129.554 469.126 123.538 469.303 119.543C469.333 118.858 468.824 118.279 468.157 118.24L449.858 117.154Z" fill="black" fill-opacity="0.5"/>
<path fill-rule="evenodd" clip-rule="evenodd" d="M503.785 120.987C505.927 118.813 509.199 118.262 511.459 120.859C515.101 125.042 511.383 140.272 501.349 140.725C497.552 140.116 500.442 124.379 503.785 120.987Z" fill="#FFC999"/>
<path fill-rule="evenodd" clip-rule="evenodd" d="M514.097 311.651C514.097 311.651 523.097 265.585 527.08 248.567C531.062 231.548 537.111 190.804 530.235 187.753C523.358 184.702 506.894 178.224 506.894 178.224C506.894 178.224 490.56 180.369 475.805 183.581C464.127 186.125 467.443 174.913 453.283 177.304C447.287 178.319 428.467 181.351 419.072 186.592C415.304 188.693 415.912 201.455 415.377 213.859C413.669 253.453 423.117 314.117 423.117 314.117C423.117 314.117 417.514 320.004 424.306 327.64C427.672 331.215 442.245 330.003 460.899 330.05C482.134 330.103 507.112 332.829 511.746 328.701C520.451 320.946 514.097 311.651 514.097 311.651Z" fill="#1443BD"/>
<path fill-rule="evenodd" clip-rule="evenodd" d="M514.097 311.651C514.097 311.651 523.097 265.585 527.08 248.567C531.062 231.548 537.111 190.804 530.235 187.753C523.358 184.702 506.894 178.224 506.894 178.224C506.894 178.224 490.56 180.369 475.805 183.581C464.127 186.125 467.443 174.913 453.283 177.304C447.287 178.319 428.467 181.351 419.072 186.592C415.304 188.693 415.912 201.455 415.377 213.859C413.669 253.453 423.117 314.117 423.117 314.117C423.117 314.117 417.514 320.004 424.306 327.64C427.672 331.215 442.245 330.003 460.899 330.05C482.134 330.103 507.112 332.829 511.746 328.701C520.451 320.946 514.097 311.651 514.097 311.651Z" fill="white" fill-opacity="0.5"/>
<path fill-rule="evenodd" clip-rule="evenodd" d="M459.292 171.354L473.528 185.328L456.445 197.556L449.043 178.923L459.292 171.354Z" fill="#1443BD"/>
<path fill-rule="evenodd" clip-rule="evenodd" d="M459.292 171.354L473.528 185.328L456.445 197.556L449.043 178.923L459.292 171.354Z" fill="white" fill-opacity="0.5"/>
<path fill-rule="evenodd" clip-rule="evenodd" d="M498.213 697.249L468.288 407.603L467.096 407.002L435.685 697.916C435.685 697.916 412.265 703.466 399.889 695.871C399.406 639.464 412.395 456.237 417.892 372.561C418.777 359.089 422.827 340.778 423.635 335.688C461.237 329.191 512.177 338.561 512.177 338.561L514.378 345.315C514.806 346.629 515.065 347.995 515.147 349.377L538.757 694.389C538.757 694.389 515.615 702.956 498.213 697.249Z" fill="#2A84C6"/>
<path fill-rule="evenodd" clip-rule="evenodd" d="M498.213 697.249L468.288 407.603L467.096 407.002L435.685 697.916C435.685 697.916 412.265 703.466 399.889 695.871C399.406 639.464 412.395 456.237 417.892 372.561C418.777 359.089 422.827 340.778 423.635 335.688C461.237 329.191 512.177 338.561 512.177 338.561L514.378 345.315C514.806 346.629 515.065 347.995 515.147 349.377L538.757 694.389C538.757 694.389 515.615 702.956 498.213 697.249Z" fill="white" fill-opacity="0.85"/>
<path d="M447.926 395.789C447.657 395.655 447.331 395.769 447.2 396.045C447.083 396.289 447.158 396.579 447.365 396.735L447.449 396.787L470.111 408.111C470.38 408.245 470.706 408.131 470.837 407.856C470.954 407.611 470.879 407.321 470.672 407.165L470.588 407.113L447.926 395.789Z" fill="#1443BD"/>
<path d="M447.926 395.789C447.657 395.655 447.331 395.769 447.2 396.045C447.083 396.289 447.158 396.579 447.365 396.735L447.449 396.787L470.111 408.111C470.38 408.245 470.706 408.131 470.837 407.856C470.954 407.611 470.879 407.321 470.672 407.165L470.588 407.113L447.926 395.789Z" fill="white" fill-opacity="0.5"/>
<path fill-rule="evenodd" clip-rule="evenodd" d="M511.973 328.58C511.973 328.58 464.093 321.344 424.292 328.473C423.965 332.08 423.623 336.522 423.623 336.522C423.623 336.522 457.68 338.92 512.745 340.308C512.592 330.517 511.973 328.58 511.973 328.58Z" fill="#2A84C6"/>
<path fill-rule="evenodd" clip-rule="evenodd" d="M511.973 328.58C511.973 328.58 464.093 321.344 424.292 328.473C423.965 332.08 423.623 336.522 423.623 336.522C423.623 336.522 457.68 338.92 512.745 340.308C512.592 330.517 511.973 328.58 511.973 328.58Z" fill="white" fill-opacity="0.85"/>
<path d="M496.463 338.921C479.022 337.47 461.119 336.912 444.4 337.766C437.374 338.124 430.745 338.73 424.579 339.603C424.282 339.645 424.074 339.925 424.115 340.229C424.156 340.533 424.431 340.745 424.728 340.703C430.86 339.834 437.458 339.232 444.454 338.875C461.119 338.024 478.977 338.581 496.375 340.028L499.136 340.266C501.84 340.507 504.366 340.758 506.691 341.009L509.298 341.301L511.155 341.524C511.332 341.546 511.467 341.563 511.558 341.575C511.855 341.615 512.127 341.4 512.166 341.096C512.204 340.791 511.994 340.513 511.696 340.474L510.625 340.34C509.875 340.249 509.019 340.149 508.062 340.042L506.021 339.82C503.117 339.513 499.916 339.208 496.463 338.921Z" fill="#1443BD"/>
<path d="M496.463 338.921C479.022 337.47 461.119 336.912 444.4 337.766C437.374 338.124 430.745 338.73 424.579 339.603C424.282 339.645 424.074 339.925 424.115 340.229C424.156 340.533 424.431 340.745 424.728 340.703C430.86 339.834 437.458 339.232 444.454 338.875C461.119 338.024 478.977 338.581 496.375 340.028L499.136 340.266C501.84 340.507 504.366 340.758 506.691 341.009L509.298 341.301L511.155 341.524C511.332 341.546 511.467 341.563 511.558 341.575C511.855 341.615 512.127 341.4 512.166 341.096C512.204 340.791 511.994 340.513 511.696 340.474L510.625 340.34C509.875 340.249 509.019 340.149 508.062 340.042L506.021 339.82C503.117 339.513 499.916 339.208 496.463 338.921Z" fill="white" fill-opacity="0.5"/>
<path d="M496.654 326.695C479.213 325.244 461.31 324.686 444.592 325.539C437.565 325.898 430.936 326.503 424.77 327.377C424.473 327.419 424.266 327.699 424.307 328.003C424.348 328.307 424.622 328.519 424.919 328.477C431.052 327.608 437.65 327.005 444.646 326.648C461.311 325.798 479.169 326.355 496.566 327.802L498.42 327.96C501.163 328.199 503.731 328.448 506.1 328.699L509.055 329.024L511.749 329.349C512.047 329.388 512.319 329.173 512.357 328.869C512.396 328.565 512.185 328.287 511.888 328.247L510.817 328.114C510.192 328.038 509.493 327.956 508.724 327.869L506.213 327.594C503.309 327.287 500.107 326.982 496.654 326.695Z" fill="#1443BD"/>
<path d="M496.654 326.695C479.213 325.244 461.31 324.686 444.592 325.539C437.565 325.898 430.936 326.503 424.77 327.377C424.473 327.419 424.266 327.699 424.307 328.003C424.348 328.307 424.622 328.519 424.919 328.477C431.052 327.608 437.65 327.005 444.646 326.648C461.311 325.798 479.169 326.355 496.566 327.802L498.42 327.96C501.163 328.199 503.731 328.448 506.1 328.699L509.055 329.024L511.749 329.349C512.047 329.388 512.319 329.173 512.357 328.869C512.396 328.565 512.185 328.287 511.888 328.247L510.817 328.114C510.192 328.038 509.493 327.956 508.724 327.869L506.213 327.594C503.309 327.287 500.107 326.982 496.654 326.695Z" fill="white" fill-opacity="0.5"/>
<path d="M464.002 327.457C463.702 327.45 463.453 327.692 463.445 327.999L463.385 330.896C463.362 332.14 463.339 333.51 463.317 334.994C463.137 347.289 463.126 360.333 463.396 372.555L463.463 375.335C463.757 386.62 464.29 396.081 465.102 403.176C465.137 403.481 465.407 403.699 465.705 403.663C466.002 403.627 466.216 403.352 466.181 403.047L466.052 401.882C465.253 394.372 464.743 384.389 464.482 372.529C464.233 361.263 464.223 349.292 464.365 337.857L464.413 334.382L464.531 328.027C464.538 327.72 464.301 327.465 464.002 327.457Z" fill="#1443BD"/>
<path d="M464.002 327.457C463.702 327.45 463.453 327.692 463.445 327.999L463.385 330.896C463.362 332.14 463.339 333.51 463.317 334.994C463.137 347.289 463.126 360.333 463.396 372.555L463.463 375.335C463.757 386.62 464.29 396.081 465.102 403.176C465.137 403.481 465.407 403.699 465.705 403.663C466.002 403.627 466.216 403.352 466.181 403.047L466.052 401.882C465.253 394.372 464.743 384.389 464.482 372.529C464.233 361.263 464.223 349.292 464.365 337.857L464.413 334.382L464.531 328.027C464.538 327.72 464.301 327.465 464.002 327.457Z" fill="white" fill-opacity="0.5"/>
<path fill-rule="evenodd" clip-rule="evenodd" d="M454.691 331.474C454.67 332.854 455.504 333.988 456.556 334.007C457.605 334.024 458.474 332.918 458.496 331.536C458.517 330.156 457.684 329.022 456.633 329.003C455.582 328.986 454.713 330.092 454.691 331.474Z" fill="white"/>
<path fill-rule="evenodd" clip-rule="evenodd" d="M473.451 184.189L486.628 201.917L506.316 178.262L499.106 169.046L473.451 184.189Z" fill="#1443BD"/>
<path fill-rule="evenodd" clip-rule="evenodd" d="M473.451 184.189L486.628 201.917L506.316 178.262L499.106 169.046L473.451 184.189Z" fill="white" fill-opacity="0.5"/>
<path d="M472.86 185.148C472.484 185.007 472.068 185.204 471.93 185.587L471.793 186.001L471.658 186.444C471.61 186.604 471.56 186.777 471.508 186.963L471.427 187.253C471.096 188.45 470.735 189.923 470.349 191.692L470.136 192.686C468.844 198.832 467.553 206.956 466.344 217.316L466.022 220.143C464.724 231.856 463.609 245.616 462.729 261.585L462.656 262.921C461.345 287.261 461.648 308.143 462.791 323.752C462.82 324.16 463.168 324.466 463.567 324.435C463.966 324.405 464.265 324.049 464.235 323.641L464.122 322.042C463.097 306.948 462.848 287.161 464.037 264.233L464.103 263.002C464.992 246.491 466.131 232.32 467.462 220.311L467.679 218.382C468.913 207.639 470.233 199.27 471.552 192.998L471.762 192.017C472.108 190.432 472.433 189.092 472.732 187.981L472.821 187.655C472.927 187.27 473.024 186.938 473.11 186.657L473.257 186.193C473.271 186.151 473.282 186.12 473.289 186.099C473.427 185.715 473.235 185.29 472.86 185.148Z" fill="#1443BD"/>
<path d="M472.86 185.148C472.484 185.007 472.068 185.204 471.93 185.587L471.793 186.001L471.658 186.444C471.61 186.604 471.56 186.777 471.508 186.963L471.427 187.253C471.096 188.45 470.735 189.923 470.349 191.692L470.136 192.686C468.844 198.832 467.553 206.956 466.344 217.316L466.022 220.143C464.724 231.856 463.609 245.616 462.729 261.585L462.656 262.921C461.345 287.261 461.648 308.143 462.791 323.752C462.82 324.16 463.168 324.466 463.567 324.435C463.966 324.405 464.265 324.049 464.235 323.641L464.122 322.042C463.097 306.948 462.848 287.161 464.037 264.233L464.103 263.002C464.992 246.491 466.131 232.32 467.462 220.311L467.679 218.382C468.913 207.639 470.233 199.27 471.552 192.998L471.762 192.017C472.108 190.432 472.433 189.092 472.732 187.981L472.821 187.655C472.927 187.27 473.024 186.938 473.11 186.657L473.257 186.193C473.271 186.151 473.282 186.12 473.289 186.099C473.427 185.715 473.235 185.29 472.86 185.148Z" fill="black" fill-opacity="0.5"/>
<path d="M415.272 210.962C414.918 210.659 414.421 210.714 414.133 211.071C414.011 211.223 413.945 211.394 413.893 211.616C413.833 211.87 413.789 212.225 413.758 212.691L413.743 212.933C413.69 213.912 413.681 215.336 413.717 217.159L413.737 218.028C413.856 222.651 414.222 229.273 414.811 237.225L415.031 240.124C416.501 259.071 418.955 282.59 422.25 308.143L422.603 310.848L422.468 311.201L422.352 311.521C422.111 312.194 421.871 312.938 421.647 313.734C421.103 315.665 420.739 317.584 420.642 319.39C420.479 322.407 421.071 324.862 422.641 326.52C422.92 326.814 423.378 326.821 423.665 326.537C423.953 326.252 423.96 325.783 423.682 325.49C422.444 324.183 421.946 322.116 422.088 319.472C422.179 317.79 422.522 315.977 423.039 314.144C423.21 313.535 423.392 312.958 423.575 312.423L423.821 311.73C423.905 311.503 423.971 311.335 424.012 311.234C424.063 311.113 424.08 310.979 424.063 310.848L423.501 306.507C420.241 281.057 417.824 257.689 416.393 238.942L416.199 236.351C415.682 229.266 415.347 223.285 415.211 218.904L415.167 217.186C415.133 215.5 415.137 214.165 415.179 213.225L415.19 213.016C415.206 212.713 415.227 212.462 415.251 212.269L415.276 212.091L415.287 212.084L415.362 212.005C415.619 211.692 415.578 211.224 415.272 210.962Z" fill="#1443BD"/>
<path d="M415.272 210.962C414.918 210.659 414.421 210.714 414.133 211.071C414.011 211.223 413.945 211.394 413.893 211.616C413.833 211.87 413.789 212.225 413.758 212.691L413.743 212.933C413.69 213.912 413.681 215.336 413.717 217.159L413.737 218.028C413.856 222.651 414.222 229.273 414.811 237.225L415.031 240.124C416.501 259.071 418.955 282.59 422.25 308.143L422.603 310.848L422.468 311.201L422.352 311.521C422.111 312.194 421.871 312.938 421.647 313.734C421.103 315.665 420.739 317.584 420.642 319.39C420.479 322.407 421.071 324.862 422.641 326.52C422.92 326.814 423.378 326.821 423.665 326.537C423.953 326.252 423.96 325.783 423.682 325.49C422.444 324.183 421.946 322.116 422.088 319.472C422.179 317.79 422.522 315.977 423.039 314.144C423.21 313.535 423.392 312.958 423.575 312.423L423.821 311.73C423.905 311.503 423.971 311.335 424.012 311.234C424.063 311.113 424.08 310.979 424.063 310.848L423.501 306.507C420.241 281.057 417.824 257.689 416.393 238.942L416.199 236.351C415.682 229.266 415.347 223.285 415.211 218.904L415.167 217.186C415.133 215.5 415.137 214.165 415.179 213.225L415.19 213.016C415.206 212.713 415.227 212.462 415.251 212.269L415.276 212.091L415.287 212.084L415.362 212.005C415.619 211.692 415.578 211.224 415.272 210.962Z" fill="black" fill-opacity="0.5"/>
<path d="M452.187 207.756L453.182 207.843C453.504 207.873 453.815 207.903 454.116 207.934L455.584 208.094L456.033 208.149C456.43 208.201 456.72 208.56 456.694 208.968L454.94 236.597C454.924 236.86 454.778 237.096 454.554 237.224L439.916 245.598C439.665 245.741 439.356 245.727 439.118 245.562L427.811 237.669C427.605 237.524 427.481 237.285 427.481 237.03L427.491 232.001L427.508 228.794C427.544 223.239 427.611 217.055 427.716 210.353C427.721 210.054 427.893 209.785 428.158 209.66C431.013 208.322 435.137 207.619 440.219 207.421C444.058 207.271 448.163 207.419 452.187 207.756ZM439.736 208.994C435.443 209.196 431.91 209.781 429.397 210.805L429.225 210.877L429.13 217.687C429.086 221.227 429.054 224.59 429.032 227.756L429.001 233.748L428.998 236.618L439.585 244.009L453.454 236.076L455.134 209.602L454.822 209.567C454 209.477 453.074 209.386 452.063 209.301C448.095 208.969 444.047 208.824 440.277 208.971L439.736 208.994Z" fill="#1443BD"/>
<path d="M452.187 207.756L453.182 207.843C453.504 207.873 453.815 207.903 454.116 207.934L455.584 208.094L456.033 208.149C456.43 208.201 456.72 208.56 456.694 208.968L454.94 236.597C454.924 236.86 454.778 237.096 454.554 237.224L439.916 245.598C439.665 245.741 439.356 245.727 439.118 245.562L427.811 237.669C427.605 237.524 427.481 237.285 427.481 237.03L427.491 232.001L427.508 228.794C427.544 223.239 427.611 217.055 427.716 210.353C427.721 210.054 427.893 209.785 428.158 209.66C431.013 208.322 435.137 207.619 440.219 207.421C444.058 207.271 448.163 207.419 452.187 207.756ZM439.736 208.994C435.443 209.196 431.91 209.781 429.397 210.805L429.225 210.877L429.13 217.687C429.086 221.227 429.054 224.59 429.032 227.756L429.001 233.748L428.998 236.618L439.585 244.009L453.454 236.076L455.134 209.602L454.822 209.567C454 209.477 453.074 209.386 452.063 209.301C448.095 208.969 444.047 208.824 440.277 208.971L439.736 208.994Z" fill="black" fill-opacity="0.5"/>
<path fill-rule="evenodd" clip-rule="evenodd" d="M472.426 197.515C472.405 198.897 473.3 200.031 474.425 200.049C475.551 200.068 476.481 198.963 476.504 197.581C476.525 196.201 475.63 195.066 474.504 195.047C473.377 195.029 472.447 196.133 472.426 197.515Z" fill="white"/>
<path fill-rule="evenodd" clip-rule="evenodd" d="M469.174 222.893C469.153 224.274 470.047 225.409 471.173 225.428C472.299 225.446 473.228 224.342 473.251 222.96C473.272 221.58 472.377 220.444 471.252 220.426C470.125 220.407 469.195 221.511 469.174 222.893Z" fill="white"/>
<path fill-rule="evenodd" clip-rule="evenodd" d="M467.111 250.377C467.09 251.758 467.985 252.892 469.11 252.911C470.236 252.929 471.165 251.825 471.188 250.443C471.209 249.063 470.314 247.928 469.189 247.909C468.062 247.89 467.132 248.996 467.111 250.377Z" fill="white"/>
<path fill-rule="evenodd" clip-rule="evenodd" d="M466.296 276.213C466.275 277.594 467.17 278.729 468.296 278.748C469.421 278.766 470.351 277.662 470.374 276.28C470.395 274.9 469.5 273.764 468.374 273.746C467.249 273.727 466.319 274.832 466.296 276.213Z" fill="white"/>
<path fill-rule="evenodd" clip-rule="evenodd" d="M466.168 310.399C466.147 311.781 467.042 312.914 468.167 312.933C469.293 312.952 470.222 311.847 470.245 310.465C470.266 309.085 469.372 307.95 468.246 307.931C467.119 307.913 466.189 309.017 466.168 310.399Z" fill="white"/>
<path d="M506.529 178.42C506.252 178.18 505.849 178.19 505.584 178.428L505.508 178.506L487.033 200.783L473.843 185.094C473.606 184.812 473.206 184.757 472.908 184.95L472.821 185.015C472.546 185.257 472.492 185.666 472.68 185.971L472.744 186.059L486.487 202.407C486.753 202.723 487.215 202.748 487.512 202.483L487.589 202.403L506.613 179.464C506.872 179.152 506.834 178.685 506.529 178.42Z" fill="#1443BD"/>
<path d="M506.529 178.42C506.252 178.18 505.849 178.19 505.584 178.428L505.508 178.506L487.033 200.783L473.843 185.094C473.606 184.812 473.206 184.757 472.908 184.95L472.821 185.015C472.546 185.257 472.492 185.666 472.68 185.971L472.744 186.059L486.487 202.407C486.753 202.723 487.215 202.748 487.512 202.483L487.589 202.403L506.613 179.464C506.872 179.152 506.834 178.685 506.529 178.42Z" fill="black" fill-opacity="0.5"/>
<path d="M451.379 179.423C451.257 179.034 450.85 178.818 450.469 178.942C450.119 179.056 449.913 179.416 449.975 179.775L449.998 179.873L455.755 198.364C455.897 198.82 456.413 199.013 456.805 198.782L456.887 198.726L473.196 185.877C473.513 185.628 473.572 185.163 473.328 184.839C473.106 184.544 472.71 184.467 472.402 184.643L472.312 184.704L456.822 196.907L451.379 179.423Z" fill="#1443BD"/>
<path d="M451.379 179.423C451.257 179.034 450.85 178.818 450.469 178.942C450.119 179.056 449.913 179.416 449.975 179.775L449.998 179.873L455.755 198.364C455.897 198.82 456.413 199.013 456.805 198.782L456.887 198.726L473.196 185.877C473.513 185.628 473.572 185.163 473.328 184.839C473.106 184.544 472.71 184.467 472.402 184.643L472.312 184.704L456.822 196.907L451.379 179.423Z" fill="black" fill-opacity="0.5"/>
<path d="M452.088 338.159C451.791 338.114 451.515 338.323 451.471 338.626L451.331 339.686L451.297 339.957C451.168 341.021 451.038 342.225 450.917 343.545C450.366 349.572 450.178 355.79 450.57 361.604C451.485 375.168 455.345 383.774 463.179 384.865C463.476 384.907 463.75 384.694 463.79 384.39C463.831 384.086 463.623 383.806 463.326 383.765C456.196 382.772 452.537 374.613 451.654 361.527C451.266 355.782 451.452 349.621 451.999 343.648L452.103 342.556C452.174 341.847 452.247 341.179 452.32 340.554L452.44 339.576L452.545 338.79C452.589 338.487 452.385 338.204 452.088 338.159Z" fill="#1443BD"/>
<path d="M452.088 338.159C451.791 338.114 451.515 338.323 451.471 338.626L451.331 339.686L451.297 339.957C451.168 341.021 451.038 342.225 450.917 343.545C450.366 349.572 450.178 355.79 450.57 361.604C451.485 375.168 455.345 383.774 463.179 384.865C463.476 384.907 463.75 384.694 463.79 384.39C463.831 384.086 463.623 383.806 463.326 383.765C456.196 382.772 452.537 374.613 451.654 361.527C451.266 355.782 451.452 349.621 451.999 343.648L452.103 342.556C452.174 341.847 452.247 341.179 452.32 340.554L452.44 339.576L452.545 338.79C452.589 338.487 452.385 338.204 452.088 338.159Z" fill="white" fill-opacity="0.5"/>
<path d="M508.306 123.091C508.193 122.807 507.877 122.67 507.599 122.785L507.409 122.871C507.295 122.925 507.157 122.997 506.999 123.086C506.563 123.332 506.127 123.63 505.718 123.982C504.214 125.281 503.46 126.963 503.924 128.999C504.1 129.771 504.447 130.183 505.092 130.575L505.37 130.735C505.924 131.045 506.062 131.198 506.113 131.679C506.211 132.602 505.8 133.291 505.012 133.82C504.75 133.996 504.466 134.138 504.181 134.249L503.927 134.34C503.882 134.354 503.846 134.364 503.821 134.371C503.529 134.444 503.351 134.744 503.422 135.042C503.493 135.34 503.787 135.522 504.079 135.449C504.474 135.351 505.037 135.131 505.608 134.748C506.708 134.01 507.34 132.948 507.193 131.559C507.101 130.699 506.773 130.284 506.051 129.853L505.784 129.701C505.273 129.413 505.089 129.219 504.982 128.748C504.623 127.17 505.199 125.884 506.419 124.831C506.769 124.529 507.146 124.271 507.523 124.059C507.747 123.933 507.917 123.851 508.006 123.814C508.284 123.699 508.418 123.375 508.306 123.091Z" fill="#DD936F"/>
<path d="M442.446 405.256C442.146 405.237 441.888 405.469 441.869 405.775C441.852 406.05 442.034 406.292 442.289 406.351L442.377 406.364L460.298 407.532C460.598 407.552 460.856 407.319 460.875 407.013C460.892 406.738 460.71 406.497 460.455 406.437L460.367 406.424L442.446 405.256Z" fill="#1443BD"/>
<path d="M442.446 405.256C442.146 405.237 441.888 405.469 441.869 405.775C441.852 406.05 442.034 406.292 442.289 406.351L442.377 406.364L460.298 407.532C460.598 407.552 460.856 407.319 460.875 407.013C460.892 406.738 460.71 406.497 460.455 406.437L460.367 406.424L442.446 405.256Z" fill="white" fill-opacity="0.5"/>
<path fill-rule="evenodd" clip-rule="evenodd" d="M317.517 172.603C317.517 172.603 301.914 125.046 284.249 113.504C278.99 113.702 283.921 120.786 287.581 126.582C289.453 129.546 290.688 133.29 290.688 133.29C290.688 133.29 283.475 132.519 284.859 138.779C279.079 138.493 281.171 145.107 281.171 145.107C281.171 145.107 276.728 145.116 278.157 151.26C279.138 155.483 284.704 160.468 285.979 164.911C290.899 182.047 298.979 182.994 302.224 183.52C310.436 184.848 315.478 181.651 317.517 172.603Z" fill="#FFC999"/>
<path d="M307.38 151.127L301.056 137.125L300.898 136.518C299.499 131.38 297.282 129.277 295.383 131.132C293.749 132.727 293.461 136.799 294.924 140.5C297.836 147.866 298.13 151.276 297.083 155.296L296.737 156.581C296.542 157.343 296.43 157.954 296.383 158.602C296.182 161.384 296.314 163.975 297.072 166.473C298.178 170.124 300.465 172.697 304.184 173.735C304.473 173.816 304.771 173.641 304.85 173.345C304.929 173.05 304.759 172.744 304.47 172.664C298.586 171.021 296.961 165.659 297.466 158.684C297.501 158.194 297.581 157.721 297.715 157.154L297.864 156.569C297.912 156.391 297.971 156.174 298.06 155.851L298.199 155.319C299.227 151.17 298.867 147.512 295.931 140.084C294.618 136.763 294.873 133.166 296.133 131.935C297.149 130.942 298.651 132.373 299.872 136.863L300.037 137.494L306.394 151.592C306.519 151.871 306.842 151.992 307.114 151.864C307.356 151.75 307.477 151.477 307.413 151.222L307.38 151.127Z" fill="#DD936F"/>
<path d="M284.619 138.281C284.35 138.415 284.239 138.748 284.371 139.023L284.577 139.442C284.741 139.772 284.929 140.14 285.138 140.535C285.733 141.666 286.371 142.797 287.028 143.854C287.731 144.987 288.415 145.968 289.067 146.756C290.398 148.364 291.561 149.151 292.626 148.818C295.019 148.068 295.753 146.267 295.154 143.926C294.927 143.039 294.52 142.108 293.985 141.163C293.692 140.647 293.38 140.158 293.067 139.712L292.817 139.364C292.745 139.268 292.686 139.191 292.642 139.136C292.453 138.898 292.111 138.862 291.878 139.056C291.646 139.249 291.611 139.599 291.8 139.837L292.023 140.133C292.072 140.2 292.126 140.276 292.184 140.359C292.477 140.778 292.771 141.237 293.045 141.719C293.535 142.585 293.905 143.429 294.103 144.207C294.567 146.018 294.085 147.199 292.308 147.756C291.823 147.907 290.958 147.321 289.896 146.039C289.28 145.294 288.623 144.352 287.944 143.259C287.303 142.226 286.678 141.118 286.094 140.009L285.803 139.449L285.346 138.535C285.214 138.26 284.889 138.146 284.619 138.281Z" fill="#DD936F"/>
<path d="M281.955 145.249C281.859 144.958 281.551 144.802 281.267 144.901C280.982 144.999 280.83 145.314 280.926 145.605L281.049 145.952L281.21 146.379C281.268 146.528 281.331 146.684 281.397 146.846C281.777 147.77 282.217 148.694 282.713 149.56C284.253 152.248 285.992 153.836 287.976 153.676C289.927 153.519 290.838 152.214 290.89 150.291C290.909 149.591 290.815 148.854 290.647 148.122C290.555 147.723 290.462 147.412 290.398 147.228C290.297 146.939 289.986 146.789 289.704 146.892C289.421 146.995 289.274 147.313 289.375 147.602L289.435 147.789C289.481 147.94 289.535 148.14 289.589 148.377C289.738 149.022 289.821 149.669 289.805 150.26C289.766 151.67 289.213 152.462 287.89 152.569C286.458 152.685 284.998 151.351 283.65 148.998C283.181 148.179 282.761 147.297 282.398 146.415L282.22 145.97L281.997 145.369C281.978 145.317 281.964 145.276 281.955 145.249Z" fill="#DD936F"/>
<path d="M277.873 149.807C277.582 149.879 277.404 150.18 277.475 150.478L277.558 150.796L277.711 151.322C277.739 151.415 277.769 151.511 277.801 151.609C278.071 152.449 278.396 153.29 278.778 154.079C280.194 157.003 282.032 158.526 284.314 157.631C285.931 156.998 286.565 155.811 286.32 154.347C286.201 153.63 285.881 152.89 285.424 152.148C285.224 151.823 285.011 151.519 284.797 151.243L284.596 150.992C284.559 150.948 284.528 150.912 284.503 150.884C284.301 150.657 283.958 150.641 283.736 150.847C283.514 151.054 283.498 151.405 283.7 151.632L283.824 151.778C283.86 151.823 283.901 151.874 283.946 151.933C284.137 152.178 284.328 152.45 284.505 152.739C284.892 153.369 285.158 153.984 285.25 154.534C285.408 155.484 285.051 156.153 283.926 156.594C282.344 157.214 280.948 156.058 279.751 153.586C279.394 152.849 279.088 152.056 278.833 151.262C278.773 151.077 278.719 150.9 278.671 150.735L278.53 150.214C278.466 149.949 278.227 149.776 277.97 149.791L277.873 149.807Z" fill="#DD936F"/>
<path d="M363.834 230.852C363.492 231.064 363.382 231.519 363.59 231.869L364.41 233.228L365.182 234.485C365.812 235.504 366.5 236.6 367.239 237.759C370.054 242.172 373.027 246.586 376.026 250.708C378.199 253.694 380.306 256.416 382.322 258.814C386.163 263.385 389.564 266.658 392.437 268.383C392.637 268.503 392.88 268.517 393.089 268.425L393.191 268.37L416.897 253.012C417.235 252.793 417.335 252.336 417.121 251.99C416.926 251.676 416.539 251.563 416.216 251.709L416.121 251.761L392.796 266.872L392.602 266.748C390.106 265.101 387.137 262.221 383.806 258.305L383.42 257.849C381.429 255.479 379.342 252.784 377.188 249.824C374.209 245.729 371.252 241.34 368.453 236.95L367.735 235.819C367.151 234.894 366.604 234.016 366.098 233.193L365.342 231.956L364.828 231.102C364.621 230.752 364.176 230.64 363.834 230.852Z" fill="#1443BD"/>
<path d="M363.834 230.852C363.492 231.064 363.382 231.519 363.59 231.869L364.41 233.228L365.182 234.485C365.812 235.504 366.5 236.6 367.239 237.759C370.054 242.172 373.027 246.586 376.026 250.708C378.199 253.694 380.306 256.416 382.322 258.814C386.163 263.385 389.564 266.658 392.437 268.383C392.637 268.503 392.88 268.517 393.089 268.425L393.191 268.37L416.897 253.012C417.235 252.793 417.335 252.336 417.121 251.99C416.926 251.676 416.539 251.563 416.216 251.709L416.121 251.761L392.796 266.872L392.602 266.748C390.106 265.101 387.137 262.221 383.806 258.305L383.42 257.849C381.429 255.479 379.342 252.784 377.188 249.824C374.209 245.729 371.252 241.34 368.453 236.95L367.735 235.819C367.151 234.894 366.604 234.016 366.098 233.193L365.342 231.956L364.828 231.102C364.621 230.752 364.176 230.64 363.834 230.852Z" fill="black" fill-opacity="0.5"/>
<path d="M353.781 233.495C353.641 233.224 353.313 233.12 353.048 233.262C352.812 233.389 352.705 233.668 352.782 233.919L352.819 234.012L365.556 258.798C365.696 259.07 366.024 259.174 366.29 259.032C366.526 258.905 366.633 258.625 366.556 258.374L366.518 258.282L353.781 233.495Z" fill="#DD936F"/>
<path fill-rule="evenodd" clip-rule="evenodd" d="M562.997 316.928C572.502 312.878 577.261 301.947 573.844 292.016L542.885 202.052C538.331 188.822 523.838 182.224 511.175 187.619C498.661 192.949 492.992 207.85 498.692 220.425L537.917 306.952C542.301 316.624 553.374 321.027 562.997 316.928Z" fill="#FFC999"/>
<path fill-rule="evenodd" clip-rule="evenodd" d="M561.715 256.221L542.319 199.142C536.756 186.737 516.304 181.816 504.273 187.724C492.242 193.631 487.288 208.48 493.28 220.674L520.653 276.386C520.653 276.386 551.379 269.067 561.715 256.221Z" fill="#1443BD"/>
<path fill-rule="evenodd" clip-rule="evenodd" d="M561.715 256.221L542.319 199.142C536.756 186.737 516.304 181.816 504.273 187.724C492.242 193.631 487.288 208.48 493.28 220.674L520.653 276.386C520.653 276.386 551.379 269.067 561.715 256.221Z" fill="white" fill-opacity="0.5"/>
<path d="M506.009 234.337C505.852 233.961 505.427 233.786 505.059 233.946C504.724 234.091 504.552 234.464 504.641 234.813L504.676 234.917L521.76 275.966C521.907 276.318 522.291 276.498 522.648 276.381L524.155 275.871L525.55 275.385C526.681 274.987 527.897 274.549 529.182 274.073C534.079 272.261 538.977 270.284 543.551 268.207L544.871 267.601C551.82 264.37 557.268 261.21 560.705 258.207C561.274 257.71 561.785 257.219 562.239 256.733C562.515 256.437 562.504 255.968 562.215 255.686C561.925 255.403 561.467 255.415 561.191 255.71C560.773 256.159 560.296 256.616 559.764 257.081C556.244 260.156 550.425 263.465 542.963 266.854C538.423 268.915 533.557 270.879 528.69 272.68L527.435 273.141C526.41 273.514 525.436 273.861 524.524 274.179L522.833 274.761L506.009 234.337Z" fill="#1443BD"/>
<path d="M506.009 234.337C505.852 233.961 505.427 233.786 505.059 233.946C504.724 234.091 504.552 234.464 504.641 234.813L504.676 234.917L521.76 275.966C521.907 276.318 522.291 276.498 522.648 276.381L524.155 275.871L525.55 275.385C526.681 274.987 527.897 274.549 529.182 274.073C534.079 272.261 538.977 270.284 543.551 268.207L544.871 267.601C551.82 264.37 557.268 261.21 560.705 258.207C561.274 257.71 561.785 257.219 562.239 256.733C562.515 256.437 562.504 255.968 562.215 255.686C561.925 255.403 561.467 255.415 561.191 255.71C560.773 256.159 560.296 256.616 559.764 257.081C556.244 260.156 550.425 263.465 542.963 266.854C538.423 268.915 533.557 270.879 528.69 272.68L527.435 273.141C526.41 273.514 525.436 273.861 524.524 274.179L522.833 274.761L506.009 234.337Z" fill="black" fill-opacity="0.5"/>
<path fill-rule="evenodd" clip-rule="evenodd" d="M443.748 306.158C444.307 311.937 449 316.379 454.679 316.505L554.504 318.708C565.967 318.96 575.142 309.045 574.261 297.355C573.401 285.93 563.276 277.626 552.181 279.246L453.335 293.665C447.383 294.534 443.157 300.041 443.748 306.158Z" fill="#FFC999"/>
<path fill-rule="evenodd" clip-rule="evenodd" d="M451.918 332.405L429.971 262.206C429.608 261.048 428.565 260.257 427.375 260.241L365.832 259.389C363.92 259.363 362.561 261.282 363.182 263.131L386.092 331.466C386.461 332.565 387.45 333.321 388.585 333.372L449.165 336.089C451.087 336.174 452.504 334.279 451.918 332.405Z" fill="#2A84C6"/>
<path fill-rule="evenodd" clip-rule="evenodd" d="M451.918 332.405L429.971 262.206C429.608 261.048 428.565 260.257 427.375 260.241L365.832 259.389C363.92 259.363 362.561 261.282 363.182 263.131L386.092 331.466C386.461 332.565 387.45 333.321 388.585 333.372L449.165 336.089C451.087 336.174 452.504 334.279 451.918 332.405Z" fill="black" fill-opacity="0.2"/>
<path fill-rule="evenodd" clip-rule="evenodd" d="M448.674 331.55L427.109 262.573C426.67 261.172 425.405 260.214 423.966 260.194L361.662 259.331C360.326 259.314 359.375 260.656 359.809 261.948L383.038 331.229C383.446 332.446 384.539 333.284 385.797 333.34L445.34 336.011C447.667 336.115 449.384 333.818 448.674 331.55Z" fill="#1443BD"/>
<path fill-rule="evenodd" clip-rule="evenodd" d="M448.674 331.55L427.109 262.573C426.67 261.172 425.405 260.214 423.966 260.194L361.662 259.331C360.326 259.314 359.375 260.656 359.809 261.948L383.038 331.229C383.446 332.446 384.539 333.284 385.797 333.34L445.34 336.011C447.667 336.115 449.384 333.818 448.674 331.55Z" fill="black" fill-opacity="0.5"/>
<path fill-rule="evenodd" clip-rule="evenodd" d="M418.672 266.84C417.976 267.633 418.226 269.024 419.232 269.95C420.238 270.874 421.618 270.982 422.316 270.191C423.012 269.398 422.762 268.005 421.756 267.081C420.75 266.155 419.368 266.048 418.672 266.84Z" fill="#2A84C6"/>
<path fill-rule="evenodd" clip-rule="evenodd" d="M418.672 266.84C417.976 267.633 418.226 269.024 419.232 269.95C420.238 270.874 421.618 270.982 422.316 270.191C423.012 269.398 422.762 268.005 421.756 267.081C420.75 266.155 419.368 266.048 418.672 266.84Z" fill="white" fill-opacity="0.85"/>
<path fill-rule="evenodd" clip-rule="evenodd" d="M419.5 267.669C419.137 268.08 419.268 268.803 419.789 269.284C420.313 269.763 421.029 269.819 421.391 269.408C421.752 268.997 421.622 268.274 421.1 267.793C420.578 267.314 419.861 267.258 419.5 267.669Z" fill="#2A84C6"/>
<path fill-rule="evenodd" clip-rule="evenodd" d="M419.5 267.669C419.137 268.08 419.268 268.803 419.789 269.284C420.313 269.763 421.029 269.819 421.391 269.408C421.752 268.997 421.622 268.274 421.1 267.793C420.578 267.314 419.861 267.258 419.5 267.669Z" fill="white" fill-opacity="0.85"/>
<path fill-rule="evenodd" clip-rule="evenodd" d="M424.522 319.205C420.986 318.855 419.127 317.342 419.462 314.33C415.209 312.962 415.683 309.279 415.683 309.279C415.683 309.279 407.497 309.15 406.12 305.574C405.584 304.184 406.623 302.698 408.079 302.597C425.619 301.381 438.125 291.878 438.125 291.878C438.125 291.878 431.23 281.525 431.959 276.747C432.175 275.334 433.981 274.878 434.826 276.018C442.057 285.775 456.557 293.426 456.557 293.426C456.557 293.426 473.963 310.101 455.082 317.662C455.082 317.662 440.689 323.526 430.668 322.783C425.924 322.433 424.522 319.205 424.522 319.205Z" fill="#FFC999"/>
<path d="M428.583 306.101C428.437 305.833 428.106 305.737 427.844 305.887C426.588 306.605 425.121 307.19 423.484 307.652C421.532 308.203 419.437 308.555 417.329 308.747L416.688 308.8C415.862 308.863 415.154 308.892 414.603 308.899L414.195 308.9C413.895 308.896 413.648 309.141 413.644 309.448C413.641 309.723 413.835 309.955 414.092 310.002L414.18 310.01L414.404 310.011C415.138 310.009 416.178 309.966 417.425 309.853C419.594 309.656 421.752 309.293 423.773 308.723C425.488 308.238 427.036 307.621 428.374 306.856C428.636 306.707 428.73 306.368 428.583 306.101Z" fill="#DD936F"/>
<path d="M430.234 311.612C430.103 311.336 429.778 311.22 429.508 311.354C429.347 311.434 429.183 311.512 429.019 311.588C426.936 312.548 424.7 313.164 422.454 313.503C421.067 313.711 419.955 313.779 419.264 313.774C418.956 313.77 418.709 314.015 418.705 314.321C418.701 314.597 418.895 314.829 419.153 314.876L419.241 314.884H419.435L419.837 314.875C420.553 314.849 421.5 314.769 422.612 314.601C424.951 314.249 427.283 313.607 429.465 312.6C429.639 312.52 429.811 312.438 429.981 312.354C430.251 312.22 430.364 311.888 430.234 311.612Z" fill="#DD936F"/>
<path d="M433.355 317.77C433.225 317.494 432.9 317.378 432.63 317.512C432.052 317.797 430.688 318.064 428.834 318.283C427.885 318.394 426.868 318.488 425.85 318.563L424.494 318.651C424.195 318.667 423.964 318.928 423.98 319.234C423.995 319.54 424.25 319.776 424.55 319.76L425.662 319.69L425.928 319.67C426.96 319.594 427.993 319.5 428.958 319.386L429.635 319.301C431.269 319.085 432.459 318.83 433.103 318.511C433.373 318.378 433.486 318.046 433.355 317.77Z" fill="#DD936F"/>
<path d="M552.108 278.695L455.726 292.158C455.429 292.199 455.221 292.479 455.262 292.783C455.298 293.056 455.524 293.256 455.785 293.263L455.873 293.258L552.255 279.795C552.552 279.754 552.76 279.474 552.719 279.17C552.683 278.896 552.457 278.697 552.196 278.69L552.108 278.695Z" fill="#DD936F"/>
<g filter="url(#filter3_ddddd_433_1356)">
<path d="M156.199 159.407H73.2011C71.5636 159.407 70.2362 160.765 70.2362 162.439V221.218C70.2362 222.893 71.5636 224.25 73.2011 224.25H156.199C157.836 224.25 159.164 222.893 159.164 221.218V162.439C159.164 160.765 157.836 159.407 156.199 159.407Z" fill="white"/>
</g>
<path d="M142.486 216.404C143.772 216.404 144.814 214.153 144.814 211.377C144.814 208.601 143.772 206.351 142.486 206.351C141.199 206.351 140.157 208.601 140.157 211.377C140.157 214.153 141.199 216.404 142.486 216.404Z" fill="white"/>
<path d="M159.122 179.237H70.2787V188.64H159.122V179.237Z" fill="#1443BD"/>
<path d="M159.122 179.237H70.2787V188.64H159.122V179.237Z" fill="black" fill-opacity="0.5"/>
<path d="M107.358 198.384H77.5675C77.0217 198.384 76.5792 198.837 76.5792 199.395V200.622C76.5792 201.18 77.0217 201.632 77.5675 201.632H107.358C107.903 201.632 108.346 201.18 108.346 200.622V199.395C108.346 198.837 107.903 198.384 107.358 198.384Z" fill="#1443BD"/>
<path d="M107.358 198.384H77.5675C77.0217 198.384 76.5792 198.837 76.5792 199.395V200.622C76.5792 201.18 77.0217 201.632 77.5675 201.632H107.358C107.903 201.632 108.346 201.18 108.346 200.622V199.395C108.346 198.837 107.903 198.384 107.358 198.384Z" fill="white" fill-opacity="0.2"/>
<path d="M94.7502 208.129H77.5675C77.0217 208.129 76.5792 208.581 76.5792 209.139V210.367C76.5792 210.925 77.0217 211.377 77.5675 211.377H94.7502C95.296 211.377 95.7385 210.925 95.7385 210.367V209.139C95.7385 208.581 95.296 208.129 94.7502 208.129Z" fill="#1443BD"/>
<path d="M94.7502 208.129H77.5675C77.0217 208.129 76.5792 208.581 76.5792 209.139V210.367C76.5792 210.925 77.0217 211.377 77.5675 211.377H94.7502C95.296 211.377 95.7385 210.925 95.7385 210.367V209.139C95.7385 208.581 95.296 208.129 94.7502 208.129Z" fill="white" fill-opacity="0.2"/>
<path d="M85.1705 165.941H77.5675C77.0217 165.941 76.5792 166.394 76.5792 166.952V171.388C76.5792 171.947 77.0217 172.399 77.5675 172.399H85.1705C85.7164 172.399 86.1588 171.947 86.1588 171.388V166.952C86.1588 166.394 85.7164 165.941 85.1705 165.941Z" fill="#1443BD"/>
<path d="M140.156 211.377C140.154 209.429 141.01 207.583 142.486 206.35C139.898 204.182 136.108 204.437 133.821 206.935C131.534 209.433 131.534 213.317 133.821 215.815C136.108 218.313 139.898 218.568 142.486 216.399C141.011 215.168 140.156 213.324 140.156 211.377Z" fill="#F56D7E"/>
<path d="M146.51 204.881C145.042 204.879 143.62 205.398 142.486 206.351C143.959 207.585 144.812 209.429 144.812 211.375C144.812 213.322 143.959 215.166 142.486 216.4C144.65 218.215 147.721 218.368 150.048 216.777C152.374 215.186 153.409 212.225 152.594 209.487C151.78 206.749 149.309 204.878 146.51 204.881Z" fill="#B7EE81"/>
<path d="M146.51 204.881C145.042 204.879 143.62 205.398 142.486 206.351C143.959 207.585 144.812 209.429 144.812 211.375C144.812 213.322 143.959 215.166 142.486 216.4C144.65 218.215 147.721 218.368 150.048 216.777C152.374 215.186 153.409 212.225 152.594 209.487C151.78 206.749 149.309 204.878 146.51 204.881Z" fill="white" fill-opacity="0.2"/>
<path fill-rule="evenodd" clip-rule="evenodd" d="M355.631 73.2384C364.801 73.2384 372.235 80.8392 372.235 90.2152V90.2586C372.235 99.6346 364.801 107.235 355.631 107.235H331.146C330.232 107.235 329.334 107.16 328.46 107.014L323.716 111.699C323.587 111.827 323.415 111.898 323.235 111.898C322.853 111.898 322.544 111.581 322.544 111.191L322.543 104.782C317.747 101.805 314.543 96.4144 314.543 90.2586V90.2152C314.543 80.8392 321.977 73.2384 331.146 73.2384H355.631Z" fill="#2A84C6"/>
<path fill-rule="evenodd" clip-rule="evenodd" d="M355.631 73.2384C364.801 73.2384 372.235 80.8392 372.235 90.2152V90.2586C372.235 99.6346 364.801 107.235 355.631 107.235H331.146C330.232 107.235 329.334 107.16 328.46 107.014L323.716 111.699C323.587 111.827 323.415 111.898 323.235 111.898C322.853 111.898 322.544 111.581 322.544 111.191L322.543 104.782C317.747 101.805 314.543 96.4144 314.543 90.2586V90.2152C314.543 80.8392 321.977 73.2384 331.146 73.2384H355.631Z" fill="white" fill-opacity="0.5"/>
<g filter="url(#filter4_ddddd_433_1356)">
<path d="M351.605 32.5649H386.565C399.665 32.5649 410.284 43.4232 410.284 56.8175C410.284 70.2119 399.665 81.0701 386.565 81.0701H351.605C338.505 81.0701 327.885 70.2119 327.885 56.8175C327.885 43.4232 338.505 32.5649 351.605 32.5649Z" fill="white"/>
<path fill-rule="evenodd" clip-rule="evenodd" d="M398.857 74.0154V86.7119C398.857 87.27 398.415 87.7225 397.869 87.7225C397.613 87.7225 397.367 87.6209 397.183 87.4391L388.058 78.4369L398.857 74.0154Z" fill="white"/>
</g>
<path d="M384.959 59.8487C382.844 59.8487 381.13 58.0956 381.13 55.9329C381.13 53.7703 382.844 52.0172 384.959 52.0172C387.074 52.0172 388.789 53.7703 388.789 55.9329C388.789 58.0956 387.074 59.8487 384.959 59.8487Z" fill="#1443BD"/>
<path d="M384.959 59.8487C382.844 59.8487 381.13 58.0956 381.13 55.9329C381.13 53.7703 382.844 52.0172 384.959 52.0172C387.074 52.0172 388.789 53.7703 388.789 55.9329C388.789 58.0956 387.074 59.8487 384.959 59.8487Z" fill="black" fill-opacity="0.5"/>
<path d="M369.27 59.8487C367.155 59.8487 365.44 58.0956 365.44 55.9329C365.44 53.7703 367.155 52.0172 369.27 52.0172C371.385 52.0172 373.1 53.7703 373.1 55.9329C373.1 58.0956 371.385 59.8487 369.27 59.8487Z" fill="#1443BD"/>
<path d="M369.27 59.8487C367.155 59.8487 365.44 58.0956 365.44 55.9329C365.44 53.7703 367.155 52.0172 369.27 52.0172C371.385 52.0172 373.1 53.7703 373.1 55.9329C373.1 58.0956 371.385 59.8487 369.27 59.8487Z" fill="black" fill-opacity="0.5"/>
<path d="M353.21 59.8487C351.095 59.8487 349.381 58.0956 349.381 55.9329C349.381 53.7703 351.095 52.0172 353.21 52.0172C355.325 52.0172 357.04 53.7703 357.04 55.9329C357.04 58.0956 355.325 59.8487 353.21 59.8487Z" fill="#1443BD"/>
<path d="M353.21 59.8487C351.095 59.8487 349.381 58.0956 349.381 55.9329C349.381 53.7703 351.095 52.0172 353.21 52.0172C355.325 52.0172 357.04 53.7703 357.04 55.9329C357.04 58.0956 355.325 59.8487 353.21 59.8487Z" fill="black" fill-opacity="0.5"/>
<path fill-rule="evenodd" clip-rule="evenodd" d="M242.016 274.401H228.329V226.455C228.329 222.638 231.377 219.544 235.137 219.544H235.208C238.968 219.544 242.016 222.638 242.016 226.455V274.401Z" fill="#B7EE81"/>
<path fill-rule="evenodd" clip-rule="evenodd" d="M242.016 274.401H228.329V226.455C228.329 222.638 231.377 219.544 235.137 219.544H235.208C238.968 219.544 242.016 222.638 242.016 226.455V274.401Z" fill="white" fill-opacity="0.2"/>
<path fill-rule="evenodd" clip-rule="evenodd" d="M248.821 286.137H235.095V261.1C235.095 257.385 238.076 254.373 241.752 254.373H242.164C245.841 254.373 248.821 257.385 248.821 261.1V286.137Z" fill="#B7EE81"/>
<path fill-rule="evenodd" clip-rule="evenodd" d="M248.821 286.137H235.095V261.1C235.095 257.385 238.076 254.373 241.752 254.373H242.164C245.841 254.373 248.821 257.385 248.821 261.1V286.137Z" fill="black" fill-opacity="0.35"/>
<path fill-rule="evenodd" clip-rule="evenodd" d="M230.337 274.376H216.519V247.155C216.519 243.418 219.507 240.389 223.194 240.389H223.662C227.349 240.389 230.337 243.418 230.337 247.155V274.376Z" fill="#B7EE81"/>
<path fill-rule="evenodd" clip-rule="evenodd" d="M230.337 274.376H216.519V247.155C216.519 243.418 219.507 240.389 223.194 240.389H223.662C227.349 240.389 230.337 243.418 230.337 247.155V274.376Z" fill="white" fill-opacity="0.2"/>
<path fill-rule="evenodd" clip-rule="evenodd" d="M246 314.295H217C215.579 314.295 213.573 312.371 213.573 310.933L211 275.537C211 274.099 212.152 272.933 213.573 272.933H249.518C250.939 272.933 252.091 274.099 252.091 275.537L248.5 310.933C248.5 312.371 247.421 314.295 246 314.295Z" fill="#1443BD"/>
<path fill-rule="evenodd" clip-rule="evenodd" d="M246 314.295H217C215.579 314.295 213.573 312.371 213.573 310.933L211 275.537C211 274.099 212.152 272.933 213.573 272.933H249.518C250.939 272.933 252.091 274.099 252.091 275.537L248.5 310.933C248.5 312.371 247.421 314.295 246 314.295Z" fill="black" fill-opacity="0.2"/>
<path fill-rule="evenodd" clip-rule="evenodd" d="M244.165 325.054L257.211 489.419H268.412L255.367 325.054H244.165Z" fill="#F2F2F2"/>
<path fill-rule="evenodd" clip-rule="evenodd" d="M208.492 325.054L195.446 489.419H206.648L219.693 325.054H208.492Z" fill="#F2F2F2"/>
<path fill-rule="evenodd" clip-rule="evenodd" d="M199.209 335.723C192.518 335.723 187.095 330.94 187.095 325.04C187.095 319.139 192.518 314.355 199.209 314.355H265.677C272.367 314.355 277.792 319.139 277.792 325.04C277.792 330.94 272.367 335.723 265.677 335.723H199.209Z" fill="#2A84C6"/>
<path fill-rule="evenodd" clip-rule="evenodd" d="M199.209 335.723C192.518 335.723 187.095 330.94 187.095 325.04C187.095 319.139 192.518 314.355 199.209 314.355H265.677C272.367 314.355 277.792 319.139 277.792 325.04C277.792 330.94 272.367 335.723 265.677 335.723H199.209Z" fill="white" fill-opacity="0.65"/>
<path d="M162 76.9333C162 83.0085 157.075 87.9333 151 87.9333C144.925 87.9333 140 83.0085 140 76.9333C140 70.8582 144.925 65.9333 151 65.9333C157.075 65.9333 162 70.8582 162 76.9333Z" fill="white"/>
<mask id="mask0_433_1356" style="mask-type:alpha" maskUnits="userSpaceOnUse" x="140" y="65" width="22" height="23">
<circle cx="151" cy="76.9333" r="11" fill="#C4C4C4"/>
</mask>
<g mask="url(#mask0_433_1356)">
<circle cx="151" cy="76.9333" r="3" fill="#1443BD"/>
<circle cx="151" cy="76.9333" r="3" fill="white" fill-opacity="0.5"/>
<circle cx="151" cy="87.4333" r="7.5" fill="#1443BD"/>
<circle cx="151" cy="87.4333" r="7.5" fill="white" fill-opacity="0.5"/>
</g>
<defs>
<filter id="filter0_i_433_1356" x="192" y="64.9333" width="30.4614" height="36" filterUnits="userSpaceOnUse" color-interpolation-filters="sRGB">
<feFlood flood-opacity="0" result="BackgroundImageFix"/>
<feBlend mode="normal" in="SourceGraphic" in2="BackgroundImageFix" result="shape"/>
<feColorMatrix in="SourceAlpha" type="matrix" values="0 0 0 0 0 0 0 0 0 0 0 0 0 0 0 0 0 0 127 0" result="hardAlpha"/>
<feOffset dy="-1"/>
<feComposite in2="hardAlpha" operator="arithmetic" k2="-1" k3="1"/>
<feColorMatrix type="matrix" values="0 0 0 0 0 0 0 0 0 0 0 0 0 0 0 0 0 0 0.12 0"/>
<feBlend mode="normal" in2="shape" result="effect1_innerShadow_433_1356"/>
</filter>
<filter id="filter1_i_433_1356" x="236" y="64.9333" width="30.4614" height="36" filterUnits="userSpaceOnUse" color-interpolation-filters="sRGB">
<feFlood flood-opacity="0" result="BackgroundImageFix"/>
<feBlend mode="normal" in="SourceGraphic" in2="BackgroundImageFix" result="shape"/>
<feColorMatrix in="SourceAlpha" type="matrix" values="0 0 0 0 0 0 0 0 0 0 0 0 0 0 0 0 0 0 127 0" result="hardAlpha"/>
<feOffset dy="-1"/>
<feComposite in2="hardAlpha" operator="arithmetic" k2="-1" k3="1"/>
<feColorMatrix type="matrix" values="0 0 0 0 0 0 0 0 0 0 0 0 0 0 0 0 0 0 0.12 0"/>
<feBlend mode="normal" in2="shape" result="effect1_innerShadow_433_1356"/>
</filter>
<filter id="filter2_i_433_1356" x="280" y="64.9333" width="30.4614" height="36" filterUnits="userSpaceOnUse" color-interpolation-filters="sRGB">
<feFlood flood-opacity="0" result="BackgroundImageFix"/>
<feBlend mode="normal" in="SourceGraphic" in2="BackgroundImageFix" result="shape"/>
<feColorMatrix in="SourceAlpha" type="matrix" values="0 0 0 0 0 0 0 0 0 0 0 0 0 0 0 0 0 0 127 0" result="hardAlpha"/>
<feOffset dy="-1"/>
<feComposite in2="hardAlpha" operator="arithmetic" k2="-1" k3="1"/>
<feColorMatrix type="matrix" values="0 0 0 0 0 0 0 0 0 0 0 0 0 0 0 0 0 0 0.12 0"/>
<feBlend mode="normal" in2="shape" result="effect1_innerShadow_433_1356"/>
</filter>
<filter id="filter3_ddddd_433_1356" x="0.236206" y="129.407" width="228.928" height="204.843" filterUnits="userSpaceOnUse" color-interpolation-filters="sRGB">
<feFlood flood-opacity="0" result="BackgroundImageFix"/>
<feColorMatrix in="SourceAlpha" type="matrix" values="0 0 0 0 0 0 0 0 0 0 0 0 0 0 0 0 0 0 127 0" result="hardAlpha"/>
<feOffset dy="6"/>
<feGaussianBlur stdDeviation="4"/>
<feColorMatrix type="matrix" values="0 0 0 0 0.705882 0 0 0 0 0.831373 0 0 0 0 0.921569 0 0 0 0.12 0"/>
<feBlend mode="normal" in2="BackgroundImageFix" result="effect1_dropShadow_433_1356"/>
<feColorMatrix in="SourceAlpha" type="matrix" values="0 0 0 0 0 0 0 0 0 0 0 0 0 0 0 0 0 0 127 0" result="hardAlpha"/>
<feOffset dy="8"/>
<feGaussianBlur stdDeviation="12"/>
<feColorMatrix type="matrix" values="0 0 0 0 0.705882 0 0 0 0 0.831373 0 0 0 0 0.921569 0 0 0 0.08 0"/>
<feBlend mode="normal" in2="effect1_dropShadow_433_1356" result="effect2_dropShadow_433_1356"/>
<feColorMatrix in="SourceAlpha" type="matrix" values="0 0 0 0 0 0 0 0 0 0 0 0 0 0 0 0 0 0 127 0" result="hardAlpha"/>
<feOffset dy="16"/>
<feGaussianBlur stdDeviation="18"/>
<feColorMatrix type="matrix" values="0 0 0 0 0.705882 0 0 0 0 0.831373 0 0 0 0 0.921569 0 0 0 0.04 0"/>
<feBlend mode="normal" in2="effect2_dropShadow_433_1356" result="effect3_dropShadow_433_1356"/>
<feColorMatrix in="SourceAlpha" type="matrix" values="0 0 0 0 0 0 0 0 0 0 0 0 0 0 0 0 0 0 127 0" result="hardAlpha"/>
<feOffset dy="40"/>
<feGaussianBlur stdDeviation="35"/>
<feColorMatrix type="matrix" values="0 0 0 0 0.705882 0 0 0 0 0.831373 0 0 0 0 0.921569 0 0 0 0.04 0"/>
<feBlend mode="normal" in2="effect3_dropShadow_433_1356" result="effect4_dropShadow_433_1356"/>
<feColorMatrix in="SourceAlpha" type="matrix" values="0 0 0 0 0 0 0 0 0 0 0 0 0 0 0 0 0 0 127 0" result="hardAlpha"/>
<feOffset dy="2"/>
<feGaussianBlur stdDeviation="2"/>
<feColorMatrix type="matrix" values="0 0 0 0 0.87451 0 0 0 0 0.929412 0 0 0 0 0.964706 0 0 0 0.4 0"/>
<feBlend mode="normal" in2="effect4_dropShadow_433_1356" result="effect5_dropShadow_433_1356"/>
<feBlend mode="normal" in="SourceGraphic" in2="effect5_dropShadow_433_1356" result="shape"/>
</filter>
<filter id="filter4_ddddd_433_1356" x="257.885" y="2.56488" width="222.399" height="195.158" filterUnits="userSpaceOnUse" color-interpolation-filters="sRGB">
<feFlood flood-opacity="0" result="BackgroundImageFix"/>
<feColorMatrix in="SourceAlpha" type="matrix" values="0 0 0 0 0 0 0 0 0 0 0 0 0 0 0 0 0 0 127 0" result="hardAlpha"/>
<feOffset dy="6"/>
<feGaussianBlur stdDeviation="4"/>
<feColorMatrix type="matrix" values="0 0 0 0 0.705882 0 0 0 0 0.831373 0 0 0 0 0.921569 0 0 0 0.12 0"/>
<feBlend mode="normal" in2="BackgroundImageFix" result="effect1_dropShadow_433_1356"/>
<feColorMatrix in="SourceAlpha" type="matrix" values="0 0 0 0 0 0 0 0 0 0 0 0 0 0 0 0 0 0 127 0" result="hardAlpha"/>
<feOffset dy="8"/>
<feGaussianBlur stdDeviation="12"/>
<feColorMatrix type="matrix" values="0 0 0 0 0.705882 0 0 0 0 0.831373 0 0 0 0 0.921569 0 0 0 0.08 0"/>
<feBlend mode="normal" in2="effect1_dropShadow_433_1356" result="effect2_dropShadow_433_1356"/>
<feColorMatrix in="SourceAlpha" type="matrix" values="0 0 0 0 0 0 0 0 0 0 0 0 0 0 0 0 0 0 127 0" result="hardAlpha"/>
<feOffset dy="16"/>
<feGaussianBlur stdDeviation="18"/>
<feColorMatrix type="matrix" values="0 0 0 0 0.705882 0 0 0 0 0.831373 0 0 0 0 0.921569 0 0 0 0.04 0"/>
<feBlend mode="normal" in2="effect2_dropShadow_433_1356" result="effect3_dropShadow_433_1356"/>
<feColorMatrix in="SourceAlpha" type="matrix" values="0 0 0 0 0 0 0 0 0 0 0 0 0 0 0 0 0 0 127 0" result="hardAlpha"/>
<feOffset dy="40"/>
<feGaussianBlur stdDeviation="35"/>
<feColorMatrix type="matrix" values="0 0 0 0 0.705882 0 0 0 0 0.831373 0 0 0 0 0.921569 0 0 0 0.04 0"/>
<feBlend mode="normal" in2="effect3_dropShadow_433_1356" result="effect4_dropShadow_433_1356"/>
<feColorMatrix in="SourceAlpha" type="matrix" values="0 0 0 0 0 0 0 0 0 0 0 0 0 0 0 0 0 0 127 0" result="hardAlpha"/>
<feOffset dy="2"/>
<feGaussianBlur stdDeviation="2"/>
<feColorMatrix type="matrix" values="0 0 0 0 0.87451 0 0 0 0 0.929412 0 0 0 0 0.964706 0 0 0 0.4 0"/>
<feBlend mode="normal" in2="effect4_dropShadow_433_1356" result="effect5_dropShadow_433_1356"/>
<feBlend mode="normal" in="SourceGraphic" in2="effect5_dropShadow_433_1356" result="shape"/>
</filter>
</defs>
</svg>
