<svg width="82" height="80" viewBox="0 0 82 80" fill="none" xmlns="http://www.w3.org/2000/svg">
<g filter="url(#filter0_d_414_466)">
<path fill-rule="evenodd" clip-rule="evenodd" d="M23.6704 7.30012L70.2344 42.5147C71.1356 41.6 72.4356 41.0766 73.8328 41.1942C76.298 41.4015 78.1319 43.5254 77.929 45.938C77.726 48.3506 75.5631 50.1383 73.0979 49.931C71.4398 49.7915 70.0674 48.785 69.4081 47.4068L12.8013 66.1806C12.9619 66.6965 13.0275 67.25 12.9796 67.8195C12.7767 70.2322 10.6138 72.0199 8.14859 71.8125C5.68342 71.6051 3.84951 69.4812 4.05245 67.0686C4.24801 64.7438 6.26358 62.9992 8.6158 63.0609L18.6485 9.21567C16.6179 8.65706 15.2078 6.75118 15.3871 4.62003C15.59 2.20742 17.753 0.419719 20.2182 0.62708C22.6833 0.834442 24.5172 2.95835 24.3143 5.37096C24.2547 6.07947 24.0261 6.73409 23.6704 7.30012ZM69.0018 45.1871C68.9872 45.36 68.9831 45.5314 68.989 45.7008L35.681 49.7767C35.2311 47.9988 33.6665 46.6142 31.7003 46.4488C31.2721 46.4128 30.8531 46.4369 30.4519 46.5141L21.3475 9.1343C22.0353 8.89761 22.6498 8.49977 23.1398 7.9833L69.6906 43.188C69.3093 43.7698 69.0638 44.4492 69.0018 45.1871ZM29.6104 46.7628L20.495 9.33763C20.1763 9.38156 19.8478 9.39228 19.5136 9.36637L9.48922 63.1672C10.307 63.3473 11.034 63.7429 11.6109 64.2856L27.3886 52.8816C26.9911 52.1587 26.7954 51.3193 26.8692 50.4417C27.0114 48.752 28.115 47.3688 29.6104 46.7628ZM27.8797 53.5971L12.1844 64.9415C12.2858 65.0834 12.3788 65.2312 12.4627 65.3842L69.1153 46.5953C69.1118 46.5813 69.1083 46.5674 69.105 46.5534L35.8071 50.628C35.8158 50.8139 35.8124 51.0024 35.7964 51.1926C35.5935 53.6052 33.4305 55.393 30.9654 55.1856C29.7121 55.0802 28.6219 54.4794 27.8797 53.5971Z" fill="#B7EE81"/>
<path fill-rule="evenodd" clip-rule="evenodd" d="M23.6704 7.30012L70.2344 42.5147C71.1356 41.6 72.4356 41.0766 73.8328 41.1942C76.298 41.4015 78.1319 43.5254 77.929 45.938C77.726 48.3506 75.5631 50.1383 73.0979 49.931C71.4398 49.7915 70.0674 48.785 69.4081 47.4068L12.8013 66.1806C12.9619 66.6965 13.0275 67.25 12.9796 67.8195C12.7767 70.2322 10.6138 72.0199 8.14859 71.8125C5.68342 71.6051 3.84951 69.4812 4.05245 67.0686C4.24801 64.7438 6.26358 62.9992 8.6158 63.0609L18.6485 9.21567C16.6179 8.65706 15.2078 6.75118 15.3871 4.62003C15.59 2.20742 17.753 0.419719 20.2182 0.62708C22.6833 0.834442 24.5172 2.95835 24.3143 5.37096C24.2547 6.07947 24.0261 6.73409 23.6704 7.30012ZM69.0018 45.1871C68.9872 45.36 68.9831 45.5314 68.989 45.7008L35.681 49.7767C35.2311 47.9988 33.6665 46.6142 31.7003 46.4488C31.2721 46.4128 30.8531 46.4369 30.4519 46.5141L21.3475 9.1343C22.0353 8.89761 22.6498 8.49977 23.1398 7.9833L69.6906 43.188C69.3093 43.7698 69.0638 44.4492 69.0018 45.1871ZM29.6104 46.7628L20.495 9.33763C20.1763 9.38156 19.8478 9.39228 19.5136 9.36637L9.48922 63.1672C10.307 63.3473 11.034 63.7429 11.6109 64.2856L27.3886 52.8816C26.9911 52.1587 26.7954 51.3193 26.8692 50.4417C27.0114 48.752 28.115 47.3688 29.6104 46.7628ZM27.8797 53.5971L12.1844 64.9415C12.2858 65.0834 12.3788 65.2312 12.4627 65.3842L69.1153 46.5953C69.1118 46.5813 69.1083 46.5674 69.105 46.5534L35.8071 50.628C35.8158 50.8139 35.8124 51.0024 35.7964 51.1926C35.5935 53.6052 33.4305 55.393 30.9654 55.1856C29.7121 55.0802 28.6219 54.4794 27.8797 53.5971Z" fill="white" fill-opacity="0.65"/>
</g>
<defs>
<filter id="filter0_d_414_466" x="0.0371094" y="0.610718" width="81.9072" height="79.2181" filterUnits="userSpaceOnUse" color-interpolation-filters="sRGB">
<feFlood flood-opacity="0" result="BackgroundImageFix"/>
<feColorMatrix in="SourceAlpha" type="matrix" values="0 0 0 0 0 0 0 0 0 0 0 0 0 0 0 0 0 0 127 0" result="hardAlpha"/>
<feOffset dy="4"/>
<feGaussianBlur stdDeviation="2"/>
<feComposite in2="hardAlpha" operator="out"/>
<feColorMatrix type="matrix" values="0 0 0 0 0 0 0 0 0 0 0 0 0 0 0 0 0 0 0.25 0"/>
<feBlend mode="normal" in2="BackgroundImageFix" result="effect1_dropShadow_414_466"/>
<feBlend mode="normal" in="SourceGraphic" in2="effect1_dropShadow_414_466" result="shape"/>
</filter>
</defs>
</svg>
