<svg width="1533" height="605" viewBox="0 0 1533 605" fill="none" xmlns="http://www.w3.org/2000/svg">
<g opacity="0.4">
<path d="M371.5 378.009C510 443.166 608.5 463.936 855 463.936L332.5 556.253L0 425.206C78 329.175 196 295.444 371.5 378.009Z" fill="#B7EE81"/>
<path d="M371.5 378.009C510 443.166 608.5 463.936 855 463.936L332.5 556.253L0 425.206C78 329.175 196 295.444 371.5 378.009Z" fill="white" fill-opacity="0.85"/>
</g>
<path d="M1465 196.708C1473 130.919 1505 5.70835 1532.5 0.93335L1480 604.706H0V343.142C83.6667 402.387 313.823 511.858 540.5 511.858C738.5 511.858 811.5 482.34 875.5 454.558C978.5 409.847 1013.5 388.987 1166 454.558C1352.5 534.749 1439.57 405.803 1465 196.708Z" fill="#B7EE81"/>
<path d="M1465 196.708C1473 130.919 1505 5.70835 1532.5 0.93335L1480 604.706H0V343.142C83.6667 402.387 313.823 511.858 540.5 511.858C738.5 511.858 811.5 482.34 875.5 454.558C978.5 409.847 1013.5 388.987 1166 454.558C1352.5 534.749 1439.57 405.803 1465 196.708Z" fill="white" fill-opacity="0.65"/>
</svg>
