<svg width="239" height="249" viewBox="0 0 239 249" fill="none" xmlns="http://www.w3.org/2000/svg">
<path d="M152.354 57.2463H0.114258V122.8H152.354V57.2463Z" fill="#1443BD"/>
<path d="M152.354 57.2463H0.114258V122.8H152.354V57.2463Z" fill="black" fill-opacity="0.35"/>
<path d="M70.4542 1.50095L0.182373 57.2402L148.367 61.0742C148.686 61.0736 149.003 61.038 149.314 60.9681C151.173 60.5018 152.47 59.1556 152.449 57.2402L79.937 1.31837C77.0546 -0.556737 73.3366 -0.374163 70.4542 1.50095Z" fill="#1443BD"/>
<path d="M70.4542 1.50095L0.182373 57.2402L148.367 61.0742C148.686 61.0736 149.003 61.038 149.314 60.9681C151.173 60.5018 152.47 59.1556 152.449 57.2402L79.937 1.31837C77.0546 -0.556737 73.3366 -0.374163 70.4542 1.50095Z" fill="black" fill-opacity="0.35"/>
<path fill-rule="evenodd" clip-rule="evenodd" d="M42.9873 60.1423L56.7566 47.7923L66.1025 63.9605L42.9873 60.1423Z" fill="#FFD666"/>
<path fill-rule="evenodd" clip-rule="evenodd" d="M109.985 71.2093L100.903 55.0847L87.6032 67.5122L109.985 71.2093Z" fill="#FFA940"/>
<path fill-rule="evenodd" clip-rule="evenodd" d="M42.9873 60.1422L69.8552 105.589L66.1131 63.9622L42.9873 60.1422Z" fill="#FFC53D"/>
<path fill-rule="evenodd" clip-rule="evenodd" d="M109.838 71.1849L69.8552 105.589L87.5361 67.501L109.838 71.1849Z" fill="#FA8C16"/>
<path fill-rule="evenodd" clip-rule="evenodd" d="M56.6396 47.7729L78.8742 51.4458L65.4054 63.8454L56.6396 47.7729Z" fill="#FFC53D"/>
<path fill-rule="evenodd" clip-rule="evenodd" d="M78.7275 51.4215L100.962 55.0943L87.5738 67.5072L78.7275 51.4215Z" fill="#FFC53D"/>
<path fill-rule="evenodd" clip-rule="evenodd" d="M65.3718 63.82L78.8234 51.4374L87.6064 67.4928L85.6221 71.5571L65.9947 68.125L65.3718 63.82Z" fill="#FFA940"/>
<path fill-rule="evenodd" clip-rule="evenodd" d="M65.4421 63.8514L69.8737 105.592L87.6033 67.5121L65.4421 63.8514Z" fill="#FAAD14"/>
<g clip-path="url(#clip0_411_2853)">
<path d="M65.0828 130.505C79.6214 137.093 96.7787 130.579 103.405 115.956C110.031 101.334 103.617 84.1389 89.0781 77.5509C74.5395 70.963 57.3821 77.4766 50.756 92.0994C44.1299 106.722 50.5442 123.917 65.0828 130.505Z" fill="#FFD666"/>
<path d="M67.1927 124.961C79.0035 130.313 92.9167 125.077 98.2686 113.266C103.621 101.456 98.3845 87.5424 86.5737 82.1905C74.7628 76.8386 60.8497 82.0746 55.4977 93.8854C50.1458 105.696 55.3818 119.609 67.1927 124.961Z" fill="#FFC53D"/>
<path d="M70.7397 117.553C70.1125 117.269 69.6338 116.994 69.3036 116.728L70.7629 113.507C69.6332 112.792 68.6487 111.997 67.8093 111.122C66.9699 110.248 66.3322 109.457 65.8963 108.751C66.1434 108.238 66.5516 107.754 67.121 107.299C67.6903 106.845 68.2166 106.582 68.6998 106.51C69.2795 107.412 70.0132 108.312 70.9009 109.208C71.7886 110.105 72.7543 110.797 73.7982 111.285C74.8235 111.749 75.7662 111.915 76.6264 111.781C77.492 111.635 78.1139 111.161 78.4922 110.358C78.8048 109.701 78.8709 109.025 78.6904 108.333C78.5153 107.628 78.0465 106.914 77.284 106.191L74.3397 103.352C73.2326 102.298 72.4812 101.165 72.0852 99.9535C71.7068 98.7352 71.8154 97.4687 72.4112 96.154C73.0944 94.6463 74.1798 93.5825 75.6673 92.9626C77.1669 92.3483 78.8037 92.2976 80.5775 92.8106L82.0122 89.6444C82.2391 89.6891 82.4907 89.7595 82.767 89.8556C83.0554 89.9572 83.3262 90.0653 83.5795 90.1801C84.1705 90.4479 84.6432 90.7203 84.9975 90.9971L83.5546 94.1814C84.5186 94.7491 85.3632 95.3717 86.0884 96.0492C86.8257 96.7322 87.4528 97.4017 87.9697 98.0575C87.7292 98.5882 87.3594 99.0676 86.8601 99.4956C86.3729 99.9291 85.8571 100.233 85.3126 100.408C84.676 99.5672 83.9715 98.8118 83.1992 98.142C82.4389 97.4777 81.6306 96.9515 80.7742 96.5634C79.7852 96.1152 78.8967 95.9743 78.109 96.1408C77.3212 96.3072 76.7606 96.7583 76.4272 97.494C76.1102 98.1936 76.0989 98.8282 76.3932 99.3977C76.6931 99.9552 77.1568 100.536 77.7844 101.14L80.5641 103.861C81.7458 105.007 82.5341 106.251 82.9291 107.593C83.3241 108.935 83.1746 110.372 82.4805 111.904C81.7809 113.448 80.6418 114.502 79.0632 115.066C77.4901 115.618 75.7102 115.567 73.7236 114.914L72.2889 118.081C71.8833 118.013 71.3669 117.837 70.7397 117.553Z" fill="white"/>
</g>
<g clip-path="url(#clip1_411_2853)">
<path d="M102.037 100.483C110.57 104.35 120.641 100.527 124.53 91.9436C128.419 83.3606 124.655 73.268 116.121 69.4012C107.587 65.5344 97.5168 69.3576 93.6276 77.9405C89.7383 86.5235 93.5032 96.6161 102.037 100.483Z" fill="#FFD666"/>
<path d="M103.275 97.2288C110.208 100.37 118.374 97.2968 121.515 90.3643C124.657 83.4319 121.583 75.2654 114.651 72.1241C107.719 68.9827 99.5521 72.056 96.4107 78.9885C93.2694 85.921 96.3427 94.0875 103.275 97.2288Z" fill="#FFC53D"/>
<path d="M105.357 92.8808C104.989 92.7139 104.708 92.5525 104.514 92.3964L105.371 90.5061C104.708 90.0862 104.13 89.6195 103.637 89.1061C103.145 88.5927 102.77 88.1287 102.514 87.7141C102.659 87.4129 102.899 87.1289 103.233 86.8622C103.567 86.5955 103.876 86.4411 104.16 86.3989C104.5 86.9286 104.931 87.4565 105.452 87.9828C105.973 88.509 106.54 88.9152 107.153 89.2014C107.754 89.4741 108.308 89.5712 108.812 89.4928C109.321 89.4073 109.686 89.129 109.908 88.6578C110.091 88.2716 110.13 87.8753 110.024 87.4689C109.921 87.0554 109.646 86.6363 109.198 86.2116L107.47 84.5453C106.821 83.9266 106.379 83.2617 106.147 82.5505C105.925 81.8354 105.989 81.0921 106.338 80.3204C106.739 79.4354 107.376 78.811 108.25 78.4472C109.13 78.0866 110.09 78.0568 111.132 78.3579L111.974 76.4995C112.107 76.5257 112.255 76.567 112.417 76.6235C112.586 76.6831 112.745 76.7466 112.894 76.8139C113.241 76.9711 113.518 77.131 113.726 77.2935L112.879 79.1625C113.445 79.4957 113.941 79.8612 114.366 80.2589C114.799 80.6598 115.167 81.0527 115.471 81.4377C115.329 81.7492 115.112 82.0305 114.819 82.2818C114.533 82.5362 114.231 82.7147 113.911 82.8174C113.537 82.3238 113.124 81.8804 112.67 81.4873C112.224 81.0973 111.75 80.7885 111.247 80.5607C110.667 80.2976 110.145 80.2149 109.683 80.3126C109.22 80.4103 108.891 80.675 108.696 81.1069C108.51 81.5175 108.503 81.89 108.676 82.2243C108.852 82.5515 109.124 82.8924 109.492 83.2471L111.124 84.844C111.817 85.5167 112.28 86.247 112.512 87.0347C112.744 87.8224 112.656 88.6659 112.249 89.565C111.838 90.4712 111.169 91.0898 110.243 91.4209C109.319 91.7449 108.275 91.7153 107.109 91.332L106.267 93.1904C106.029 93.1508 105.725 93.0476 105.357 92.8808Z" fill="white"/>
</g>
<g clip-path="url(#clip2_411_2853)">
<path d="M46.0051 99.8747C55.195 98.0526 61.1591 89.0824 59.3264 79.8393C57.4936 70.5961 48.5581 64.5803 39.3682 66.4025C30.1784 68.2246 24.2142 77.1948 26.047 86.4379C27.8797 95.681 36.8153 101.697 46.0051 99.8747Z" fill="#FFD666"/>
<path d="M45.1181 96.5076C52.5838 95.0273 57.4359 87.7751 55.9556 80.3095C54.4753 72.8438 47.2232 67.9917 39.7575 69.472C32.2919 70.9523 27.4398 78.2045 28.9201 85.6701C30.4004 93.1358 37.6525 97.9879 45.1181 96.5076Z" fill="#FFC53D"/>
<path d="M44.2803 91.76C43.8838 91.8386 43.5614 91.8708 43.3129 91.8567L42.9093 89.821C42.1257 89.8655 41.3842 89.8223 40.6847 89.6916C39.9853 89.5609 39.4109 89.4014 38.9615 89.2131C38.9041 88.8838 38.9337 88.5134 39.0502 88.102C39.1667 87.6907 39.3281 87.3853 39.5342 87.1859C40.1191 87.4186 40.7766 87.5973 41.5066 87.722C42.2365 87.8466 42.9339 87.847 43.5987 87.7231C44.2468 87.5946 44.7533 87.3516 45.1182 86.994C45.4816 86.6287 45.6164 86.1899 45.5228 85.6776C45.4473 85.2568 45.2481 84.9119 44.9254 84.6431C44.6012 84.3667 44.1335 84.186 43.5224 84.1012L41.1473 83.752C40.2588 83.627 39.5131 83.343 38.9102 82.9C38.3134 82.4478 37.9326 81.8062 37.7678 80.9751C37.5789 80.0221 37.7335 79.1436 38.2318 78.3395C38.7377 77.534 39.5016 76.9507 40.5235 76.5895L40.1266 74.5882C40.2502 74.532 40.3943 74.4796 40.5591 74.4311C40.7314 74.3811 40.8976 74.3402 41.0577 74.3085C41.4313 74.2344 41.7499 74.2029 42.0136 74.214L42.4127 76.2268C43.0668 76.1685 43.6826 76.1771 44.2602 76.2528C44.8454 76.3269 45.3734 76.4322 45.8442 76.5686C45.9108 76.9041 45.898 77.2592 45.8059 77.6341C45.7214 78.0074 45.5791 78.3288 45.379 78.5983C44.7879 78.4144 44.1936 78.2945 43.5961 78.2386C43.0063 78.1813 42.4407 78.2062 41.8994 78.3136C41.2742 78.4375 40.802 78.6738 40.4829 79.0223C40.1637 79.3709 40.0502 79.7777 40.1424 80.2428C40.2301 80.685 40.4415 80.9917 40.7766 81.163C41.1101 81.3267 41.5299 81.4455 42.0359 81.5195L44.2921 81.8685C45.2476 82.0118 46.0489 82.3363 46.6959 82.842C47.3429 83.3476 47.7624 84.0845 47.9544 85.0528C48.1479 86.0287 47.9643 86.9209 47.4035 87.7294C46.8412 88.5303 45.9744 89.1142 44.8031 89.4812L45.1999 91.4825C44.9833 91.5889 44.6768 91.6814 44.2803 91.76Z" fill="white"/>
</g>
<path d="M80.3226 115.512C77.8081 116.352 75.0476 115.997 72.8273 114.549L0 57.24V153.785C0 155.922 2.10609 157.656 4.35781 157.656H148.365C150.621 157.656 152.449 155.922 152.449 153.785V57.24L82.9041 114.091C82.1332 114.712 81.2595 115.193 80.3226 115.512Z" fill="#2A84C6"/>
<path d="M80.3226 115.512C77.8081 116.352 75.0476 115.997 72.8273 114.549L0 57.24V153.785C0 155.922 2.10609 157.656 4.35781 157.656H148.365C150.621 157.656 152.449 155.922 152.449 153.785V57.24L82.9041 114.091C82.1332 114.712 81.2595 115.193 80.3226 115.512Z" fill="white" fill-opacity="0.85"/>
<path fill-rule="evenodd" clip-rule="evenodd" d="M80.3226 115.512C77.8081 116.352 75.0476 115.997 72.8273 114.549L72.2453 114.091L0 153.785C0 155.922 2.10609 157.656 4.35781 157.656H148.365C150.621 157.656 152.449 155.922 152.449 153.785L82.9041 114.091C82.1332 114.712 81.2595 115.193 80.3226 115.512Z" fill="#1443BD"/>
<path fill-rule="evenodd" clip-rule="evenodd" d="M80.3226 115.512C77.8081 116.352 75.0476 115.997 72.8273 114.549L72.2453 114.091L0 153.785C0 155.922 2.10609 157.656 4.35781 157.656H148.365C150.621 157.656 152.449 155.922 152.449 153.785L82.9041 114.091C82.1332 114.712 81.2595 115.193 80.3226 115.512Z" fill="white" fill-opacity="0.85"/>
<g clip-path="url(#clip3_411_2853)" filter="url(#filter0_ddddd_411_2853)">
<path fill-rule="evenodd" clip-rule="evenodd" d="M98.3868 59.8163L97.8799 56.4985L95.6632 53.9786L95.6631 53.9784L98.981 53.4714L101.501 51.2546L102.008 54.5725L104.225 57.0926L104.225 57.0927L100.907 57.5996L98.387 59.8164L98.3869 59.8164L98.3868 59.8163Z" fill="white"/>
</g>
<g filter="url(#filter1_ddddd_411_2853)">
<ellipse cx="152.172" cy="121.294" rx="16.7941" ry="16.7941" fill="white"/>
<path d="M159.308 114.172C158.88 113.733 158.247 113.57 157.657 113.742L143.89 117.745C143.267 117.918 142.826 118.415 142.707 119.046C142.585 119.688 143.01 120.504 143.564 120.845L147.869 123.49C148.31 123.761 148.88 123.693 149.245 123.325L154.175 118.365C154.423 118.107 154.833 118.107 155.082 118.365C155.33 118.615 155.33 119.019 155.082 119.278L150.144 124.238C149.778 124.606 149.709 125.179 149.979 125.623L152.609 129.971C152.917 130.487 153.447 130.78 154.029 130.78C154.098 130.78 154.175 130.78 154.243 130.771C154.91 130.685 155.441 130.229 155.638 129.583L159.719 115.834C159.899 115.249 159.736 114.612 159.308 114.172" fill="#1443BD"/>
</g>
<defs>
<filter id="filter0_ddddd_411_2853" x="22.3955" y="17.9869" width="155.097" height="155.097" filterUnits="userSpaceOnUse" color-interpolation-filters="sRGB">
<feFlood flood-opacity="0" result="BackgroundImageFix"/>
<feColorMatrix in="SourceAlpha" type="matrix" values="0 0 0 0 0 0 0 0 0 0 0 0 0 0 0 0 0 0 127 0" result="hardAlpha"/>
<feOffset dy="6"/>
<feGaussianBlur stdDeviation="4"/>
<feColorMatrix type="matrix" values="0 0 0 0 0.705882 0 0 0 0 0.831373 0 0 0 0 0.921569 0 0 0 0.12 0"/>
<feBlend mode="normal" in2="BackgroundImageFix" result="effect1_dropShadow_411_2853"/>
<feColorMatrix in="SourceAlpha" type="matrix" values="0 0 0 0 0 0 0 0 0 0 0 0 0 0 0 0 0 0 127 0" result="hardAlpha"/>
<feOffset dy="8"/>
<feGaussianBlur stdDeviation="12"/>
<feColorMatrix type="matrix" values="0 0 0 0 0.705882 0 0 0 0 0.831373 0 0 0 0 0.921569 0 0 0 0.08 0"/>
<feBlend mode="normal" in2="effect1_dropShadow_411_2853" result="effect2_dropShadow_411_2853"/>
<feColorMatrix in="SourceAlpha" type="matrix" values="0 0 0 0 0 0 0 0 0 0 0 0 0 0 0 0 0 0 127 0" result="hardAlpha"/>
<feOffset dy="16"/>
<feGaussianBlur stdDeviation="18"/>
<feColorMatrix type="matrix" values="0 0 0 0 0.705882 0 0 0 0 0.831373 0 0 0 0 0.921569 0 0 0 0.04 0"/>
<feBlend mode="normal" in2="effect2_dropShadow_411_2853" result="effect3_dropShadow_411_2853"/>
<feColorMatrix in="SourceAlpha" type="matrix" values="0 0 0 0 0 0 0 0 0 0 0 0 0 0 0 0 0 0 127 0" result="hardAlpha"/>
<feOffset dy="40"/>
<feGaussianBlur stdDeviation="35"/>
<feColorMatrix type="matrix" values="0 0 0 0 0.705882 0 0 0 0 0.831373 0 0 0 0 0.921569 0 0 0 0.04 0"/>
<feBlend mode="normal" in2="effect3_dropShadow_411_2853" result="effect4_dropShadow_411_2853"/>
<feColorMatrix in="SourceAlpha" type="matrix" values="0 0 0 0 0 0 0 0 0 0 0 0 0 0 0 0 0 0 127 0" result="hardAlpha"/>
<feOffset dy="2"/>
<feGaussianBlur stdDeviation="2"/>
<feColorMatrix type="matrix" values="0 0 0 0 0.87451 0 0 0 0 0.929412 0 0 0 0 0.964706 0 0 0 0.4 0"/>
<feBlend mode="normal" in2="effect4_dropShadow_411_2853" result="effect5_dropShadow_411_2853"/>
<feBlend mode="normal" in="SourceGraphic" in2="effect5_dropShadow_411_2853" result="shape"/>
</filter>
<filter id="filter1_ddddd_411_2853" x="65.3774" y="74.5" width="173.588" height="173.588" filterUnits="userSpaceOnUse" color-interpolation-filters="sRGB">
<feFlood flood-opacity="0" result="BackgroundImageFix"/>
<feColorMatrix in="SourceAlpha" type="matrix" values="0 0 0 0 0 0 0 0 0 0 0 0 0 0 0 0 0 0 127 0" result="hardAlpha"/>
<feOffset dy="6"/>
<feGaussianBlur stdDeviation="4"/>
<feColorMatrix type="matrix" values="0 0 0 0 0.0392157 0 0 0 0 0.129412 0 0 0 0 0.372549 0 0 0 0.12 0"/>
<feBlend mode="normal" in2="BackgroundImageFix" result="effect1_dropShadow_411_2853"/>
<feColorMatrix in="SourceAlpha" type="matrix" values="0 0 0 0 0 0 0 0 0 0 0 0 0 0 0 0 0 0 127 0" result="hardAlpha"/>
<feOffset dy="8"/>
<feGaussianBlur stdDeviation="12"/>
<feColorMatrix type="matrix" values="0 0 0 0 0.0392157 0 0 0 0 0.129412 0 0 0 0 0.372549 0 0 0 0.08 0"/>
<feBlend mode="normal" in2="effect1_dropShadow_411_2853" result="effect2_dropShadow_411_2853"/>
<feColorMatrix in="SourceAlpha" type="matrix" values="0 0 0 0 0 0 0 0 0 0 0 0 0 0 0 0 0 0 127 0" result="hardAlpha"/>
<feOffset dy="16"/>
<feGaussianBlur stdDeviation="18"/>
<feColorMatrix type="matrix" values="0 0 0 0 0.0392157 0 0 0 0 0.129412 0 0 0 0 0.372549 0 0 0 0.04 0"/>
<feBlend mode="normal" in2="effect2_dropShadow_411_2853" result="effect3_dropShadow_411_2853"/>
<feColorMatrix in="SourceAlpha" type="matrix" values="0 0 0 0 0 0 0 0 0 0 0 0 0 0 0 0 0 0 127 0" result="hardAlpha"/>
<feOffset dy="40"/>
<feGaussianBlur stdDeviation="35"/>
<feColorMatrix type="matrix" values="0 0 0 0 0.0392157 0 0 0 0 0.129412 0 0 0 0 0.372549 0 0 0 0.04 0"/>
<feBlend mode="normal" in2="effect3_dropShadow_411_2853" result="effect4_dropShadow_411_2853"/>
<feColorMatrix in="SourceAlpha" type="matrix" values="0 0 0 0 0 0 0 0 0 0 0 0 0 0 0 0 0 0 127 0" result="hardAlpha"/>
<feOffset dy="2"/>
<feGaussianBlur stdDeviation="2"/>
<feColorMatrix type="matrix" values="0 0 0 0 0.537255 0 0 0 0 0.631373 0 0 0 0 0.870588 0 0 0 0.4 0"/>
<feBlend mode="normal" in2="effect4_dropShadow_411_2853" result="effect5_dropShadow_411_2853"/>
<feBlend mode="normal" in="SourceGraphic" in2="effect5_dropShadow_411_2853" result="shape"/>
</filter>
<clipPath id="clip0_411_2853">
<rect width="68.1032" height="68.1032" fill="white" transform="translate(59.5337 57.4761) rotate(24.3769)"/>
</clipPath>
<clipPath id="clip1_411_2853">
<rect width="39.9738" height="39.9738" fill="white" transform="translate(98.7798 57.6182) rotate(24.3769)"/>
</clipPath>
<clipPath id="clip2_411_2853">
<rect width="39.9737" height="39.9737" fill="white" transform="translate(18.4084 66.9133) rotate(-11.2152)"/>
</clipPath>
<clipPath id="clip3_411_2853">
<rect width="11.78" height="11.78" fill="white" transform="matrix(0.939764 0.341825 0.341824 -0.939764 92.3955 59.0574)"/>
</clipPath>
</defs>
</svg>
