<svg width="257" height="185" viewBox="0 0 257 185" fill="none" xmlns="http://www.w3.org/2000/svg">
<path fill-rule="evenodd" clip-rule="evenodd" d="M159.936 20.0778H0.117188V5.75745C0.117188 2.65104 2.63578 0.132446 5.74219 0.132446H154.311C157.417 0.132446 159.936 2.65104 159.936 5.75745V20.0778Z" fill="#1443BD"/>
<path fill-rule="evenodd" clip-rule="evenodd" d="M159.936 20.0778H0.117188V5.75745C0.117188 2.65104 2.63578 0.132446 5.74219 0.132446H154.311C157.417 0.132446 159.936 2.65104 159.936 5.75745V20.0778Z" fill="black" fill-opacity="0.5"/>
<path fill-rule="evenodd" clip-rule="evenodd" d="M154.311 157.961H5.74219C2.63578 157.961 0.117188 155.442 0.117188 152.336V18.4009H159.936V152.336C159.936 155.442 157.417 157.961 154.311 157.961Z" fill="#2A84C6"/>
<path fill-rule="evenodd" clip-rule="evenodd" d="M154.311 157.961H5.74219C2.63578 157.961 0.117188 155.442 0.117188 152.336V18.4009H159.936V152.336C159.936 155.442 157.417 157.961 154.311 157.961Z" fill="white" fill-opacity="0.85"/>
<path fill-rule="evenodd" clip-rule="evenodd" d="M13.1051 9.41504C13.1051 11.3646 11.5245 12.9452 9.57472 12.9452C7.62519 12.9452 6.0448 11.3646 6.0448 9.41504C6.0448 7.46551 7.62519 5.88489 9.57472 5.88489C11.5245 5.88489 13.1051 7.46551 13.1051 9.41504Z" fill="#F56D7E"/>
<path fill-rule="evenodd" clip-rule="evenodd" d="M26.2885 9.41504C26.2885 11.3646 24.7081 12.9452 22.7583 12.9452C20.8088 12.9452 19.2284 11.3646 19.2284 9.41504C19.2284 7.46551 20.8088 5.88489 22.7583 5.88489C24.7081 5.88489 26.2885 7.46551 26.2885 9.41504Z" fill="#F1F380"/>
<path fill-rule="evenodd" clip-rule="evenodd" d="M39.4721 9.41504C39.4721 11.3646 37.8917 12.9452 35.9419 12.9452C33.9924 12.9452 32.412 11.3646 32.412 9.41504C32.412 7.46551 33.9924 5.88489 35.9419 5.88489C37.8917 5.88489 39.4721 7.46551 39.4721 9.41504Z" fill="#B7EE81"/>
<path fill-rule="evenodd" clip-rule="evenodd" d="M17.3905 138.977C16.4209 138.977 15.6353 138.192 15.6353 137.223V35.5499C15.6353 34.5814 16.4209 33.7961 17.3905 33.7961H144.408C145.377 33.7961 146.163 34.5814 146.163 35.5499V137.223C146.163 138.192 145.377 138.977 144.408 138.977H17.3905Z" fill="white"/>
<path fill-rule="evenodd" clip-rule="evenodd" d="M68.6878 83.1012H42.1713C40.182 83.1012 38.5546 81.4736 38.5546 79.4845V52.9679C38.5546 50.9787 40.182 49.3512 42.1713 49.3512H68.6878C70.6771 49.3512 72.3046 50.9787 72.3046 52.9679V79.4845C72.3046 81.4736 70.6771 83.1012 68.6878 83.1012Z" fill="#1443BD"/>
<path fill-rule="evenodd" clip-rule="evenodd" d="M68.6694 129.039H42.1897C40.1903 129.039 38.5546 127.403 38.5546 125.404V98.9243C38.5546 96.9249 40.1903 95.2892 42.1897 95.2892H68.6694C70.6687 95.2892 72.3046 96.9249 72.3046 98.9243V125.404C72.3046 127.403 70.6687 129.039 68.6694 129.039Z" fill="#B7EE81"/>
<path fill-rule="evenodd" clip-rule="evenodd" d="M116.482 129.039H90.0021C88.0028 129.039 86.3671 127.403 86.3671 125.404V98.9243C86.3671 96.9249 88.0028 95.2892 90.0021 95.2892H116.482C118.481 95.2892 120.117 96.9249 120.117 98.9243V125.404C120.117 127.403 118.481 129.039 116.482 129.039Z" fill="#1443BD"/>
<g filter="url(#filter0_ddddd_406_13)">
<rect x="94.6552" y="49.6896" width="91.3793" height="25" rx="12.5" fill="white"/>
</g>
<path fill-rule="evenodd" clip-rule="evenodd" d="M172.688 79.4054C172.687 79.3717 172.692 79.3377 172.703 79.3045C172.735 79.1986 172.82 79.1152 172.929 79.0817L178.71 77.2985C178.978 77.216 179.016 76.9853 179.022 76.9165C179.027 76.8477 179.025 76.6141 178.773 76.4937L162.928 68.9141C162.772 68.8391 162.596 68.8561 162.457 68.9593C162.319 69.0624 162.256 69.223 162.29 69.3894L165.786 86.4876C165.841 86.7534 166.071 86.8166 166.14 86.8296C166.209 86.8428 166.447 86.8677 166.601 86.641L170.042 81.5495C170.104 81.4585 170.207 81.4022 170.319 81.3984C170.431 81.3946 170.538 81.4439 170.605 81.5305L176.152 88.6317C176.21 88.7057 176.317 88.7215 176.395 88.6676L178.72 87.063C178.774 87.0258 178.789 86.9743 178.793 86.947C178.796 86.9197 178.797 86.8663 178.755 86.8163L172.764 79.611C172.715 79.552 172.689 79.4793 172.688 79.4054Z" fill="#1443BD"/>
<defs>
<filter id="filter0_ddddd_406_13" x="24.6552" y="19.6896" width="231.379" height="165" filterUnits="userSpaceOnUse" color-interpolation-filters="sRGB">
<feFlood flood-opacity="0" result="BackgroundImageFix"/>
<feColorMatrix in="SourceAlpha" type="matrix" values="0 0 0 0 0 0 0 0 0 0 0 0 0 0 0 0 0 0 127 0" result="hardAlpha"/>
<feOffset dy="6"/>
<feGaussianBlur stdDeviation="4"/>
<feColorMatrix type="matrix" values="0 0 0 0 0.0392157 0 0 0 0 0.129412 0 0 0 0 0.372549 0 0 0 0.12 0"/>
<feBlend mode="normal" in2="BackgroundImageFix" result="effect1_dropShadow_406_13"/>
<feColorMatrix in="SourceAlpha" type="matrix" values="0 0 0 0 0 0 0 0 0 0 0 0 0 0 0 0 0 0 127 0" result="hardAlpha"/>
<feOffset dy="8"/>
<feGaussianBlur stdDeviation="12"/>
<feColorMatrix type="matrix" values="0 0 0 0 0.0392157 0 0 0 0 0.129412 0 0 0 0 0.372549 0 0 0 0.08 0"/>
<feBlend mode="normal" in2="effect1_dropShadow_406_13" result="effect2_dropShadow_406_13"/>
<feColorMatrix in="SourceAlpha" type="matrix" values="0 0 0 0 0 0 0 0 0 0 0 0 0 0 0 0 0 0 127 0" result="hardAlpha"/>
<feOffset dy="16"/>
<feGaussianBlur stdDeviation="18"/>
<feColorMatrix type="matrix" values="0 0 0 0 0.0392157 0 0 0 0 0.129412 0 0 0 0 0.372549 0 0 0 0.04 0"/>
<feBlend mode="normal" in2="effect2_dropShadow_406_13" result="effect3_dropShadow_406_13"/>
<feColorMatrix in="SourceAlpha" type="matrix" values="0 0 0 0 0 0 0 0 0 0 0 0 0 0 0 0 0 0 127 0" result="hardAlpha"/>
<feOffset dy="40"/>
<feGaussianBlur stdDeviation="35"/>
<feColorMatrix type="matrix" values="0 0 0 0 0.0392157 0 0 0 0 0.129412 0 0 0 0 0.372549 0 0 0 0.04 0"/>
<feBlend mode="normal" in2="effect3_dropShadow_406_13" result="effect4_dropShadow_406_13"/>
<feColorMatrix in="SourceAlpha" type="matrix" values="0 0 0 0 0 0 0 0 0 0 0 0 0 0 0 0 0 0 127 0" result="hardAlpha"/>
<feOffset dy="2"/>
<feGaussianBlur stdDeviation="2"/>
<feColorMatrix type="matrix" values="0 0 0 0 0.537255 0 0 0 0 0.631373 0 0 0 0 0.870588 0 0 0 0.4 0"/>
<feBlend mode="normal" in2="effect4_dropShadow_406_13" result="effect5_dropShadow_406_13"/>
<feBlend mode="normal" in="SourceGraphic" in2="effect5_dropShadow_406_13" result="shape"/>
</filter>
</defs>
</svg>
