<svg width="178" height="219" viewBox="0 0 178 219" fill="none" xmlns="http://www.w3.org/2000/svg">
<path fill-rule="evenodd" clip-rule="evenodd" d="M126.575 0.241455H53.2542C50.8692 0.241455 48.8777 2.02 48.5438 4.391C46.3643 19.8649 32.3152 27.82 26.1789 30.503C24.4451 31.261 23.3185 32.9726 23.3185 34.8715V97.8385C23.3185 139.045 89.9144 165.301 89.9144 165.301C89.9144 165.301 156.51 139.045 156.51 97.8385V34.8713C156.51 32.9726 155.384 31.261 153.65 30.503C147.513 27.82 133.464 19.8649 131.285 4.391C130.951 2.02 128.959 0.440198 126.575 0.440198V0.241455Z" fill="#2A84C6"/>
<path fill-rule="evenodd" clip-rule="evenodd" d="M126.575 0.241455H53.2542C50.8692 0.241455 48.8777 2.02 48.5438 4.391C46.3643 19.8649 32.3152 27.82 26.1789 30.503C24.4451 31.261 23.3185 32.9726 23.3185 34.8715V97.8385C23.3185 139.045 89.9144 165.301 89.9144 165.301C89.9144 165.301 156.51 139.045 156.51 97.8385V34.8713C156.51 32.9726 155.384 31.261 153.65 30.503C147.513 27.82 133.464 19.8649 131.285 4.391C130.951 2.02 128.959 0.440198 126.575 0.440198V0.241455Z" fill="white" fill-opacity="0.85"/>
<path fill-rule="evenodd" clip-rule="evenodd" d="M120.41 12.5065C121.314 15.3107 122.524 18.0158 124.031 20.5985C126.248 24.3945 129.116 27.9327 132.557 31.1143C136.417 34.6826 140.495 37.3517 144.04 39.2815V97.4963C144.04 113.255 129.012 127.212 116.406 136.145C106.158 143.408 95.7201 148.628 89.9056 151.298C84.1852 148.676 73.9807 143.576 63.7906 136.406C55.1686 130.339 48.3901 124.08 43.6436 117.804C41.0595 114.386 39.0874 110.96 37.7822 107.618C36.4404 104.183 35.788 100.873 35.788 97.4963V39.2815C39.3323 37.3517 43.4114 34.6824 47.2702 31.1143C50.7112 27.9327 53.5797 24.3947 55.7962 20.5985C57.3039 18.016 58.5137 15.3107 59.4175 12.5065H120.41Z" fill="#1443BD"/>
<path fill-rule="evenodd" clip-rule="evenodd" d="M120.41 12.5065C121.314 15.3107 122.524 18.0158 124.031 20.5985C126.248 24.3945 129.116 27.9327 132.557 31.1143C136.417 34.6826 140.495 37.3517 144.04 39.2815V97.4963C144.04 113.255 129.012 127.212 116.406 136.145C106.158 143.408 95.7201 148.628 89.9056 151.298C84.1852 148.676 73.9807 143.576 63.7906 136.406C55.1686 130.339 48.3901 124.08 43.6436 117.804C41.0595 114.386 39.0874 110.96 37.7822 107.618C36.4404 104.183 35.788 100.873 35.788 97.4963V39.2815C39.3323 37.3517 43.4114 34.6824 47.2702 31.1143C50.7112 27.9327 53.5797 24.3947 55.7962 20.5985C57.3039 18.016 58.5137 15.3107 59.4175 12.5065H120.41Z" fill="white" fill-opacity="0.5"/>
<g filter="url(#filter0_ddddd_411_2867)">
<path fill-rule="evenodd" clip-rule="evenodd" d="M93.108 45.2712L71.2184 78.6283C70.0407 80.4369 71.3071 82.6608 73.4304 82.6608H83.2354L71.18 105.446C70.2806 107.288 72.598 108.997 74.0192 107.54L106.807 74.579C108.481 72.864 107.294 69.9341 104.926 69.9341H90.0988L96.3018 46.7193C96.7861 44.7434 94.2119 43.5761 93.108 45.2712Z" fill="white"/>
</g>
<path fill-rule="evenodd" clip-rule="evenodd" d="M46.2108 115.048C46.2108 124.758 38.3396 132.629 28.6298 132.629C18.9202 132.629 11.0489 124.758 11.0489 115.048C11.0489 105.338 18.9202 97.4668 28.6298 97.4668C38.3396 97.4668 46.2108 105.338 46.2108 115.048Z" fill="white"/>
<path fill-rule="evenodd" clip-rule="evenodd" d="M32.3768 109.923C32.3768 107.855 30.7005 106.178 28.6327 106.178C26.5649 106.178 24.8886 107.855 24.8886 109.923V111.8H23.0166V109.925C23.0166 106.823 25.5297 104.309 28.6297 104.309H28.6298C31.7298 104.309 34.2429 106.823 34.2429 109.925V111.8H32.3768V109.923Z" fill="#1443BD"/>
<path fill-rule="evenodd" clip-rule="evenodd" d="M20.7364 123.628H36.5233C36.9009 123.628 37.2097 123.297 37.2097 122.892V112.106C37.2097 111.702 36.9009 111.371 36.5233 111.371H20.7364C20.3589 111.371 20.05 111.702 20.05 112.106V122.892C20.05 123.297 20.3589 123.628 20.7364 123.628Z" fill="#1443BD"/>
<path fill-rule="evenodd" clip-rule="evenodd" d="M28.5812 114.706C28.2072 114.706 27.904 115.001 27.904 115.365L27.9041 117.53C27.5198 117.761 27.2626 118.181 27.2626 118.662C27.2626 119.39 27.8529 119.98 28.5812 119.98C29.3094 119.98 29.8998 119.39 29.8998 118.662C29.8998 118.181 29.6426 117.761 29.2583 117.53L29.2583 115.365C29.2583 115.005 28.9622 114.713 28.5943 114.706L28.5812 114.706Z" fill="white"/>
<path fill-rule="evenodd" clip-rule="evenodd" d="M163.344 87.5386L157.945 80.4286C157.426 79.7445 156.418 79.7335 155.884 80.4058L150.067 87.735C149.232 88.787 147.567 88.1109 147.668 86.7607L149.42 63.2946C149.421 63.2877 149.426 63.2823 149.433 63.2823H164.009C164.016 63.2823 164.022 63.2877 164.022 63.2946L165.761 86.5876C165.863 87.9531 164.166 88.6209 163.344 87.5386Z" fill="#F56D7E"/>
<path fill-rule="evenodd" clip-rule="evenodd" d="M176.326 46.2589C176.326 56.9142 167.545 65.5521 156.714 65.5521C145.884 65.5521 137.104 56.9142 137.104 46.2589C137.104 35.6035 145.884 26.9656 156.714 26.9656C167.545 26.9656 176.326 35.6035 176.326 46.2589Z" fill="#FFD666"/>
<path fill-rule="evenodd" clip-rule="evenodd" d="M170.291 46.2588C170.291 53.9892 164.213 60.2559 156.715 60.2559C149.216 60.2559 143.138 53.9892 143.138 46.2588C143.138 38.5285 149.216 32.2617 156.715 32.2617C164.213 32.2617 170.291 38.5285 170.291 46.2588Z" fill="#FAAD14"/>
<path fill-rule="evenodd" clip-rule="evenodd" d="M158.153 41.2725L158.984 43.0308C159.157 43.3951 159.489 43.6477 159.875 43.7061L161.734 43.9881C162.705 44.1352 163.092 45.3794 162.39 46.0936L161.044 47.4622C160.766 47.7458 160.639 48.1544 160.704 48.555L161.022 50.4875C161.188 51.4959 160.173 52.2649 159.305 51.7888L157.642 50.8765C157.297 50.6873 156.886 50.6873 156.541 50.8765L154.878 51.7888C154.01 52.2649 152.996 51.4959 153.161 50.4875L153.479 48.555C153.545 48.1544 153.418 47.7458 153.139 47.4622L151.793 46.0936C151.091 45.3794 151.478 44.1352 152.449 43.9881L154.308 43.7061C154.694 43.6477 155.027 43.3951 155.199 43.0308L156.031 41.2725C156.465 40.355 157.718 40.355 158.153 41.2725Z" fill="white"/>
<defs>
<filter id="filter0_ddddd_411_2867" x="0.767456" y="14.4541" width="176.823" height="203.633" filterUnits="userSpaceOnUse" color-interpolation-filters="sRGB">
<feFlood flood-opacity="0" result="BackgroundImageFix"/>
<feColorMatrix in="SourceAlpha" type="matrix" values="0 0 0 0 0 0 0 0 0 0 0 0 0 0 0 0 0 0 127 0" result="hardAlpha"/>
<feOffset dy="6"/>
<feGaussianBlur stdDeviation="4"/>
<feColorMatrix type="matrix" values="0 0 0 0 0.705882 0 0 0 0 0.831373 0 0 0 0 0.921569 0 0 0 0.12 0"/>
<feBlend mode="normal" in2="BackgroundImageFix" result="effect1_dropShadow_411_2867"/>
<feColorMatrix in="SourceAlpha" type="matrix" values="0 0 0 0 0 0 0 0 0 0 0 0 0 0 0 0 0 0 127 0" result="hardAlpha"/>
<feOffset dy="8"/>
<feGaussianBlur stdDeviation="12"/>
<feColorMatrix type="matrix" values="0 0 0 0 0.705882 0 0 0 0 0.831373 0 0 0 0 0.921569 0 0 0 0.08 0"/>
<feBlend mode="normal" in2="effect1_dropShadow_411_2867" result="effect2_dropShadow_411_2867"/>
<feColorMatrix in="SourceAlpha" type="matrix" values="0 0 0 0 0 0 0 0 0 0 0 0 0 0 0 0 0 0 127 0" result="hardAlpha"/>
<feOffset dy="16"/>
<feGaussianBlur stdDeviation="18"/>
<feColorMatrix type="matrix" values="0 0 0 0 0.705882 0 0 0 0 0.831373 0 0 0 0 0.921569 0 0 0 0.04 0"/>
<feBlend mode="normal" in2="effect2_dropShadow_411_2867" result="effect3_dropShadow_411_2867"/>
<feColorMatrix in="SourceAlpha" type="matrix" values="0 0 0 0 0 0 0 0 0 0 0 0 0 0 0 0 0 0 127 0" result="hardAlpha"/>
<feOffset dy="40"/>
<feGaussianBlur stdDeviation="35"/>
<feColorMatrix type="matrix" values="0 0 0 0 0.705882 0 0 0 0 0.831373 0 0 0 0 0.921569 0 0 0 0.04 0"/>
<feBlend mode="normal" in2="effect3_dropShadow_411_2867" result="effect4_dropShadow_411_2867"/>
<feColorMatrix in="SourceAlpha" type="matrix" values="0 0 0 0 0 0 0 0 0 0 0 0 0 0 0 0 0 0 127 0" result="hardAlpha"/>
<feOffset dy="2"/>
<feGaussianBlur stdDeviation="2"/>
<feColorMatrix type="matrix" values="0 0 0 0 0.87451 0 0 0 0 0.929412 0 0 0 0 0.964706 0 0 0 0.4 0"/>
<feBlend mode="normal" in2="effect4_dropShadow_411_2867" result="effect5_dropShadow_411_2867"/>
<feBlend mode="normal" in="SourceGraphic" in2="effect5_dropShadow_411_2867" result="shape"/>
</filter>
</defs>
</svg>
